<?xml version="1.0" encoding="utf-8"?>
<!-- Generator: Adobe Illustrator 27.5.0, SVG Export Plug-In . SVG Version: 6.00 Build 0)  -->
<svg version="1.1" xmlns="http://www.w3.org/2000/svg" xmlns:xlink="http://www.w3.org/1999/xlink" x="0px" y="0px"
	 viewBox="0 0 851 315" style="enable-background:new 0 0 851 315;" xml:space="preserve">
<g id="BACKGROUND">
	<rect style="fill:#C6CBEF;" width="851" height="315"/>
</g>
<g id="OBJECTS">
	<g>
		<defs>
			<rect id="SVGID_1_" width="851" height="315"/>
		</defs>
		<clipPath id="SVGID_00000121972160669023080190000016119906675526785715_">
			<use xlink:href="#SVGID_1_"  style="overflow:visible;"/>
		</clipPath>
		<g id="XMLID_1_" style="clip-path:url(#SVGID_00000121972160669023080190000016119906675526785715_);">
			<path style="fill:#8186D5;" d="M-17,323.021c51.215,17.361,108.479,16.172,155.669-9.578
				c30.447-16.614,57.345-46.768,55.692-81.413c-1.912-40.06-39.836-69.362-49.995-108.16
				c-10.544-40.265,15.316-86.537,55.135-98.656c24.493-7.455,51.016-3.009,75.6,4.143c24.583,7.151,48.57,16.985,73.94,20.423
				c25.371,3.438,53.297-0.516,72.191-17.793C431.703,22.413,437.991,8.037,438.487-6C438.487-6,335-122,165-93S-56,16-78,118
				S-63,292.043-17,323.021z"/>
		</g>
		<g id="XMLID_2_" style="clip-path:url(#SVGID_00000121972160669023080190000016119906675526785715_);">
			<path style="fill:#494CA2;" d="M872.092,88.072c-10.542-13.347-26.116-21.921-43.084-23.082c-0.101-0.007-0.202-0.014-0.303-0.02
				c-20.943-1.353-43.519,7.017-54.461,24.926c-12.186,19.943-7.505,45.413-10.95,68.529c-6.366,42.718-45.069,78.354-88.166,81.179
				c-27.776,1.821-54.762-8.468-82.298-12.547c-27.535-4.079-59.878,0.23-75.728,23.113c-12.908,18.636-10.807,43.448-16.573,65.373
				c-3.182,12.099-8.99,23.452-16.76,33.253c-5.572,7.028-9.38,15.292-11.307,24.051C466.51,399.9,463.977,451.838,525,470
				c84,25,129-102,224-94C840.262,383.685,976.744,220.568,872.092,88.072z"/>
		</g>
		<g style="clip-path:url(#SVGID_00000121972160669023080190000016119906675526785715_);">
			<path style="fill:#494CA2;" d="M259.843-26.857c-0.084-0.336-0.223-0.677-0.412-0.969c-0.293-0.454-0.588-0.74-1.024-1.051
				c-0.09-0.063-0.183-0.116-0.283-0.161c-0.23-0.101-0.461-0.217-0.711-0.259c-0.53-0.088-1.006-0.105-1.533,0.037
				c-0.552,0.15-1.052,0.454-1.473,0.842c-0.084,0.035-0.168,0.068-0.244,0.12c-0.437,0.295-0.796,0.628-1.062,1.09
				c-0.281,0.489-0.377,0.943-0.439,1.492c-0.041,0.368,0.013,0.757,0.097,1.114c0.058,0.245,0.171,0.482,0.274,0.709
				c0.051,0.112,0.11,0.214,0.181,0.313c0.312,0.434,0.662,0.805,1.139,1.067c0.518,0.283,0.993,0.391,1.57,0.455
				c0.404,0.045,0.824-0.012,1.217-0.104c0.381-0.088,0.767-0.248,1.093-0.464c0.47-0.312,0.753-0.608,1.083-1.057
				c0.214-0.291,0.355-0.644,0.471-0.982C260.023-25.353,260.018-26.156,259.843-26.857"/>
			<path style="fill:#494CA2;" d="M247.456-13.483c-0.016-0.076-0.04-0.148-0.067-0.22c-0.081-0.211-0.164-0.432-0.278-0.629
				c-0.114-0.196-0.267-0.374-0.407-0.548c-0.057-0.071-0.118-0.138-0.184-0.199c-0.172-0.157-0.362-0.3-0.554-0.432
				c-0.07-0.048-0.142-0.09-0.218-0.127c-0.211-0.101-0.429-0.2-0.654-0.268c-0.229-0.07-0.476-0.089-0.712-0.115
				c-0.326-0.036-0.666,0.016-0.982,0.097c-0.256,0.066-0.501,0.212-0.711,0.396c-0.253,0.087-0.491,0.212-0.697,0.409
				c-0.104,0.099-0.185,0.212-0.273,0.326c-0.086,0.111-0.179,0.22-0.248,0.342c-0.106,0.187-0.182,0.395-0.259,0.593
				c-0.025,0.063-0.047,0.128-0.064,0.194c-0.143,0.58-0.138,1.167,0.003,1.747c0.067,0.274,0.189,0.545,0.318,0.794
				c0.128,0.247,0.315,0.477,0.501,0.68c0.046,0.05,0.096,0.095,0.149,0.139c0.166,0.136,0.339,0.285,0.528,0.392
				c0.185,0.104,0.39,0.181,0.586,0.255c0.073,0.028,0.146,0.05,0.223,0.064c0.282,0.054,0.588,0.108,0.879,0.082
				c0.286-0.027,0.6-0.055,0.874-0.157c0.264-0.099,0.556-0.207,0.794-0.369c0.237-0.162,0.491-0.342,0.682-0.562
				c0.183-0.213,0.378-0.444,0.5-0.702c0.09-0.19,0.181-0.389,0.244-0.591c0.046-0.147,0.058-0.302,0.078-0.454
				C247.561-12.748,247.542-13.073,247.456-13.483"/>
			<path style="fill:#494CA2;" d="M252.052,19.179c-0.186-0.609-0.609-1.17-1.179-1.471c-0.112-0.059-0.228-0.117-0.347-0.166
				c-0.086-0.308-0.24-0.61-0.46-0.812c-0.349-0.32-0.807-0.558-1.295-0.536c-0.475,0.021-0.961,0.178-1.294,0.536
				c-0.2,0.215-0.382,0.451-0.547,0.694c-0.176,0.258-0.29,0.552-0.406,0.84c-0.056,0.143-0.101,0.285-0.128,0.436
				c-0.055,0.299-0.11,0.63-0.08,0.94c0.056,0.576,0.185,1.139,0.529,1.62c0.157,0.219,0.323,0.451,0.534,0.625
				c0.385,0.317,0.638,0.473,1.111,0.645c0.51,0.186,1.183,0.189,1.692-0.004c0.455-0.172,0.701-0.313,1.072-0.631
				c0.215-0.183,0.396-0.418,0.534-0.662c0.133-0.233,0.247-0.489,0.294-0.754c0.029-0.163,0.08-0.433,0.071-0.635
				C252.142,19.628,252.116,19.388,252.052,19.179"/>
			<path style="fill:#494CA2;" d="M264.271,36.429c-0.383-0.87-1.155-1.547-1.931-2.062c-0.481-0.319-1.118-0.308-1.629-0.092
				c-0.227,0.074-0.423,0.2-0.589,0.379c-0.227,0.228-0.384,0.497-0.471,0.808c-0.181,0.48-0.363,0.961-0.544,1.441
				c-0.033,0.088-0.047,0.186-0.057,0.286c-0.14,0.198-0.237,0.44-0.3,0.666c-0.064,0.239-0.105,0.517-0.087,0.768
				c0.037,0.518,0.168,1.036,0.472,1.467c0.299,0.423,0.653,0.807,1.129,1.038c0.637,0.31,1.292,0.408,1.988,0.247
				c0.519-0.12,0.986-0.413,1.373-0.77c0.351-0.324,0.581-0.722,0.763-1.153c0.187-0.443,0.296-0.901,0.291-1.389
				C264.674,37.464,264.508,36.966,264.271,36.429"/>
			<path style="fill:#494CA2;" d="M282.146,41.93c-0.089-0.659-0.382-1.296-0.882-1.75c-0.323-0.293-0.684-0.511-1.108-0.627
				c-0.411-0.113-0.929-0.115-1.334,0.023c-0.453,0.154-0.847,0.42-1.094,0.841c-0.008,0.013-0.012,0.03-0.019,0.043
				c-0.213-0.208-0.466-0.374-0.759-0.441c-0.451-0.103-1.022-0.102-1.411,0.184c-0.385,0.284-0.611,0.47-0.872,0.881
				c-0.106,0.168-0.175,0.369-0.245,0.553c-0.026,0.069-0.047,0.138-0.062,0.21c-0.054,0.277-0.099,0.567-0.067,0.85
				c0.057,0.497,0.131,0.783,0.337,1.239c0.521,1.155,1.788,1.697,2.985,1.758c0.512,0.026,1.043-0.063,1.539-0.182
				c0.445-0.107,0.889-0.28,1.29-0.496c0.536-0.287,0.958-0.706,1.298-1.204c0.158-0.23,0.279-0.515,0.351-0.782
				C282.199,42.636,282.198,42.316,282.146,41.93"/>
			<path style="fill:#494CA2;" d="M295.613,30.671c-0.084-0.396-0.253-0.8-0.493-1.127c-0.166-0.228-0.329-0.459-0.549-0.637
				c-0.149-0.119-0.326-0.27-0.502-0.374c-0.192-0.113-0.409-0.186-0.611-0.271c-0.243-0.076-0.487-0.087-0.73-0.032
				c-0.244,0.01-0.471,0.083-0.681,0.217c-0.332,0.194-0.639,0.552-0.781,0.93c-0.007-0.002-0.014-0.006-0.022-0.008
				c-0.468-0.107-0.994-0.084-1.41,0.184c-0.396,0.256-0.725,0.627-0.842,1.095c-0.139,0.562-0.151,1.177,0.024,1.733
				c0.176,0.561,0.457,1.023,0.851,1.457c0.185,0.202,0.415,0.365,0.634,0.527c0.121,0.09,0.247,0.168,0.384,0.231
				c0.242,0.113,0.518,0.243,0.788,0.302c0.284,0.062,0.591,0.114,0.884,0.1c0.552-0.028,1.128-0.159,1.596-0.47
				c0.448-0.298,0.831-0.664,1.097-1.139C295.719,32.553,295.811,31.599,295.613,30.671"/>
			<path style="fill:#494CA2;" d="M307.342,9.591c-0.526-1.055-1.601-1.788-2.699-2.134c-0.444-0.14-1.016-0.047-1.411,0.184
				c-0.38,0.222-0.742,0.658-0.841,1.095c-0.093,0.404-0.055,0.798,0.081,1.147c-0.359,0.201-0.671,0.491-0.877,0.843
				c-0.451,0.771-0.333,1.737,0.075,2.497c0.542,1.009,1.723,1.686,2.866,1.664c0.577-0.011,1.191-0.176,1.665-0.514
				c0.483-0.343,0.914-0.763,1.172-1.306c0.26-0.549,0.419-1.087,0.423-1.703C307.801,10.732,307.621,10.151,307.342,9.591"/>
			<path style="fill:#494CA2;" d="M312.468-9.53c-0.036-0.078-0.078-0.149-0.129-0.218c-0.125-0.17-0.271-0.389-0.444-0.536
				c-0.168-0.143-0.347-0.292-0.539-0.406c-0.205-0.122-0.439-0.208-0.659-0.29c-0.077-0.028-0.157-0.05-0.238-0.065
				c-0.237-0.044-0.479-0.084-0.72-0.089c-0.249-0.005-0.503,0.043-0.744,0.084c-0.09,0.016-0.178,0.042-0.264,0.076
				c-0.213,0.084-0.462,0.17-0.657,0.308c-0.187,0.133-0.418,0.289-0.57,0.481c-0.179,0.166-0.305,0.362-0.379,0.589
				c-0.114,0.218-0.167,0.453-0.157,0.705c-0.01,0.253,0.043,0.487,0.157,0.706c0.074,0.227,0.2,0.423,0.379,0.589
				c0.002,0.002,0.005,0.004,0.008,0.006c0.012,0.366,0.052,0.733,0.125,1.087c0.087,0.31,0.243,0.579,0.471,0.808
				c0.228,0.227,0.497,0.384,0.807,0.471c0.496,0.146,1.007,0.131,1.507,0.016c0.229-0.052,0.466-0.168,0.666-0.262
				c0.096-0.045,0.184-0.099,0.269-0.162c0.185-0.137,0.401-0.286,0.562-0.463c0.165-0.184,0.322-0.38,0.449-0.591
				c0.273-0.453,0.381-0.912,0.423-1.43C312.833-8.623,312.671-9.08,312.468-9.53"/>
			<path style="fill:#494CA2;" d="M306.052-30.044c-0.244-0.202-0.499-0.406-0.781-0.554c-0.286-0.151-0.589-0.274-0.894-0.383
				c-0.364-0.13-0.742-0.212-1.12-0.29c-0.483-0.101-0.975-0.071-1.411,0.185c-0.379,0.222-0.741,0.657-0.841,1.093
				c-0.106,0.469-0.084,0.995,0.185,1.411c0.04,0.062,0.089,0.121,0.135,0.181c-0.029,0.213-0.05,0.429-0.042,0.639
				c0.014,0.309,0.05,0.64,0.143,0.939c0.065,0.214,0.161,0.427,0.258,0.629c0.038,0.081,0.083,0.155,0.135,0.229
				c0.169,0.236,0.335,0.465,0.56,0.646c0.397,0.318,0.66,0.484,1.146,0.656c0.066,0.024,0.133,0.042,0.203,0.056
				c0.211,0.041,0.437,0.078,0.653,0.082c0.485,0.006,0.861-0.124,1.293-0.317c0.236-0.106,0.44-0.278,0.633-0.448
				c0.042-0.037,0.078-0.079,0.114-0.121c0.129-0.156,0.269-0.319,0.37-0.495c0.269-0.471,0.397-1,0.41-1.541
				C307.227-28.407,306.794-29.429,306.052-30.044"/>
			<path style="fill:#494CA2;" d="M286.122-36.432c-0.33-0.502-0.772-0.959-1.315-1.232c-0.585-0.293-1.203-0.471-1.863-0.461
				c-0.656,0.009-1.321,0.181-1.886,0.521c-0.397,0.238-0.718,0.645-0.841,1.093c-0.095,0.342-0.078,0.77,0.051,1.127
				c-0.181,0.289-0.29,0.614-0.292,0.971c-0.003,0.579,0.166,1.218,0.505,1.694c0.334,0.471,0.742,0.908,1.272,1.161
				c0.54,0.257,1.13,0.454,1.74,0.4c0.279-0.025,0.573-0.053,0.839-0.154c0.48-0.183,0.749-0.342,1.146-0.672
				c0.463-0.386,0.736-0.92,0.949-1.469c0.048-0.125,0.085-0.253,0.107-0.385c0.05-0.297,0.109-0.615,0.086-0.922
				C286.576-35.345,286.451-35.932,286.122-36.432"/>
			<path style="fill:#494CA2;" d="M273.271-19.625c-0.008-0.049-0.018-0.098-0.032-0.146c-0.059-0.193-0.146-0.384-0.236-0.565
				c-0.056-0.115-0.143-0.211-0.22-0.312c-0.087-0.112-0.17-0.231-0.273-0.331c-0.156-0.151-0.341-0.283-0.517-0.409
				c-0.06-0.043-0.123-0.081-0.188-0.115c-0.036-0.019-0.075-0.031-0.111-0.048c-0.083-0.075-0.144-0.172-0.247-0.227
				c-0.396-0.209-0.87-0.312-1.314-0.202c-0.029-0.004-0.058-0.008-0.086-0.011c-0.164-0.021-0.329-0.031-0.495-0.036
				c-0.252-0.009-0.487,0.044-0.705,0.158c-0.227,0.074-0.423,0.2-0.589,0.378c-0.178,0.166-0.305,0.363-0.379,0.59
				c-0.114,0.218-0.167,0.453-0.157,0.705c0.021,0.473,0.176,0.965,0.536,1.295c0.027,0.024,0.06,0.034,0.088,0.057
				c0.009,0.215,0.04,0.431,0.079,0.64c0.009,0.048,0.02,0.095,0.035,0.141c0.062,0.186,0.142,0.373,0.23,0.547
				c0.019,0.037,0.041,0.071,0.066,0.104c0.109,0.153,0.22,0.326,0.362,0.453c0.324,0.288,0.588,0.444,0.999,0.583
				c0.049,0.017,0.097,0.027,0.147,0.035c0.2,0.032,0.414,0.083,0.619,0.069c0.164-0.012,0.367-0.039,0.529-0.071
				c0.024-0.005,0.047-0.01,0.07-0.017c0.09-0.028,0.188-0.077,0.267-0.11c0.087-0.037,0.194-0.073,0.282-0.124
				c0.021-0.011,0.041-0.025,0.06-0.038c0.132-0.091,0.284-0.206,0.403-0.312c0.037-0.033,0.071-0.067,0.103-0.105
				c0.321-0.388,0.422-0.568,0.602-1.036c0.093-0.242,0.11-0.51,0.138-0.764C273.366-19.107,273.313-19.372,273.271-19.625"/>
			<path style="fill:#494CA2;" d="M260.39-8.432c-0.016-0.183-0.041-0.375-0.075-0.555c-0.038-0.2-0.16-0.431-0.23-0.59
				c-0.025-0.057-0.053-0.11-0.089-0.162c-0.099-0.142-0.213-0.286-0.325-0.42c-0.018-0.022-0.038-0.044-0.059-0.064
				c-0.021-0.02-0.043-0.038-0.065-0.056c-0.139-0.112-0.28-0.233-0.432-0.328c-0.169-0.106-0.368-0.173-0.551-0.244
				c-0.055-0.022-0.11-0.04-0.167-0.052c-0.249-0.05-0.532-0.104-0.794-0.08c-0.212,0.02-0.43,0.043-0.638,0.09
				c-0.057,0.013-0.113,0.029-0.168,0.049c-0.062,0.023-0.122,0.055-0.184,0.079c-0.277,0.021-0.541,0.09-0.785,0.232
				c-0.123,0.095-0.247,0.19-0.37,0.286c-0.227,0.229-0.384,0.498-0.471,0.808c-0.03,0.072-0.055,0.147-0.073,0.223
				c-0.008,0.035-0.008,0.073-0.015,0.108c-0.025,0.061-0.054,0.119-0.076,0.179c-0.009,0.026-0.018,0.052-0.025,0.079
				c-0.131,0.48-0.095,0.842-0.015,1.32c0.056,0.239,0.165,0.446,0.327,0.623c0.026,0.039,0.072,0.057,0.101,0.092
				c0.011,0.021,0.016,0.044,0.027,0.064c0.034,0.066,0.074,0.129,0.117,0.189c0.13,0.18,0.264,0.37,0.422,0.529
				c0.028,0.028,0.056,0.055,0.086,0.08c0.289,0.25,0.314,0.267,0.599,0.387c0.08,0.034,0.172,0.076,0.259,0.108
				c0.195,0.071,0.477,0.086,0.646,0.106c0.269,0.03,0.554-0.019,0.812-0.087c0.199-0.052,0.399-0.152,0.578-0.234
				c0.059-0.027,0.115-0.057,0.169-0.093c0.172-0.115,0.338-0.245,0.494-0.38c0.047-0.042,0.091-0.086,0.132-0.134
				c0.169-0.195,0.365-0.425,0.481-0.668c0.089-0.188,0.177-0.383,0.242-0.582c0.019-0.058,0.033-0.117,0.043-0.177
				c0.03-0.176,0.078-0.43,0.077-0.636C260.395-8.373,260.393-8.403,260.39-8.432"/>
			<path style="fill:#494CA2;" d="M260.52,7.903c-0.01-0.056-0.024-0.111-0.043-0.165c-0.073-0.197-0.147-0.408-0.258-0.588
				c-0.016-0.026-0.034-0.05-0.052-0.075c-0.104-0.14-0.208-0.291-0.329-0.419c-0.021-0.022-0.043-0.043-0.066-0.063
				c-0.136-0.116-0.285-0.235-0.435-0.333c-0.024-0.015-0.048-0.029-0.073-0.042c-0.131-0.067-0.282-0.127-0.426-0.179
				c-0.249-0.344-0.59-0.638-1.013-0.734c-0.463-0.106-1.003-0.09-1.41,0.184c-0.245,0.164-0.505,0.35-0.698,0.578
				c-0.194,0.228-0.405,0.477-0.53,0.755c-0.123,0.276-0.259,0.554-0.304,0.855c-0.031,0.213-0.08,0.459-0.078,0.685
				c0.003,0.234,0.044,0.472,0.086,0.701c0.013,0.071,0.032,0.14,0.057,0.208c0.076,0.206,0.156,0.425,0.272,0.615
				c0.112,0.184,0.254,0.354,0.393,0.518c0.046,0.054,0.097,0.103,0.152,0.149c0.162,0.139,0.336,0.281,0.519,0.393
				c0.188,0.116,0.423,0.2,0.614,0.275c0.271,0.108,0.578,0.138,0.865,0.158c0.07,0.004,0.138,0.001,0.208-0.006
				c0.216-0.023,0.45-0.036,0.66-0.105c0.445-0.144,0.766-0.333,1.113-0.643c0.097-0.087,0.173-0.201,0.252-0.302
				c0.086-0.111,0.178-0.217,0.242-0.343c0.119-0.239,0.242-0.503,0.287-0.771C260.609,8.693,260.617,8.424,260.52,7.903"/>
			<path style="fill:#494CA2;" d="M273.045,20.693c-0.183-0.397-0.533-0.721-0.892-0.958c-0.028-0.019-0.056-0.034-0.086-0.05
				c-0.151-0.077-0.328-0.156-0.493-0.204c-0.027-0.008-0.053-0.012-0.081-0.017c-0.178-0.031-0.375-0.072-0.557-0.068
				c-0.128,0.003-0.248,0.035-0.372,0.057c-0.066-0.111-0.145-0.213-0.244-0.304c-0.349-0.321-0.807-0.559-1.294-0.537
				c-0.163,0.022-0.325,0.044-0.487,0.065c-0.31,0.088-0.579,0.245-0.808,0.472c-0.063,0.056-0.122,0.116-0.176,0.182
				c-0.143,0.174-0.295,0.354-0.411,0.55c-0.159,0.269-0.286,0.57-0.363,0.874c-0.155,0.61-0.168,1.305,0.022,1.91
				c0.069,0.219,0.166,0.434,0.265,0.641c0.037,0.076,0.079,0.149,0.128,0.218c0.133,0.184,0.267,0.375,0.427,0.537
				c0.159,0.162,0.353,0.297,0.533,0.429c0.521,0.381,1.159,0.519,1.787,0.576c0.313,0.028,0.653-0.031,0.953-0.086
				c0.082-0.016,0.162-0.037,0.241-0.065c0.215-0.076,0.432-0.164,0.635-0.271c0.139-0.073,0.256-0.172,0.381-0.267
				c0.121-0.095,0.246-0.182,0.348-0.297c0.148-0.168,0.292-0.349,0.411-0.539c0.121-0.193,0.199-0.416,0.282-0.625
				c0.03-0.075,0.056-0.15,0.073-0.228c0.049-0.224,0.083-0.46,0.092-0.689C273.378,21.522,273.239,21.116,273.045,20.693"/>
			<path style="fill:#494CA2;" d="M288.143,16.107c-0.407-0.241-0.774-0.312-1.234-0.355c-0.074-0.007-0.145-0.009-0.22-0.002
				c-0.217,0.018-0.455,0.036-0.665,0.102c-0.429,0.134-0.756,0.324-1.088,0.622c-0.024,0.022-0.036,0.051-0.059,0.074
				c-0.112-0.022-0.224-0.034-0.332-0.029c-0.473,0.021-0.964,0.177-1.295,0.536l-0.286,0.371c-0.165,0.285-0.249,0.593-0.25,0.924
				c-0.018,0.142-0.016,0.281,0.002,0.424c0.039,0.317,0.064,0.603,0.183,0.894c0.217,0.534,0.475,1.036,0.921,1.423
				c0.438,0.38,0.946,0.708,1.525,0.82c0.571,0.11,1.154,0.124,1.716-0.056c1.11-0.356,2.008-1.191,2.347-2.32
				C289.785,18.275,289.292,16.786,288.143,16.107"/>
			<path style="fill:#494CA2;" d="M296.944-1.498c-0.142-0.229-0.311-0.455-0.507-0.641c-0.203-0.192-0.437-0.377-0.683-0.512
				c-0.523-0.289-1.104-0.45-1.703-0.455c-0.153-0.002-0.303,0.025-0.454,0.045c-0.15,0.02-0.302,0.033-0.449,0.075
				c-0.284,0.08-0.571,0.197-0.818,0.361c-0.398,0.264-0.712,0.625-0.842,1.094c-0.032,0.118-0.049,0.247-0.056,0.379
				c-0.038,0.033-0.081,0.06-0.116,0.098c-0.318,0.346-0.564,0.81-0.536,1.295c0.033,0.577,0.17,1.179,0.511,1.659
				c0.336,0.473,0.73,0.905,1.257,1.171c0.509,0.256,1.073,0.44,1.652,0.411c0.568-0.028,1.159-0.17,1.63-0.504
				c0.459-0.327,0.876-0.716,1.133-1.228c0.26-0.519,0.414-1.027,0.422-1.613C297.393-0.419,297.237-1.023,296.944-1.498"/>
			<path style="fill:#494CA2;" d="M293.821-17.162c-0.066-0.196-0.152-0.389-0.24-0.576c-0.026-0.057-0.056-0.113-0.09-0.167
				c-0.109-0.173-0.242-0.334-0.372-0.491c-0.04-0.048-0.083-0.094-0.13-0.136c-0.21-0.189-0.454-0.386-0.714-0.513
				c-0.287-0.139-0.599-0.281-0.916-0.339c-0.32-0.057-0.654-0.11-0.981-0.099c-0.517,0.017-1.055,0.105-1.541,0.293
				c-0.238,0.056-0.446,0.166-0.622,0.327c-0.2,0.129-0.357,0.301-0.472,0.514c-0.133,0.21-0.206,0.437-0.217,0.681
				c-0.055,0.243-0.044,0.486,0.032,0.73c0.144,0.443,0.418,0.87,0.842,1.094c0.076,0.032,0.152,0.064,0.229,0.096
				c0.018,0.124,0.045,0.247,0.085,0.362c0.065,0.188,0.145,0.376,0.234,0.553c0.025,0.049,0.054,0.095,0.085,0.141
				c0.141,0.201,0.296,0.426,0.489,0.588c0.151,0.126,0.308,0.256,0.476,0.362c0.11,0.069,0.236,0.112,0.353,0.162
				c0.111,0.047,0.228,0.107,0.349,0.134c0.1,0.022,0.216,0.032,0.31,0.044c0.094,0.013,0.208,0.035,0.311,0.038
				c0.026,0,0.052-0.002,0.079-0.004c0.175-0.012,0.369-0.037,0.543-0.074c0.199-0.041,0.398-0.144,0.571-0.227
				c0.052-0.025,0.1-0.053,0.146-0.086c0.166-0.116,0.344-0.239,0.486-0.386c0.175-0.182,0.351-0.396,0.462-0.629
				s0.231-0.484,0.275-0.744c0.044-0.261,0.099-0.547,0.075-0.817C293.935-16.601,293.909-16.899,293.821-17.162"/>
			<path style="fill:#494CA2;" d="M280.92-4.143c-0.059-0.441-0.184-0.871-0.443-1.242c-0.277-0.394-0.613-0.76-1.057-0.967
				c-0.457-0.213-0.94-0.382-1.456-0.338c-0.465,0.04-0.738,0.107-1.159,0.311c-0.223,0.108-0.429,0.275-0.604,0.447
				c-0.333,0.327-0.536,0.829-0.536,1.294c0,0.45,0.199,0.986,0.536,1.295c0.031,0.029,0.068,0.053,0.101,0.08
				c-0.313,0.084-0.611,0.244-0.834,0.466c-0.318,0.318-0.557,0.839-0.537,1.295c0.022,0.473,0.177,0.964,0.537,1.294
				c0.358,0.329,0.798,0.535,1.294,0.536c1.482,0.004,2.906-0.811,3.666-2.081c0.094-0.156,0.16-0.321,0.231-0.489
				c0.075-0.179,0.154-0.354,0.198-0.545C280.965-3.259,280.983-3.674,280.92-4.143"/>
			<path style="fill:#494CA2;" d="M271.038,5.364c-0.53-0.286-1.163-0.392-1.748-0.208c-0.158,0.05-0.313,0.128-0.465,0.208
				c-0.081-0.011-0.162-0.021-0.244-0.033c-0.331,0.001-0.638,0.085-0.924,0.25c-0.406,0.262-0.702,0.625-0.841,1.095
				c-0.025,0.081-0.044,0.163-0.057,0.247c-0.039,0.237-0.08,0.482-0.088,0.723c-0.002,0.085,0.001,0.17,0.01,0.254
				c0.024,0.239,0.05,0.485,0.104,0.722c0.019,0.082,0.043,0.164,0.072,0.243c0.079,0.218,0.168,0.435,0.272,0.642
				c0.041,0.08,0.087,0.157,0.138,0.231c0.135,0.192,0.278,0.382,0.436,0.556c0.228,0.227,0.498,0.384,0.808,0.471
				c0.324,0.087,0.649,0.087,0.973,0c0.342-0.119,0.678-0.253,1.007-0.404c0.318-0.146,0.585-0.357,0.856-0.58
				c0.072-0.061,0.138-0.127,0.198-0.199c0.136-0.161,0.317-0.365,0.416-0.572c0.218-0.457,0.346-0.851,0.351-1.367
				C272.322,6.737,271.851,5.801,271.038,5.364"/>
			<path style="fill:#494CA2;" d="M286.095,6.674c-0.135-0.324-0.259-0.651-0.453-0.945c-0.193-0.294-0.412-0.58-0.658-0.832
				c-0.242-0.248-0.527-0.461-0.808-0.658c-0.173-0.121-0.358-0.223-0.553-0.306c-0.21-0.134-0.437-0.206-0.68-0.217
				c-0.244-0.054-0.487-0.043-0.73,0.033c-0.239,0.056-0.446,0.166-0.623,0.327c-0.199,0.13-0.356,0.301-0.471,0.514
				c-0.225,0.425-0.337,0.939-0.185,1.411c0.062,0.146,0.123,0.291,0.185,0.437c0.002,0.004,0.005,0.007,0.007,0.01
				c-0.012,0.031-0.028,0.058-0.04,0.09c-0.02,0.05-0.035,0.1-0.046,0.153c-0.038,0.199-0.077,0.416-0.075,0.622
				c0.005,0.687,0.271,1.301,0.723,1.809c0.164,0.185,0.37,0.345,0.592,0.454c0.342,0.168,0.639,0.284,1.028,0.284
				c0.252,0.009,0.487-0.043,0.705-0.158c0.227-0.074,0.423-0.2,0.589-0.379c0.038-0.032,0.076-0.064,0.114-0.096
				c0.302-0.258,0.605-0.514,0.908-0.772c0.227-0.228,0.384-0.498,0.471-0.808C286.182,7.323,286.182,6.998,286.095,6.674"/>
			<path style="fill:#494CA2;" d="M268.586-41.662c-0.691-0.682-1.583-1.087-2.497-1.379c-0.441-0.142-1.016-0.046-1.41,0.184
				c-0.38,0.222-0.742,0.658-0.842,1.094c-0.106,0.469-0.083,0.995,0.185,1.411c0.093,0.144,0.213,0.252,0.33,0.364
				c-0.128,0.177-0.235,0.366-0.296,0.582c-0.049,0.129-0.056,0.253-0.075,0.393c-0.017,0.123-0.043,0.248-0.041,0.373
				c0.005,0.365,0.085,0.647,0.221,0.97c0.235,0.556,0.625,0.97,1.127,1.301c0.444,0.293,0.965,0.409,1.487,0.447
				c0.259,0.019,0.53-0.027,0.78-0.089c0.12-0.03,0.237-0.089,0.349-0.136c0.137-0.057,0.26-0.103,0.379-0.185
				c0.433-0.296,0.835-0.677,1.055-1.162c0.229-0.505,0.375-0.991,0.369-1.556C269.697-40.035,269.286-40.972,268.586-41.662"/>
			<path style="fill:#494CA2;" d="M246.953,39.189c-0.031-0.27-0.05-0.56-0.145-0.82c-0.186-0.513-0.445-1.034-0.884-1.381
				c-0.166-0.179-0.362-0.305-0.589-0.379c-0.218-0.114-0.453-0.167-0.705-0.157c-0.449,0-0.986,0.199-1.295,0.536
				c-0.019,0.021-0.035,0.046-0.053,0.068c-0.415-0.207-0.906-0.308-1.358-0.162c-0.463,0.15-0.831,0.425-1.094,0.841
				c-0.296,0.468-0.436,1.032-0.451,1.58c-0.015,0.583,0.155,1.085,0.388,1.604c0.164,0.364,0.42,0.703,0.707,0.977
				c0.408,0.389,0.839,0.636,1.367,0.821c0.526,0.184,1.118,0.162,1.655,0.044c0.522-0.115,0.966-0.409,1.362-0.753
				c0.188-0.162,0.338-0.386,0.483-0.577c0.075-0.101,0.142-0.206,0.196-0.321c0.109-0.23,0.217-0.466,0.289-0.711
				c0.074-0.255,0.102-0.549,0.128-0.803C246.968,39.46,246.968,39.326,246.953,39.189"/>
			<path style="fill:#494CA2;" d="M273.6,55.101c-0.178-0.47-0.403-0.931-0.791-1.27c-0.372-0.323-0.797-0.601-1.29-0.703
				c-0.105-0.022-0.198-0.019-0.298-0.033c-0.126-0.151-0.271-0.285-0.448-0.378c-0.447-0.236-0.914-0.299-1.411-0.185
				c-0.332,0.076-0.667,0.215-0.952,0.403c-0.277,0.182-0.558,0.393-0.77,0.651c-0.218,0.264-0.43,0.527-0.57,0.84
				c-0.093,0.209-0.202,0.444-0.268,0.671c-0.071,0.245-0.095,0.515-0.124,0.763c-0.041,0.344,0.011,0.689,0.073,1.028
				c0.06,0.33,0.202,0.661,0.369,0.947c0.119,0.204,0.276,0.389,0.425,0.569c0.066,0.079,0.14,0.15,0.22,0.216
				c0.175,0.145,0.366,0.303,0.566,0.423c0.207,0.123,0.452,0.213,0.668,0.3c0.655,0.262,1.364,0.241,2.045,0.129
				c0.33-0.055,0.648-0.198,0.944-0.342c0.082-0.041,0.16-0.088,0.235-0.141c0.194-0.138,0.398-0.282,0.566-0.454
				c0.618-0.635,0.951-1.484,0.975-2.365C273.773,55.815,273.726,55.434,273.6,55.101"/>
			<path style="fill:#494CA2;" d="M299.655,47.663c-0.137-0.536-0.463-1.071-0.859-1.454c-0.446-0.431-0.953-0.701-1.534-0.903
				c-0.155-0.055-0.315-0.091-0.477-0.115c-0.309-0.048-0.623-0.099-0.937-0.088c-0.48,0.017-0.951,0.193-1.295,0.537
				c-0.178,0.165-0.304,0.362-0.378,0.588c-0.115,0.219-0.167,0.454-0.158,0.706c0.014,0.312,0.095,0.627,0.245,0.904
				c-0.026,0.169-0.061,0.337-0.079,0.505c-0.014,0.132-0.014,0.264-0.001,0.397c0.025,0.255,0.048,0.542,0.141,0.789
				c0.167,0.441,0.314,0.723,0.641,1.076c0.469,0.507,1.184,0.801,1.871,0.801c0.516,0,1.092-0.161,1.509-0.472
				c0.223-0.166,0.437-0.313,0.608-0.528c0.119-0.148,0.27-0.325,0.374-0.5c0.109-0.184,0.198-0.422,0.269-0.605
				C299.792,48.793,299.789,48.185,299.655,47.663"/>
			<path style="fill:#494CA2;" d="M317.167,28.944c-0.061-0.269-0.179-0.535-0.319-0.771c-0.223-0.376-0.555-0.745-0.934-0.999
				c-0.091-0.273-0.233-0.533-0.43-0.713c-0.349-0.32-0.807-0.558-1.295-0.537c-0.496,0.023-0.925,0.196-1.294,0.537
				c-0.212,0.196-0.384,0.43-0.555,0.662c-0.237,0.123-0.468,0.263-0.678,0.423c-0.213,0.115-0.385,0.272-0.514,0.472
				c-0.161,0.176-0.27,0.384-0.327,0.622c-0.076,0.243-0.088,0.487-0.033,0.73c0.012,0.244,0.084,0.47,0.218,0.681
				c0.252,0.391,0.627,0.735,1.094,0.841c0.005,0.001,0.009,0.001,0.014,0.002c0.122,0.188,0.26,0.363,0.417,0.503
				c0.402,0.354,0.882,0.662,1.418,0.761c0.256,0.048,0.546,0.102,0.814,0.071c0.463-0.053,0.809-0.108,1.222-0.353
				c0.579-0.344,1.084-0.968,1.199-1.645C317.267,29.746,317.277,29.435,317.167,28.944"/>
			<path style="fill:#494CA2;" d="M327.391,4.513c-0.181-0.403-0.466-0.786-0.802-1.072c-0.222-0.191-0.455-0.379-0.72-0.504
				c-0.505-0.237-0.783-0.291-1.335-0.36c-0.432-0.054-1.002,0.244-1.295,0.536c-0.318,0.317-0.557,0.838-0.536,1.295
				c0,0.002,0.001,0.005,0.001,0.008c-0.12,0.135-0.242,0.263-0.354,0.415c-0.411,0.552-0.602,1.202-0.651,1.881
				c-0.045,0.608,0.143,1.35,0.504,1.845c0.265,0.367,0.54,0.688,0.951,0.904c0.218,0.115,0.451,0.221,0.692,0.275
				c0.241,0.053,0.518,0.098,0.768,0.083c0.831-0.05,1.6-0.361,2.202-0.941c0.409-0.395,0.67-0.886,0.85-1.419
				c0.137-0.403,0.192-0.865,0.159-1.29C327.774,5.536,327.649,5.085,327.391,4.513"/>
			<path style="fill:#494CA2;" d="M330.155-23.272c-0.015-0.083-0.033-0.166-0.062-0.246c-0.104-0.299-0.227-0.614-0.419-0.873
				c-0.139-0.187-0.278-0.386-0.446-0.551c-0.163-0.161-0.355-0.297-0.539-0.432c-0.074-0.054-0.15-0.102-0.232-0.143
				c-0.21-0.104-0.432-0.204-0.657-0.272c-0.225-0.067-0.471-0.087-0.702-0.11c-0.097-0.01-0.192-0.011-0.29,0
				c-0.252-0.01-0.487,0.043-0.705,0.157c-0.037,0.012-0.068,0.034-0.104,0.05c-0.226,0.03-0.447,0.1-0.652,0.22
				c-0.186,0.11-0.355,0.252-0.52,0.388c-0.055,0.044-0.106,0.091-0.152,0.143c-0.184,0.205-0.378,0.439-0.5,0.691
				c-0.123,0.255-0.251,0.528-0.308,0.809c-0.058,0.284-0.108,0.586-0.098,0.878c0.009,0.218,0.047,0.438,0.08,0.652
				c0.012,0.075,0.027,0.148,0.048,0.221c0.06,0.203,0.154,0.399,0.239,0.592c0.031,0.068,0.064,0.134,0.104,0.197
				c0.112,0.177,0.248,0.344,0.383,0.503c0.049,0.058,0.101,0.11,0.159,0.159c0.16,0.134,0.327,0.273,0.507,0.382
				c0.189,0.115,0.407,0.193,0.61,0.272c0.273,0.105,0.575,0.128,0.861,0.157c0.288,0.029,0.604-0.031,0.877-0.077
				c0.289-0.048,0.548-0.175,0.816-0.291c0.131-0.057,0.251-0.125,0.365-0.21c0.167-0.125,0.344-0.248,0.494-0.394
				c0.158-0.153,0.286-0.339,0.416-0.514c0.171-0.23,0.276-0.51,0.372-0.775c0.104-0.286,0.14-0.61,0.137-0.912
				C330.234-22.824,330.194-23.054,330.155-23.272"/>
		</g>
		<path style="clip-path:url(#SVGID_00000121972160669023080190000016119906675526785715_);fill:#494CA2;" d="M897.35,29.004
			c-5.577-0.285-11.174-0.44-16.78-0.512c0.497-0.665,1.011-1.322,1.553-1.964c1.294-1.535,0.266-3.526-1.153-4.009
			c0.407-1.594,0.789-3.196,1.119-4.817c0.411-2.019-1.615-3.759-3.512-2.701c-2.186,1.22-3.764,2.887-5.083,4.783
			c-0.181-1.145-1.087-2.161-2.367-2.099c-2.128,0.105-3.79,1.09-5.189,2.477c0.18-0.691,0.364-1.378,0.534-2.073
			c0.576-2.344-2.224-3.918-3.974-2.312c-1.083,0.993-2.063,2.053-3.001,3.139c0.177-1.566,0.31-3.145,0.355-4.751
			c0.054-1.929-2.683-3.244-4.01-1.663c-2.571,3.066-4.838,6.304-6.914,9.657c0.404-2.004,0.781-4.016,1.123-6.036
			c0.332-1.964-2.276-4.278-3.852-2.243c-2.733,3.531-5.2,7.181-7.436,10.962c0.924-3.482,1.583-7.008,0.821-10.755
			c-0.422-2.084-3.221-2.104-4.244-0.554c-2.143,3.249-4.204,6.547-6.225,9.868c0.129-0.426,0.258-0.852,0.387-1.277
			c1.153-3.773,2.529-7.086-0.185-10.381c-0.72-0.874-2.52-0.908-3.229,0c-1.971,2.523-3.761,5.144-5.439,7.827
			c0.243-1.271,0.471-2.546,0.673-3.829c0.375-2.375-2.715-4.068-4.095-1.727c-1.475,2.505-2.951,5.009-4.427,7.513
			c0.308-2.239,0.512-4.504,0.583-6.804c0.055-1.721-2.48-3.004-3.654-1.515c-0.756,0.959-1.486,1.931-2.197,2.913
			c0.221-0.805,0.457-1.604,0.671-2.413c0.359-1.356-0.968-2.959-2.425-2.425c-4.675,1.713-6.536,5.806-8.916,9.928
			c-0.626,1.084-1.246,2.172-1.87,3.257c0.959-4.139,1.722-8.33,2.291-12.585c0.231-1.733-2.305-2.577-3.386-1.402
			c-3.383,3.677-6.178,7.742-8.617,12.024c0.229-1.01,0.466-2.02,0.687-3.034c0.733-3.35,1.86-6.948-1.937-8.444
			c-0.835-0.329-1.765,0.231-2.215,0.9c-1.722,2.559-3.371,5.157-4.988,7.776c0.162-0.506,0.322-1.013,0.484-1.52
			c0.58-1.81-2.022-3.444-3.297-1.918c-2.836,3.393-5.474,6.911-7.927,10.552c1.085-3.772,2.174-7.541,3.278-11.309
			c0.576-1.967-2.298-3.191-3.313-1.396c-1.262,2.233-2.508,4.474-3.765,6.71l3.089-8.241c0.702-1.872-2.028-2.725-3.037-1.282
			c-4.178,5.98-8.122,12.11-11.91,18.336c-5.513,0.181-11.015,0.444-16.498,0.835c-1.561,0.112-1.566,2.323,0,2.432
			c4.684,0.324,9.382,0.551,14.09,0.71c-1.659,2.802-3.292,5.619-4.887,8.46c-0.826,1.47,1.402,2.773,2.261,1.321
			c1.93-3.262,3.923-6.48,5.944-9.682c0.794,0.022,1.588,0.045,2.383,0.064c-0.968,2.529-1.936,5.058-2.904,7.588
			c-0.727,1.897,2.265,3.079,3.237,1.365c1.672-2.949,3.332-5.907,5.002-8.857c0.372,0.004,0.745,0.008,1.117,0.012
			c-0.615,2.065-1.226,4.131-1.844,6.196c-0.616,2.052,2.465,3.4,3.49,1.471c1.382-2.599,2.844-5.136,4.378-7.625
			c0.678,0.002,1.358,0.003,2.038,0.004c-0.242,0.767-0.48,1.535-0.723,2.302c-0.656,2.07,2.517,3.441,3.532,1.489
			c0.665-1.278,1.362-2.537,2.048-3.802c1.877-0.008,3.754-0.02,5.631-0.038c-0.991,3.556-1.813,6.384-2.017,7.068
			c-0.604,2.032,2.626,3.511,3.512,1.48c1.26-2.89,2.521-5.768,3.843-8.604c1.46-0.018,2.92-0.036,4.379-0.056
			c-0.714,2.105-1.485,4.196-2.327,6.274c-0.841,2.078,2.467,3.347,3.55,1.498c1.535-2.618,3.066-5.235,4.599-7.852
			c1.176-0.017,2.351-0.032,3.526-0.049c-0.496,1.23-0.971,2.47-1.41,3.733c-0.858,2.477,2.98,3.461,3.89,1.072
			c0.618-1.651,1.292-3.267,2.001-4.862c1.019-0.011,2.038-0.025,3.056-0.036c-0.306,0.822-0.626,1.641-0.969,2.459
			c-0.975,2.328,2.763,3.744,3.99,1.682c0.831-1.396,1.662-2.792,2.493-4.188c0.492-0.003,0.984-0.003,1.476-0.006
			c-0.933,2.779-1.957,5.535-3.101,8.261c-0.986,2.351,3.074,4.08,4.146,1.748c1.543-3.358,3.102-6.713,4.743-10.023
			c1.065,0.001,2.132,0.001,3.198,0.005c-0.818,2.693-1.635,5.387-2.458,8.079c-0.747,2.44,2.927,4.028,4.148,1.748
			c1.764-3.298,3.602-6.55,5.473-9.782c1.187,0.01,2.373,0.02,3.561,0.031c-0.341,1.882-0.488,3.788-0.233,5.741
			c0.341,2.604,3.511,3.097,4.524,0.613c0.869-2.132,1.814-4.224,2.827-6.278c0.771,0.009,1.543,0.017,2.314,0.026
			c-0.534,1.953-1.096,3.899-1.694,5.839c-0.758,2.462,3.071,4.173,4.231,1.784c1.227-2.535,2.468-5.061,3.753-7.559
			c0.88,0.008,1.761,0.016,2.643,0.023c-0.289,0.602-0.578,1.204-0.863,1.809c-1.278,2.716,2.65,5.113,4.084,2.387
			c0.576-1.097,1.1-2.205,1.597-3.32c0.139-0.282,0.279-0.561,0.418-0.841c0.372,0.001,0.745,0.004,1.117,0.005
			c-0.515,1.405-1.056,2.8-1.614,4.19c-0.974,2.113-1.883,4.26-2.731,6.437c-0.967,2.483,3.239,4.283,4.337,1.829
			c0.797-1.782,1.554-3.575,2.289-5.373c1.095-2.409,2.281-4.772,3.59-7.078c0.66-0.001,1.321-0.004,1.981-0.006
			c-1.162,3.251-2.454,6.459-3.9,9.623c-1.262,2.759,2.677,5.2,4.147,2.423c2.135-4.034,4.272-8.067,6.411-12.099
			c0.229-0.003,0.458-0.005,0.688-0.008c-1.115,2.399-2.027,4.913-2.727,7.568c-0.654,2.483,3.126,4.29,4.29,1.81
			c1.463-3.119,2.797-6.277,3.992-9.482c6.638-0.154,13.261-0.424,19.853-0.878C899.744,32.581,899.77,29.128,897.35,29.004
			 M874.346,28.446c-0.14,0-0.278-0.001-0.417-0.001c0.354-0.736,0.72-1.478,1.103-2.212
			C874.811,26.973,874.583,27.711,874.346,28.446 M754.011,29.528c1.052-1.624,2.119-3.238,3.192-4.849
			c-0.615,1.607-1.229,3.212-1.843,4.818C754.91,29.507,754.46,29.516,754.011,29.528 M769.168,29.307
			c0.317-0.47,0.636-0.936,0.958-1.401c-0.146,0.466-0.292,0.931-0.438,1.398C769.514,29.304,769.341,29.306,769.168,29.307
			 M775.67,29.295c2.281-3.988,4.671-7.91,7.171-11.77c-0.518,2.811-1.68,7.391-2.862,11.778
			C778.543,29.298,777.107,29.296,775.67,29.295 M786.24,29.333c1.806-3.564,3.781-7.027,6.051-10.328
			c-0.634,3.499-1.46,6.946-2.455,10.351C788.638,29.348,787.439,29.341,786.24,29.333 M797.157,28.745
			c1.564-2.689,3.348-7.118,5.717-10.278c-1.034,3.689-2.209,7.334-3.487,10.945c-0.87-0.004-1.741-0.009-2.612-0.014
			C796.902,29.18,797.031,28.963,797.157,28.745 M804.246,29.429c1.228-2.396,2.582-4.721,4.049-6.982
			c-0.395,2.361-0.937,4.685-1.613,6.985C805.87,29.431,805.057,29.431,804.246,29.429 M820.212,29.355
			c1.775-3.35,3.689-6.619,5.801-9.77c-0.897,3.362-2.741,7.42-3.201,8.939c-0.08,0.266-0.162,0.53-0.242,0.796
			C821.784,29.332,820.998,29.344,820.212,29.355 M831.009,29.166c1.256-2.098,2.533-4.183,3.832-6.256
			c-0.456,2.075-1.119,4.136-1.723,6.211C832.415,29.136,831.712,29.152,831.009,29.166 M841.638,28.926
			c0.565-1.002,1.146-1.993,1.745-2.972c-0.225,0.984-0.463,1.966-0.704,2.948C842.332,28.91,841.985,28.917,841.638,28.926
			 M854.208,22.51c-0.421,2.097-1,4.15-1.703,6.173c-0.692,0.014-1.384,0.028-2.078,0.043
			C851.616,26.61,852.87,24.535,854.208,22.51 M865.602,28.478c0.451-0.747,0.926-1.497,1.415-2.203
			c-0.211,0.733-0.425,1.466-0.648,2.194C866.114,28.472,865.858,28.476,865.602,28.478"/>
		<path style="clip-path:url(#SVGID_00000121972160669023080190000016119906675526785715_);fill:#494CA2;" d="M134.302,27.957
			c3.652-5.131,7.309-10.257,10.953-15.394c1.64-2.313,3.467-4.528,4.825-6.999c1.823-3.317,4.357-6.139,6.131-9.488
			c1.19-2.246,2.981-4.168,4.23-6.388c1.889-3.358,4.059-6.524,6.11-9.773c3.164-5.012,5.677-10.425,9.301-15.154
			c0.692-0.904,1.497-1.728,2.302-2.536c0.689-0.692,1.627-0.659,2.394-0.313c0.734,0.331,0.849,1.215,0.637,1.924
			c-0.367,1.221-0.883,2.399-1.353,3.587c-1.706,4.309-3.273,8.68-5.16,12.907c-3.615,8.098-7.456,16.095-11.12,24.172
			c-1.958,4.315-3.631,8.754-5.677,13.038c-2.506,5.245-5.219,10.362-8.079,15.428c-2.857,5.059-6.151,9.761-9.773,14.247
			c-5.408,6.695-10.897,13.327-16.835,19.571c-0.86,0.903-1.566,1.953-2.413,2.869c-0.381,0.413-0.95,0.964-1.515,0.26
			c-0.48-0.598-1.474-1.083-0.838-2.118c0.378-0.615,0.778-1.235,1.27-1.756c4.222-4.478,7.679-9.598,11.821-14.132
			c4.643-5.083,8.59-10.678,12.492-16.313c3.349-4.835,5.935-10.112,8.556-15.35c2.14-4.279,3.877-8.759,5.979-13.058
			c3.519-7.194,6.257-14.747,10.111-21.787c0.928-1.694,1.54-3.561,2.297-5.349c0.745-1.062,0.885-2.36,1.328-3.061
			c-0.048,0.233-0.157,0.918-0.954,1.185c-2.371,3.839-4.68,7.718-7.125,11.508c-3.937,6.102-8.038,12.097-11.93,18.226
			c-4.632,7.292-9.719,14.256-14.923,21.135c-3.594,4.751-7.356,9.377-11.101,14.012c-0.529,0.655-1.135,1.719-2.334,0.939
			c-1.24-0.809-1.4-2.057-0.786-3.177c2.148-3.915,4.035-7.964,6.317-11.813c3.525-5.946,6.72-12.08,10.005-18.162
			c1.644-3.043,3.246-6.122,4.873-9.178c2.941-5.521,5.577-11.206,8.534-16.719c1.579-2.942,2.701-6.094,4.503-8.952
			c0.799-1.266,1.255-3.025,1.392-4.721c-2.068,3.743-4.132,7.488-6.204,11.228c-2.431,4.389-4.713,8.87-7.342,13.136
			c-3.844,6.236-7.902,12.344-12.318,18.196c-2.887,3.827-5.92,7.541-8.838,11.344c-2.797,3.645-5.552,7.322-8.118,11.138
			c-0.501,0.746-1.001,1.896-2.204,1.49c-1.239-0.419-1.786-2.147-1.135-3.556c1.474-3.188,2.955-6.379,4.595-9.483
			c2.23-4.225,4.492-8.441,6.96-12.529c2.854-4.726,5.323-9.67,8.338-14.307c1.146-1.764,1.516-3.977,2.716-5.767
			c2.057-3.07,3.327-6.557,5.058-9.801c1.316-2.466,1.982-5.31,3.239-7.884c1.183-2.42,2.263-4.937,3.186-7.429
			c1.476-3.985,3.513-7.94,3.118-12.438c-0.069-0.785-0.119-1.956,0.766-1.94c0.745,0.015,1.323,0.996,1.384,2.044
			c0.209,3.64-0.69,7.09-1.957,10.406c-2.696,7.06-5.408,14.125-8.463,21.032c-1.849,4.178-4.049,8.219-6.255,12.247
			c-2.575,4.702-5.235,9.362-7.755,14.096c-1.583,2.975-3.472,5.788-4.7,8.949c-0.186,0.189-0.403,0.354-0.361,0.246
			c-0.014,0.048,0.291-0.046,0.555-0.185c4.9-6.048,9.607-12.252,13.988-18.674c3.302-4.842,6.062-10.052,9.152-15.044
			c4.428-7.155,7.656-14.974,12.272-22.021c0.758-1.159,1.478-2.343,2.256-3.487c0.525-0.771,1.324-1.088,2.209-0.845
			c0.989,0.272,1.275,1.119,1.149,2.026c-0.64,4.576-1.842,8.96-3.908,13.144c-1.472,2.981-2.682,6.092-4.237,9.047
			c-2.307,4.384-4.32,8.916-6.685,13.276c-2.05,3.777-3.869,7.677-5.875,11.478c-1.742,3.299-3.662,6.504-5.392,9.808
			c-1.282,2.448-2.44,4.957-4.109,7.179c0.07,0.358-0.026,0.677-0.258,0.997C133.817,28.2,134.019,28.007,134.302,27.957"/>
		<path style="clip-path:url(#SVGID_00000121972160669023080190000016119906675526785715_);fill:#494CA2;" d="M53.31,329.807
			c0,0,45.982-45.939,48.113-99.142c2.131-53.203-105.984-84.315-140.385-52.963c-34.4,31.352-44.931,138.064-3.51,158.423
			C-1.051,356.485,53.31,329.807,53.31,329.807z"/>
	</g>
	<g>
		<g>
			<g>
				<path style="fill:#FFFFFF;" d="M724.113,270.226c-5.211,0-9.435,4.202-9.435,9.386c0,5.184,4.224,9.386,9.435,9.386
					c5.211,0,9.435-4.202,9.435-9.386C733.548,274.428,729.324,270.226,724.113,270.226z M726.458,276.329c0,0-0.792,0-1.108,0
					c-0.391,0-0.472,0.159-0.472,0.561c0,0.335,0,0.972,0,0.972h1.579l-0.152,1.706h-1.427v5.097h-2.046v-5.075h-1.064v-1.728h1.064
					c0,0,0-0.248,0-1.36c0-1.277,0.687-1.944,2.209-1.944c0.249,0,1.416,0,1.416,0V276.329z"/>
				<g>
					<path style="fill:#FFFFFF;" d="M807.003,278.012c-0.891,0-1.612,0.717-1.612,1.6c0,0.887,0.721,1.603,1.612,1.603
						c0.888,0,1.609-0.717,1.609-1.603C808.612,278.729,807.891,278.012,807.003,278.012z"/>
					<path style="fill:#FFFFFF;" d="M810.766,276.782c-0.088-0.227-0.191-0.387-0.362-0.553c-0.167-0.17-0.328-0.273-0.556-0.36
						c-0.168-0.067-0.426-0.144-0.895-0.167c-0.51-0.02-0.664-0.027-1.95-0.027c-1.29,0-1.444,0.007-1.954,0.027
						c-0.469,0.023-0.724,0.1-0.895,0.167c-0.224,0.086-0.385,0.19-0.556,0.36c-0.167,0.167-0.271,0.326-0.362,0.553
						c-0.063,0.167-0.144,0.423-0.164,0.89c-0.023,0.507-0.03,0.66-0.03,1.94c0,1.283,0.007,1.437,0.03,1.944
						c0.021,0.466,0.101,0.719,0.164,0.889c0.091,0.224,0.195,0.384,0.362,0.554c0.171,0.167,0.332,0.27,0.556,0.36
						c0.171,0.063,0.425,0.143,0.895,0.164c0.51,0.023,0.664,0.029,1.954,0.029c1.287,0,1.441-0.007,1.95-0.029
						c0.469-0.021,0.727-0.101,0.895-0.164c0.228-0.09,0.389-0.193,0.556-0.36c0.171-0.17,0.274-0.33,0.362-0.554
						c0.067-0.17,0.144-0.423,0.164-0.889c0.023-0.507,0.03-0.661,0.03-1.944c0-1.28-0.007-1.433-0.03-1.94
						C810.91,277.205,810.833,276.949,810.766,276.782z M807.003,282.079c-1.37,0-2.48-1.103-2.48-2.467
						c0-1.36,1.11-2.466,2.48-2.466c1.367,0,2.479,1.107,2.479,2.466C809.482,280.976,808.37,282.079,807.003,282.079z
						 M809.579,277.625c-0.321,0-0.58-0.256-0.58-0.576c0-0.317,0.258-0.577,0.58-0.577c0.319,0,0.58,0.26,0.58,0.577
						C810.16,277.369,809.898,277.625,809.579,277.625z"/>
					<path style="fill:#FFFFFF;" d="M807.001,270.226c-5.211,0-9.436,4.202-9.436,9.386c0,5.184,4.224,9.386,9.436,9.386
						c5.211,0,9.435-4.203,9.435-9.386C816.436,274.428,812.212,270.226,807.001,270.226z M811.801,281.592
						c-0.024,0.513-0.107,0.86-0.224,1.167c-0.125,0.317-0.288,0.583-0.557,0.85c-0.268,0.267-0.54,0.434-0.858,0.557
						c-0.305,0.117-0.657,0.2-1.169,0.223c-0.516,0.023-0.68,0.027-1.99,0.027c-1.314,0-1.478-0.004-1.991-0.027
						c-0.516-0.023-0.868-0.106-1.173-0.223c-0.318-0.123-0.587-0.29-0.854-0.557c-0.272-0.267-0.435-0.533-0.56-0.85
						c-0.118-0.307-0.201-0.653-0.225-1.167c-0.023-0.51-0.027-0.673-0.027-1.98c0-1.303,0.003-1.467,0.027-1.98
						c0.024-0.509,0.107-0.86,0.225-1.163c0.124-0.317,0.288-0.587,0.56-0.853c0.268-0.267,0.536-0.43,0.854-0.553
						c0.305-0.117,0.657-0.2,1.173-0.224c0.513-0.023,0.677-0.03,1.991-0.03c1.31,0,1.474,0.007,1.99,0.03
						c0.512,0.024,0.865,0.107,1.169,0.224c0.319,0.123,0.591,0.287,0.858,0.553c0.268,0.267,0.432,0.537,0.557,0.853
						c0.117,0.303,0.2,0.654,0.224,1.163c0.023,0.514,0.027,0.677,0.027,1.98C811.828,280.919,811.825,281.082,811.801,281.592z"/>
				</g>
				<path style="fill:#FFFFFF;" d="M766.286,270.226c-5.211,0-9.436,4.202-9.436,9.386c0,5.184,4.225,9.386,9.436,9.386
					c5.211,0,9.435-4.202,9.435-9.386C775.721,274.428,771.497,270.226,766.286,270.226z M770.484,277.36
					c-0.012,1.544-0.269,4.632-3.605,6.091c-3.336,1.458-6.074-0.608-6.074-0.608c2.066,0.353,3.262-0.801,3.262-0.801
					c-1.7-0.072-2.039-1.57-2.039-1.57c0.269,0.061,0.97-0.019,0.97-0.019c-1.767-0.481-1.716-2.279-1.716-2.279
					c0.171,0.195,0.968,0.366,0.968,0.366c-1.44-1.178-0.524-2.833-0.524-2.833c1.825,2.238,4.353,2.205,4.353,2.205
					c-0.019-0.277-0.003-0.526,0.035-0.745c0.153-0.891,0.821-1.631,1.701-1.853c1.193-0.303,2.041,0.586,2.041,0.586
					c0.227,0.048,1.418-0.464,1.418-0.464c-0.053,0.265-0.742,1.15-0.742,1.15c0.135,0.012,1.233-0.281,1.233-0.281
					C771.568,276.659,770.484,277.36,770.484,277.36z"/>
			</g>
		</g>
	</g>
	<path style="fill:#FFFFFF;" d="M542.459,25.358c-0.631,5.373-3.031,10.595-7.926,13.35c-2.324,1.307-5.12,1.95-7.759,1.901
		c-0.942,0.053-1.864-0.071-2.768-0.374c-1.627-0.148-2.97-0.75-4.036-1.795c2.856-3.299,5.123-8.376,0.652-11.424
		c-3.861-2.633-7.742,0.891-8.56,4.738c-0.503,2.36-0.087,4.536,0.914,6.427c-0.138,0.112-0.275,0.23-0.412,0.317
		c-2.138,1.352-4.47,2.227-6.941,2.701c-2.585,0.494-6.139,0.532-8.498-0.885c-1.007-0.604-1.868-1.448-2.512-2.406
		c1.927-2.918,3.011-6.499,2.783-10.184c-0.103-1.654-1.808-2.784-3.331-1.911c-5.21,2.987-5.998,7.649-4.287,11.743
		c-1.102,1.113-2.496,1.971-4.204,2.447c-3.385,0.941-7.549-0.362-9.714-3.199c4.595-4.674,7.082-10.397,2.159-13.288
		c-3.934-2.31-6.915,2.35-7.638,5.697c-0.469,2.169-0.292,4.403,0.374,6.474c-3.423,3.799-6.938,7.319-12.606,2.087
		c-4.653-4.295-3.732-11.415,0.063-15.945c0.905-1.08-0.46-2.444-1.542-1.541c-7.853,6.55-5.973,21.564,5.033,23.674
		c2.842,0.544,7.212-1.426,11.047-4.394c0.748,0.979,1.64,1.852,2.663,2.571c5.922,4.157,12.203,2.831,16.535-1.11
		c2.193,2.558,5.383,4.475,8.863,4.9c5.283,0.646,10.817-1.009,15.229-4.062c1.29,1.059,2.782,1.915,4.349,2.509
		c13.122,4.972,27.086-5.213,26.799-19.018C547.124,22.24,542.806,22.406,542.459,25.358"/>
	
		<text transform="matrix(1 0 0 1 614.7855 283.9561)" style="fill:#FFFFFF; font-family:'Montserrat-Regular'; font-size:8px; letter-spacing:1;">FOLLOW US ON</text>
	<g>
		<path style="fill:#FFFFFF;" d="M48.657,111.982c1.755-0.834,2.337-2.724,1.368-4.378c-1.584-2.704-6.723-6.085-9.089-2.688
			c-0.595,0.401-1.081,0.931-1.354,1.606c-0.757,1.876,0.989,3.699,2.488,4.525C43.893,112.051,46.661,112.93,48.657,111.982z
			 M41.846,106.646c0.07,0.003,0.142-0.001,0.219-0.018c1.787-0.399,4.461-0.794,5.565,1.035c0.471,0.779,0.572,1.301,0.229,2.128
			c-0.424,1.022-0.825,0.724-1.829,0.574c-1.616-0.24-3.545-0.796-4.125-2.541C41.758,107.38,41.754,106.988,41.846,106.646z"/>
		<path style="fill:#FFFFFF;" d="M28.438,104.19c-2.417-1.648-6.025-1.345-7.109,1.667c-0.2,0.554,0.235,0.918,0.698,0.939
			c0.454,2.626,3.274,4.679,5.907,3.664C30.757,109.37,30.768,105.778,28.438,104.19z M23.684,106.916
			c-0.794-2.791,2.598-2.228,3.839-1.185c0.118,0.099,0.243,0.152,0.368,0.177c0.877,0.897,1.131,2.089-0.186,2.926
			C26.121,109.841,24.143,108.528,23.684,106.916z"/>
		<path style="fill:#FFFFFF;" d="M34.665,120.876c-0.509-0.693-1.3-1.423-2.188-1.924c-0.166-0.212-0.428-0.36-0.723-0.343
			c-0.648-0.252-1.319-0.36-1.954-0.227c-0.681,0.142-1.23,0.549-1.622,1.086c-0.665,0.296-1.138,0.809-1.117,1.835
			c0.036,1.823,2.023,4.109,3.488,5.035c0.556,0.352,1.157,0.541,1.745,0.563c1.35,0.361,2.635,0.017,3.312-1.592
			c0.53-1.258,0.272-2.494-0.424-3.516C35.042,121.473,34.876,121.163,34.665,120.876z M29.132,121.208
			c1.119-0.827,2.592-0.324,3.655,0.454c0.411,0.301,0.9,0.895,1.209,1.521c0,0.004,0.002,0.007,0.002,0.011
			c0.099,1.172-0.643,2.056-1.602,2.09c-1.182-0.33-2.423-1.577-2.956-2.483C29.132,122.277,29.044,121.703,29.132,121.208z"/>
		<path style="fill:#FFFFFF;" d="M45.687,125.014c-0.028,0.517,0.371,0.762,0.774,0.745c0.242,0.589,0.656,1.133,1.171,1.538
			c1.229,0.968,3.137,1.829,4.795,1.622c1.643,0.015,3.171-1.113,3.074-2.877C55.253,121.564,45.986,119.57,45.687,125.014z
			 M50.399,126.327c-0.409-0.376-2.11-1.813-2.16-2.37c0.045-0.043,0.088-0.085,0.141-0.128c0.106-0.086,0.277-0.176,0.471-0.252
			c0.418-0.002,0.98,0.119,1.463,0.251c0.16,0.123,0.346,0.171,0.529,0.159c0.174,0.056,0.315,0.106,0.395,0.138
			c1.037,0.405,3.371,1.892,1.655,3.049c-0.125,0.084-0.261,0.143-0.403,0.186C51.779,127.349,50.943,126.826,50.399,126.327z"/>
		<path style="fill:#FFFFFF;" d="M52.231,137.945c-0.247-0.193-0.543-0.414-0.867-0.64c-0.044-0.355-0.294-0.694-0.75-0.72
			c-0.144-0.008-0.297-0.021-0.456-0.035c-1.46-0.807-3.167-1.33-4.367-0.322c-0.228,0.191-0.394,0.402-0.513,0.625
			c-2.159,1.298-0.934,4.17,0.509,5.732c0.235,0.255,0.517,0.287,0.761,0.194c0.748,0.767,1.599,1.411,2.351,1.846
			c1.693,0.978,4.39,1.68,5.476-0.505C55.493,141.871,53.997,139.323,52.231,137.945z M48.383,140.956
			c-0.449-0.488-0.845-1.027-1.17-1.605c-0.181-0.31-0.33-0.635-0.462-0.968c0.233-0.395,0.638-0.528,1.225-0.382
			c0.102-0.018,0.208-0.029,0.318-0.035c0.273,0.068,0.538,0.159,0.778,0.253c1.319,0.515,2.694,1.722,2.987,3.179
			c0.218,1.088-0.742,1.678-1.714,1.156C49.608,142.158,48.948,141.569,48.383,140.956z"/>
		<path style="fill:#FFFFFF;" d="M70.06,138.676c-0.317-0.852-0.937-1.472-1.689-1.828c-0.753-0.624-1.617-1.118-2.541-1.434
			c-0.402-0.137-0.869-0.26-1.354-0.334c-0.247-0.374-0.801-0.578-1.229-0.181c-0.047,0.043-0.088,0.088-0.132,0.132
			c-0.699,0.072-1.348,0.318-1.807,0.854c-1.192,1.392-0.036,3.09,1.113,4.039c0.075,0.062,0.157,0.118,0.235,0.178
			c0.785,1.328,2.097,2.478,3.396,3.133c1.363,0.688,3.27,1.12,4.321-0.321c0.867-1.188,0.45-2.792-0.237-3.997
			C70.113,138.837,70.09,138.757,70.06,138.676z M63.987,139.139c-0.067-0.042-0.129-0.091-0.194-0.136
			c-0.369-0.789-0.425-1.635,0.086-2.425c0.171,0.005,0.379,0.048,0.666,0.106c0.345,0.069,0.68,0.178,1.009,0.304
			c-0.204,0.505,0.215,1.261,0.931,1.105c0.358-0.078,0.708-0.05,1.027,0.067c0.406,0.357,0.785,0.771,1.088,1.23
			c-0.054,0.16-0.197,0.314-0.437,0.462c-0.239,0.623-0.665,0.779-1.279,0.467C65.85,140.131,64.86,139.725,63.987,139.139z
			 M67.983,142.297c-0.319,0.073-0.76-0.159-1.138-0.386c0.363,0.052,0.727,0.086,1.086,0.079c0.197-0.004,0.381-0.029,0.556-0.068
			C68.319,142.048,68.151,142.172,67.983,142.297z"/>
		<path style="fill:#FFFFFF;" d="M83.226,126.408c-1.256-0.968-3.713-2.364-5.305-1.454c-1.591,0.909-1.074,2.926-0.191,4.129
			c0.575,0.784,1.298,1.466,2.106,2.034c0.76,0.733,1.659,1.325,2.606,1.721c1.195,0.5,2.708,0.616,3.392-0.366
			c0.495-0.257,0.844-0.701,0.858-1.424C86.723,129.396,84.785,127.251,83.226,126.408z M84.082,131.195
			c-0.871,0.117-2.051-0.497-2.912-1.056c-0.51-0.555-0.936-1.21-1.452-1.708c0.528-1.285,1.944-1.049,2.951-0.486
			c0.691,0.682,1.259,1.442,1.553,2.014c0.218,0.423,0.259,0.865,0.12,1.177C84.266,131.161,84.181,131.182,84.082,131.195z
			 M79.335,126.286c0.154-0.02,0.312-0.015,0.472,0.001c-0.095,0.047-0.187,0.098-0.276,0.154c-0.179-0.063-0.344-0.092-0.495-0.091
			C79.124,126.324,79.221,126.301,79.335,126.286z"/>
		<path style="fill:#FFFFFF;" d="M64.365,121.538c0.521,0.211,1.144,0.349,1.76,0.355c4.54,1.104,3.254-5.966,0.185-7.159
			c-0.374-0.145-0.659,0.009-0.811,0.268c-2.179-1.653-5.496-3.408-6.018-0.589c-0.159,0.859,0.167,1.747,0.648,2.555
			c0.019,0.299,0.091,0.61,0.23,0.933C61.032,119.459,62.81,120.908,64.365,121.538z M63.077,115.218
			c1.031,0.529,6.027,4.437,3.176,5.1c-0.059,0.014-0.119,0.021-0.18,0.028c-0.88-0.373-2.062-1.312-2.383-1.585
			c-0.686-0.584-1.293-1.262-1.799-2.009c-0.01-0.834,0.377-1.159,0.98-1.645C62.95,115.149,63.02,115.188,63.077,115.218z"/>
		<path style="fill:#FFFFFF;" d="M65.092,99.217c-1.533-1.58-4.245-2.019-6.231-1.14c-1.263,0.559-2.613,1.869-2.814,3.324
			c-0.288,0.539-0.366,1.181-0.089,1.94c0.73,2.001,3.003,3.912,5.093,4.242C65.2,108.237,67.908,102.12,65.092,99.217z
			 M62.472,105.257c-1.223-0.005-2.923-1.298-3.857-2.1c0.541-1.323,1.9-2.227,3.376-1.767
			C63.631,101.901,65.142,105.267,62.472,105.257z M64.373,101.146c-0.638-0.694-1.491-1.199-2.415-1.376
			c-0.648-0.124-1.277-0.079-1.863,0.091c-0.071-0.187-0.203-0.348-0.384-0.438c0.082-0.029,0.163-0.059,0.247-0.083
			C61.573,98.877,63.802,99.471,64.373,101.146z"/>
		<path style="fill:#FFFFFF;" d="M39.768,93.206c-0.311-1.867-1.965-3.309-3.755-3.732c-1.809-0.427-3.732,0.274-4.639,1.945
			c-0.41,0.754-0.488,1.52-0.338,2.244c-0.404,0.809-0.478,1.706,0.181,2.575c0.824,1.086,2.573,1.516,4.103,1.472
			c1.055,0.299,2.153,0.24,3.085-0.539c0.627-0.523,0.962-1.178,1.052-1.863C39.764,94.673,39.893,93.955,39.768,93.206z
			 M36.661,91.403c0.513,0.301,0.889,0.691,1.137,1.117c-0.383,0.234-0.618,0.814-0.249,1.276c0.222,0.278,0.346,0.615,0.37,0.952
			c-0.312,0.626-0.94,1.132-1.892,1.326c-0.141,0.029-0.303,0.047-0.472,0.061c-0.088-0.03-0.175-0.063-0.259-0.096
			c-0.917-0.368-1.932-1.052-2.452-1.913c-0.063-0.104-0.109-0.21-0.151-0.317c0.054-0.058,0.114-0.115,0.189-0.168
			c0.277-0.303,0.616-0.553,0.935-0.807c0.621-0.494,0.054-1.274-0.597-1.279c0.094-0.088,0.194-0.172,0.305-0.246
			C34.466,90.676,35.731,90.858,36.661,91.403z"/>
		<path style="fill:#FFFFFF;" d="M48.851,85.389c0.085,1.822,1.071,3.72,2.72,4.488c1.416,0.66,2.86,0.403,4.022-0.357
			c1.032-0.184,1.914-0.79,2.399-1.974c0.385-0.939,0.334-1.965-0.021-2.883c-0.082-0.61-0.303-1.211-0.691-1.766
			c-0.975-1.395-3.181-1.918-5.107-1.599c-0.073-0.012-0.151-0.018-0.24-0.005c-0.749,0.105-1.348,0.384-1.815,0.776
			c-0.982,0.656-1.575,1.682-1.324,3.077C48.808,85.227,48.829,85.308,48.851,85.389z M51.573,86.525
			c-0.517-0.448-0.942-0.835-1.065-1.356c0.338,0.184,0.797,0.158,1.054-0.265c0.76-1.25,2.364-1.92,3.712-1.155
			c0.439,0.249,0.82,0.676,1.077,1.168c0.065,1.045-0.399,2.301-1.158,3.069C53.863,88.269,52.526,87.351,51.573,86.525z"/>
		<path style="fill:#FFFFFF;" d="M74.504,92.973c0.817-0.751,1.251-1.873,0.895-3.259c-0.583-2.272-3.193-3.306-5.344-2.83
			c-1.179-0.011-2.276,0.436-2.637,1.772c-0.039,0.143-0.064,0.288-0.082,0.434c-1.226,3.072,1.953,6.895,5.224,5.637
			C73.358,94.419,74.022,93.762,74.504,92.973z M69.81,88.496c0.251-0.056,0.559-0.054,0.932,0.027
			c0.143,0.031,0.273,0.022,0.389-0.011c-0.16,0.482,0.071,1.072,0.699,0.986c0.401-0.055,0.972-0.172,1.364-0.026
			c0.767,0.285,0.564,1.117,0.345,1.763c-0.089,0.265-0.197,0.533-0.328,0.786c-0.25,0.212-0.547,0.372-0.869,0.451
			c-1.127,0.278-2.244-0.302-2.878-1.225c-0.492-0.717-0.667-1.586-0.402-2.163C69.245,88.849,69.494,88.649,69.81,88.496z"/>
		<path style="fill:#FFFFFF;" d="M90.404,100.899c1.445,0.008,3.187-0.31,3.993-1.367c0.895-1.174-0.158-2.647-1.14-3.369
			c-0.183-0.134-0.4-0.265-0.644-0.388c-0.379-0.36-0.848-0.65-1.365-0.847c-1.479-0.562-3.112-0.508-4.469,0.197
			c-1.27,0.415-2.148,1.753-1.709,3.104c0.529,1.628,2.691,2.394,4.217,2.599c0.119,0.016,0.246,0.029,0.377,0.04
			C89.912,100.899,90.159,100.909,90.404,100.899z M88.566,98.782c-0.57-0.428-1.051-1.495-0.496-2.171
			c0.26-0.316,1.193-0.215,1.535-0.173c0.46,0.055,1.444,0.386,2.231,0.811c0.153,0.271,0.21,0.593,0.106,0.977
			c-0.201,0.747-0.792,1.065-1.453,1.111c-0.169,0.005-0.337-0.005-0.506-0.014C89.455,99.261,88.932,99.057,88.566,98.782z"/>
		<path style="fill:#FFFFFF;" d="M81.574,108.222c0.816-0.99,1.329-2.214,0.86-3.322c-0.467-1.104-1.689-1.502-2.996-1.555
			c-0.583-0.119-1.22-0.154-1.868-0.116c-0.917-0.277-1.7-0.07-2.321,0.435c-1.11,0.357-2.071,0.906-2.606,1.576
			c-1.242,1.554-0.736,3.477,0.919,4.457c0.108,0.064,0.225,0.113,0.337,0.169c0.114,0.307,0.258,0.591,0.436,0.839
			C76.626,113.908,80.248,111.058,81.574,108.222z M75.168,108.352c-0.079-0.769,0.063-2.304,0.659-3.122
			c0.167,0.139,0.396,0.201,0.672,0.108c0.331-0.111,0.772-0.238,1.245-0.331c0.265,0.102,0.511,0.041,0.699-0.105
			c0.063-0.006,0.127-0.01,0.19-0.014c0.788,0.104,1.674,0.445,1.908,1.298c0.076,0.28,0.006,0.646-0.143,1.037
			c-0.496,0.66-1.337,1.215-1.934,1.443c-1.004,0.383-2.202,0.401-3.235,0.051C75.202,108.6,75.181,108.479,75.168,108.352z
			 M73.663,106.874c-0.021,0.142-0.039,0.284-0.052,0.427C73.596,107.158,73.618,107.016,73.663,106.874z"/>
		<path style="fill:#FFFFFF;" d="M99.431,118.216c-0.979-4.157-7.326-5.603-9.63-1.768c-0.338,0.563,0.118,1.085,0.621,1.147
			c0.11,0.682,0.418,1.354,0.852,1.902c0.462,0.583,1.065,1.145,1.746,1.605c0.902,1.582,2.523,2.732,4.368,2.446
			c1.733-0.268,2.749-1.787,2.6-3.49C99.929,119.408,99.729,118.79,99.431,118.216z M94.185,117.039
			c0.325-0.412,0.17-0.911-0.138-1.179c1.42,0.211,2.918,1.436,3.739,2.686c0.699,2.424-2.162,2.255-3.594,1.408
			C93.728,118.979,93.567,117.823,94.185,117.039z M92.726,116.004c0.132-0.056,0.267-0.097,0.404-0.126
			c-0.02,0.021-0.041,0.038-0.06,0.063c-0.517,0.656-0.764,1.442-0.797,2.256C91.702,117.391,91.528,116.515,92.726,116.004z"/>
	</g>
	<g>
		<g>
			<path style="fill:#252658;" d="M735.44,107.276c-3.239,0.922-5.092,2.24-5.862,4.34c-0.556,1.515-0.118,3.688,0.615,7.234
				c0.767,3.708,2.55,5.961,4.881,6.657c2.989,0.893,6.525-0.49,7.509-3.299c0.802-2.291,0.78-6.058-0.356-8.995
				C740.884,109.74,737.762,106.615,735.44,107.276z"/>
		</g>
		<g>
			<path style="fill:#252658;" d="M712.125,108.446c-2.553,0.048-4.704,0.496-6.21,1.996c-1.744,1.738-2.993,4.166-2.188,6.406
				c0.761,2.117,4.729,1.645,8.308,0.97c3.477-0.656,7.194-1.552,7.563-3.646c0.411-2.328-0.35-4.246-1.874-5.302
				C716.465,107.998,714.5,108.402,712.125,108.446z"/>
		</g>
		<g>
			<path style="fill:#252658;" d="M717.61,130.311c-2.299,0.1-4.073,1.516-5.539,3.057c-1.4,1.471-2.346,3.006-1.491,5.693
				c0.871,2.736,3.81,3.761,6.982,3.712c3.203-0.05,6.184-1.213,7.063-3.726c0.905-2.586,0.736-4.845-0.688-6.446
				C722.607,131.107,720.386,130.19,717.61,130.311z"/>
		</g>
		<g>
			<path style="fill:#252658;" d="M699.96,141.138c-2.234-0.894-4.464,0.551-5.908,2.341c-1.411,1.749-1.906,3.894-0.67,5.994
				c1.176,1.999,2.878,2.708,4.744,2.795c2.101,0.097,4.268-0.458,4.931-2.576C704.307,145.691,703.71,142.638,699.96,141.138z"/>
		</g>
		<g>
			<path style="fill:#252658;" d="M686.34,120.87c-3.655-1.624-7.039,1.313-6.539,4.81c0.247,1.73,1.259,3.539,2.052,5.005
				c0.809,1.497,1.915,3.097,4.44,2.213c2.507-0.878,3.648-3.661,3.579-5.949C689.803,124.674,688.583,121.867,686.34,120.87z"/>
		</g>
		<g>
			<path style="fill:#252658;" d="M672.36,142.852c-2.014,0.021-4.339,0.438-5.793,1.517c-1.622,1.205-1.651,3.257-1.124,5.366
				c0.521,2.086,1.965,4.19,4.373,4.822c2.21,0.581,4.55-0.189,6.345-2.028c1.9-1.948,2.357-4.131,1.594-6.084
				C677.014,144.544,675.319,142.822,672.36,142.852z"/>
		</g>
		<g>
			<path style="fill:#252658;" d="M678.288,165.78c-2.134,0.956-3.411,2.294-4.445,3.326c-1.555,1.552-2.412,3.099-1.511,4.997
				c0.765,1.611,4.861,2.457,8.427,1.837c3.426-0.596,6.921-2.641,7.411-4.477c0.537-2.014-1.162-4.381-3.372-5.498
				C682.893,165.002,680.295,164.88,678.288,165.78z"/>
		</g>
		<g>
			<path style="fill:#252658;" d="M707.706,167.709c-2.101-1.136-3.95,0.273-4.62,2.253c-0.594,1.757-0.014,4.012,0.638,5.466
				c0.79,1.761,5.118,1.044,6.907-1.159C711.982,172.604,711.687,169.861,707.706,167.709z"/>
		</g>
		<g>
			<path style="fill:#252658;" d="M684.792,181.3c-1.823,1.66-4.584,6.431-2.355,7.681c1.121,0.629,3.625-0.388,5.596-1.4
				c1.95-1.002,3.661-2.369,2.915-4.233C689.449,179.597,686.604,179.65,684.792,181.3z"/>
		</g>
		<g>
			<path style="fill:#252658;" d="M730.306,151.814c-3.655-1.625-6.398,0.369-5.898,3.865c0.248,1.73,0.781,3.703,1.574,5.17
				c0.809,1.497,1.875,2.162,4.401,1.278c2.507-0.878,4.306-2.868,4.237-5.157C734.55,154.696,732.55,152.811,730.306,151.814z"/>
		</g>
		<g>
			<path style="fill:#252658;" d="M708.135,187.565c-1.823,1.66-4.27,6.485-2.041,7.735c1.121,0.629,3.777,0.286,5.749-0.727
				c1.95-1.002,3.175-2.771,2.429-4.635C712.773,186.189,709.947,185.916,708.135,187.565z"/>
		</g>
	</g>
	<g>
		<g>
			<text transform="matrix(1 0 0 1 271.1881 151.5361)"><tspan x="0" y="0" style="font-family:'Antonio-Bold'; font-size:39.8465px; letter-spacing:7;">COMPANY</tspan><tspan x="195.929" y="0" style="fill:#FFFFFF; font-family:'Antonio-Bold'; font-size:39.8465px; letter-spacing:7;">NAME</tspan></text>
			<rect x="251.803" y="116.311" style="fill:#494CA2;" width="6" height="55.082"/>
			<text transform="matrix(1 0 0 1 271.608 171.71)" style="font-family:'Antonio-Light'; font-size:12px; letter-spacing:2;">AWESOME TAGLINE HERE</text>
			<rect x="271.947" y="190.718" style="fill:none;" width="327.251" height="61.197"/>
			<text transform="matrix(1 0 0 1 271.9466 196.6543)"><tspan x="0" y="0" style="fill:#494CA2; font-family:'Montserrat-Regular'; font-size:8px;">Lorem ipsum dolor sit amet, consectetuer adipiscing elit, sed diam nonummy </tspan><tspan x="0" y="11" style="fill:#494CA2; font-family:'Montserrat-Regular'; font-size:8px;">nibh euismod tincidunt ut laoreet dolore magna aliquam erat volutpat. Ut wisi </tspan><tspan x="0" y="22" style="fill:#494CA2; font-family:'Montserrat-Regular'; font-size:8px;">enim ad minim veniam, quis nostrud </tspan></text>
		</g>
		<line style="fill:none;stroke:#494CA2;stroke-miterlimit:10;" x1="413.908" y1="163.993" x2="573.351" y2="163.993"/>
	</g>
</g>
</svg>
