<?xml version="1.0" encoding="utf-8"?>
<!-- Generator: Adobe Illustrator 27.5.0, SVG Export Plug-In . SVG Version: 6.00 Build 0)  -->
<svg version="1.1" xmlns="http://www.w3.org/2000/svg" xmlns:xlink="http://www.w3.org/1999/xlink" x="0px" y="0px"
	 viewBox="0 0 1500 500" style="enable-background:new 0 0 1500 500;" xml:space="preserve">
<g id="BACKGROUND">
	<rect style="fill:#E5F9F8;" width="1500" height="500"/>
</g>
<g id="PHOTOS">
</g>
<g id="OBJECTS">
	<g>
		<defs>
			<rect id="SVGID_1_" width="1500" height="500"/>
		</defs>
		<clipPath id="SVGID_00000165926841301426947990000007233008238746395009_">
			<use xlink:href="#SVGID_1_"  style="overflow:visible;"/>
		</clipPath>
		<path style="clip-path:url(#SVGID_00000165926841301426947990000007233008238746395009_);fill:#D9F4F2;" d="M778.126,0
			c-64.065,75.455-253.149,261.764-585.062,290.386c-51.791,4.467-116.895,5.94-193.064-1.727V0H778.126z"/>
		<g style="clip-path:url(#SVGID_00000165926841301426947990000007233008238746395009_);">
			<ellipse style="fill:#01A3A4;" cx="298.934" cy="425.147" rx="110.713" ry="12.775"/>
			<g>
				<path style="fill:#FFFFFF;" d="M368.51,98.074c-0.454,0.021-3.246,0.201-5.14,2.558c-1.32,1.643-1.469,3.429-1.492,4.074
					c-0.065-0.647-0.344-2.58-1.919-4.287c-1.826-1.98-4.129-2.285-4.714-2.345c0.664-0.105,3.11-0.572,4.927-2.771
					c1.248-1.511,1.593-3.106,1.705-3.861c0.103,0.767,0.412,2.228,1.492,3.648C365.2,97.494,367.871,97.976,368.51,98.074z"/>
				<path style="fill:#FFFFFF;" d="M373.815,91.466c-0.278,0.013-1.988,0.123-3.148,1.567c-0.808,1.006-0.9,2.1-0.914,2.495
					c-0.04-0.396-0.211-1.58-1.175-2.626c-1.118-1.213-2.529-1.399-2.887-1.436c0.407-0.064,1.905-0.35,3.018-1.697
					c0.764-0.925,0.976-1.902,1.044-2.365c0.063,0.47,0.252,1.365,0.914,2.234C371.788,91.111,373.424,91.406,373.815,91.466z"/>
				<path style="fill:#FFFFFF;" d="M360.534,91.892c-0.21,0.01-1.503,0.093-2.38,1.184c-0.611,0.76-0.68,1.588-0.691,1.886
					c-0.03-0.299-0.159-1.194-0.888-1.985c-0.845-0.917-1.911-1.058-2.182-1.086c0.307-0.049,1.44-0.265,2.281-1.283
					c0.578-0.699,0.737-1.438,0.789-1.787c0.048,0.355,0.191,1.032,0.691,1.689C359.002,91.624,360.238,91.847,360.534,91.892z"/>
			</g>
			<g>
				<g>
					<ellipse style="fill:#FFFFFF;" cx="322.637" cy="263.148" rx="116.903" ry="117.427"/>
					<g>
						<g>
							<path style="fill:#00D2D3;" d="M201.846,122.785c0,0.273-0.005,0.542-0.023,0.811h-17.129
								c-0.018-0.269-0.023-0.537-0.023-0.811c0-6.581,3.842-11.915,8.588-11.915c1.367,0,2.656,0.44,3.8,1.233
								C199.895,114.04,201.846,118.095,201.846,122.785z"/>
							<path style="fill:#00D2D3;" d="M257.89,122.79c0,0.273-0.005,0.542-0.023,0.806h-17.133
								c-0.019-0.264-0.023-0.533-0.023-0.806c0-4.101,1.497-7.721,3.777-9.867c1.372-1.288,3.031-2.044,4.815-2.044
								C254.043,110.879,257.89,116.214,257.89,122.79z"/>
							<path style="fill:#00D2D3;" d="M214.164,114.587c0,3.24-0.324,6.298-0.913,9.009h-15.349
								c-0.589-2.711-0.913-5.77-0.913-9.009c0-0.839,0.023-1.668,0.07-2.484c0.519-9.932,4.134-17.625,8.518-17.625
								c2.387,0,4.546,2.276,6.099,5.955C213.214,104.067,214.164,109.067,214.164,114.587z"/>
							<path style="fill:#00D2D3;" d="M244.529,114.795c0,3.156-0.311,6.145-0.867,8.801H228.22
								c-0.556-2.656-0.867-5.645-0.867-8.801c0-5.788,1.043-11.007,2.721-14.677c1.534-3.369,3.596-5.432,5.867-5.432
								c4.472,0,8.147,8.008,8.546,18.236C244.515,113.539,244.529,114.165,244.529,114.795z"/>
							<path style="fill:#00D2D3;" d="M230.94,109.67c0,5.214-0.728,10.029-1.956,13.926H212.82
								c-1.228-3.897-1.951-8.713-1.951-13.926c0-3.277,0.287-6.4,0.806-9.236c1.529-8.384,5.084-14.26,9.227-14.26
								c4.092,0,7.61,5.728,9.172,13.945C230.63,103.038,230.94,106.268,230.94,109.67z"/>
						</g>
						<path style="fill:#00D2D3;" d="M265.795,123.596h-12.482c-1.149,0-2.08-0.931-2.08-2.08l0,0c0-1.149,0.931-2.08,2.08-2.08
							h12.482c1.149,0,2.08,0.931,2.08,2.08l0,0C267.875,122.665,266.944,123.596,265.795,123.596z"/>
						<path style="fill:#00D2D3;" d="M277.445,123.596h-4.993c-1.149,0-2.08-0.931-2.08-2.08l0,0c0-1.149,0.931-2.08,2.08-2.08
							h4.993c1.149,0,2.08,0.931,2.08,2.08l0,0C279.525,122.665,278.594,123.596,277.445,123.596z"/>
						<circle style="opacity:0.5;fill:#FFFFFF;" cx="207.315" cy="93.808" r="13.991"/>
						<circle style="opacity:0.5;fill:#FFFFFF;" cx="254.155" cy="113.882" r="9.733"/>
					</g>
					<g>
						<g>
							<path style="fill:#00D2D3;" d="M487.076,279.321c0,0.273-0.005,0.542-0.023,0.811h-17.129
								c-0.018-0.269-0.023-0.538-0.023-0.811c0-6.581,3.842-11.915,8.588-11.915c1.367,0,2.656,0.44,3.8,1.233
								C485.125,270.576,487.076,274.631,487.076,279.321z"/>
							<path style="fill:#00D2D3;" d="M543.12,279.326c0,0.273-0.005,0.542-0.023,0.806h-17.133
								c-0.019-0.264-0.023-0.533-0.023-0.806c0-4.102,1.497-7.721,3.777-9.867c1.372-1.288,3.031-2.044,4.815-2.044
								C539.273,267.415,543.12,272.75,543.12,279.326z"/>
							<path style="fill:#00D2D3;" d="M499.394,271.123c0,3.239-0.324,6.298-0.913,9.009h-15.349
								c-0.589-2.711-0.913-5.77-0.913-9.009c0-0.839,0.023-1.668,0.069-2.484c0.519-9.932,4.134-17.625,8.518-17.625
								c2.387,0,4.546,2.275,6.099,5.955C498.444,260.603,499.394,265.603,499.394,271.123z"/>
							<path style="fill:#00D2D3;" d="M529.759,271.331c0,3.156-0.311,6.145-0.867,8.801H513.45
								c-0.556-2.655-0.867-5.645-0.867-8.801c0-5.788,1.043-11.007,2.72-14.677c1.534-3.369,3.596-5.432,5.867-5.432
								c4.472,0,8.147,8.008,8.546,18.237C529.745,270.076,529.759,270.701,529.759,271.331z"/>
							<path style="fill:#00D2D3;" d="M516.171,266.206c0,5.214-0.728,10.029-1.956,13.927H498.05
								c-1.228-3.897-1.951-8.713-1.951-13.927c0-3.276,0.287-6.4,0.806-9.236c1.529-8.384,5.084-14.26,9.227-14.26
								c4.092,0,7.61,5.728,9.171,13.945C515.86,259.574,516.171,262.804,516.171,266.206z"/>
						</g>
						<path style="fill:#00D2D3;" d="M551.025,280.132h-12.482c-1.149,0-2.08-0.931-2.08-2.08l0,0c0-1.149,0.931-2.08,2.08-2.08
							h12.482c1.149,0,2.08,0.931,2.08,2.08l0,0C553.105,279.201,552.174,280.132,551.025,280.132z"/>
						<path style="fill:#00D2D3;" d="M562.675,280.132h-4.993c-1.149,0-2.08-0.931-2.08-2.08l0,0c0-1.149,0.931-2.08,2.08-2.08
							h4.993c1.149,0,2.08,0.931,2.08,2.08l0,0C564.755,279.201,563.824,280.132,562.675,280.132z"/>
					</g>
					<g>
						<g>
							<path style="fill:#00D2D3;" d="M50.624,251.014c0,0.273-0.005,0.542-0.023,0.811H33.472
								c-0.019-0.269-0.023-0.538-0.023-0.811c0-6.581,3.842-11.915,8.588-11.915c1.367,0,2.656,0.44,3.8,1.233
								C48.673,242.269,50.624,246.324,50.624,251.014z"/>
							<path style="fill:#00D2D3;" d="M106.668,251.019c0,0.273-0.005,0.542-0.023,0.806H89.511
								c-0.019-0.264-0.023-0.533-0.023-0.806c0-4.101,1.497-7.721,3.777-9.867c1.372-1.288,3.031-2.044,4.815-2.044
								C102.821,239.109,106.668,244.443,106.668,251.019z"/>
							<path style="fill:#00D2D3;" d="M62.942,242.816c0,3.24-0.324,6.298-0.913,9.009H46.68c-0.589-2.711-0.913-5.77-0.913-9.009
								c0-0.839,0.023-1.668,0.069-2.484c0.519-9.932,4.134-17.625,8.518-17.625c2.387,0,4.546,2.275,6.099,5.955
								C61.992,232.296,62.942,237.297,62.942,242.816z"/>
							<path style="fill:#00D2D3;" d="M93.307,243.025c0,3.156-0.311,6.145-0.867,8.801H76.998
								c-0.556-2.656-0.867-5.645-0.867-8.801c0-5.788,1.043-11.007,2.72-14.677c1.534-3.369,3.596-5.432,5.867-5.432
								c4.472,0,8.147,8.008,8.546,18.236C93.293,241.769,93.307,242.395,93.307,243.025z"/>
							<path style="fill:#00D2D3;" d="M79.718,237.899c0,5.214-0.728,10.029-1.956,13.926H61.598
								c-1.228-3.898-1.951-8.713-1.951-13.926c0-3.277,0.287-6.4,0.806-9.236c1.529-8.384,5.084-14.26,9.227-14.26
								c4.092,0,7.61,5.728,9.172,13.945C79.408,231.267,79.718,234.497,79.718,237.899z"/>
						</g>
						<path style="fill:#00D2D3;" d="M114.573,251.826h-12.482c-1.149,0-2.08-0.931-2.08-2.08l0,0c0-1.149,0.931-2.08,2.08-2.08
							h12.482c1.149,0,2.08,0.931,2.08,2.08l0,0C116.653,250.894,115.722,251.826,114.573,251.826z"/>
						<path style="fill:#00D2D3;" d="M126.223,251.826h-4.993c-1.149,0-2.08-0.931-2.08-2.08l0,0c0-1.149,0.931-2.08,2.08-2.08
							h4.993c1.149,0,2.08,0.931,2.08,2.08l0,0C128.303,250.894,127.372,251.826,126.223,251.826z"/>
					</g>
				</g>
				<g>
					<g>
						<g>
							<path style="fill:#FECA57;" d="M197.63,290.224c-3.906-4.127-7.812-8.255-11.717-12.382
								c6.64-9.522,13.28-19.044,19.921-28.566c5.168,2.317,10.336,4.634,15.504,6.952L197.63,290.224z"/>
							<path style="fill:#FECA57;" d="M170.245,271.126c5.223,2.238,10.446,4.477,15.669,6.716
								c6.64-9.522,13.28-19.044,19.921-28.566c-3.961-4.049-7.921-8.097-11.882-12.146L170.245,271.126z"/>
							<path style="fill:#FECA57;" d="M197.63,290.224c5.223,2.239,10.446,4.477,15.669,6.716
								c6.64-9.522,13.281-19.044,19.921-28.566c-3.961-4.048-7.921-8.097-11.882-12.146L197.63,290.224z"/>
						</g>
						<g>
							<path style="fill:#2E86DE;" d="M209.954,271.543c-1.454,0.307-2.781,1.083-4.148,1.691c-1.521,0.671-3.291,1.139-4.822,0.491
								c-0.889-0.375-1.702-1.119-2.662-1.015c-0.489,0.054-0.924,0.324-1.321,0.615c-1.333,0.977-2.448,2.241-3.256,3.682
								c-0.521,0.932-0.919,1.948-1.594,2.778c-0.41,0.501-0.897,0.91-1.442,1.246c-1.211-1.283-2.425-2.564-3.636-3.843
								l14.22-20.392c0.574,0.557,1.343,0.96,1.969,1.484c0.774,0.65,1.405,1.548,2.381,1.824c1.37,0.39,2.736-0.628,4.159-0.725
								c1.008-0.069,1.993,0.327,3.002,0.335c0.878,0.003,1.726-0.284,2.545-0.589c1.558-0.572,3.095-1.213,4.6-1.911
								L209.954,271.543z"/>
							<path style="fill:#54A0FF;" d="M205.619,250.589l-18.548,26.598c-0.016-0.008-0.036-0.014-0.051-0.022
								c-4.846-2.078-9.69-4.154-14.536-6.231l22.072-31.652c1.641,1.678,3.284,3.357,4.925,5.034
								C201.529,246.407,203.572,248.498,205.619,250.589z"/>
							<path style="fill:#54A0FF;" d="M217.809,287.453c-0.229-0.561-0.379-1.137-0.357-1.749c0.025-0.688,0.275-1.354,0.282-2.042
								c0.028-2.009-1.874-3.415-3.064-5.034c-1.019-1.392-1.567-3.121-1.529-4.844c0.007-0.405,0.045-0.827-0.09-1.21
								c-0.341-0.966-1.589-1.25-2.603-1.118c-0.165,0.022-0.331,0.052-0.492,0.088l-0.002-0.002l9.994-14.33l0.106-0.15
								c3.687,3.768,7.376,7.538,11.061,11.308C226.679,274.731,222.244,281.092,217.809,287.453z"/>
							<g>
								<path style="fill:#FF9FF3;" d="M187.02,277.165c-4.846-2.078-9.69-4.154-14.536-6.231l7.924-11.363
									c0.866,0.635,1.486,1.608,1.65,2.67c0.187,1.186-0.141,2.477,0.397,3.551c0.762,1.514,2.97,2.001,3.452,3.625
									c0.247,0.828-0.045,1.73,0.114,2.578c0.17,0.908,0.83,1.642,1.144,2.506C187.476,275.359,187.415,276.342,187.02,277.165z"
									/>
							</g>
							<g>
								<path style="fill:#F368E0;" d="M220.054,257.062l-0.105,0.151c-1.505,0.698-3.042,1.338-4.6,1.912
									c-0.82,0.305-1.668,0.591-2.543,0.588c-1.01-0.006-1.996-0.403-3.003-0.333c-1.422,0.096-2.791,1.114-4.161,0.723
									c-0.973-0.275-1.605-1.175-2.38-1.825c-0.625-0.523-1.393-0.926-1.97-1.482l4.328-6.207
									C210.43,252.747,215.243,254.903,220.054,257.062z"/>
							</g>
							<g>
								<path style="fill:#FF9FF3;" d="M205.619,250.589l-4.328,6.207c-0.247-0.239-0.458-0.505-0.61-0.822
									c-0.499-1.05-0.143-2.331-0.529-3.428c-0.503-1.432-2.189-2.341-2.314-3.852c-0.087-1.043,0.609-1.961,1.084-2.893
									c0.241-0.471,0.428-0.971,0.558-1.485C201.529,246.407,203.572,248.498,205.619,250.589z"/>
							</g>
							<g>
								<path style="fill:#F368E0;" d="M190.709,281.031c0.544-0.336,1.032-0.745,1.442-1.246c0.676-0.83,1.074-1.846,1.594-2.778
									c0.808-1.441,1.923-2.705,3.256-3.682c0.397-0.291,0.832-0.561,1.321-0.615c0.959-0.104,1.773,0.639,2.662,1.015
									c1.531,0.647,3.301,0.18,4.822-0.491c1.367-0.607,2.695-1.384,4.148-1.691l0.002,0.002l-11.973,17.169
									C195.557,286.153,193.134,283.591,190.709,281.031z"/>
							</g>
							<g>
								<path style="fill:#FF9FF3;" d="M212.57,294.965c-4.863-2.083-9.726-4.166-14.587-6.251l11.973-17.169
									c0.161-0.037,0.327-0.067,0.492-0.088c1.014-0.132,2.262,0.153,2.603,1.118c0.135,0.383,0.097,0.805,0.09,1.21
									c-0.038,1.723,0.51,3.452,1.529,4.844c1.19,1.619,3.092,3.024,3.064,5.034c-0.007,0.689-0.257,1.354-0.282,2.042
									c-0.022,0.613,0.128,1.188,0.357,1.749C216.061,289.957,214.315,292.463,212.57,294.965z"/>
							</g>
							<path style="fill:#FF9FF3;" d="M219.867,265.341c0.32,0.049,0.803,0.176,1.159,0.56c0.55,0.594,0.363,1.338,0.827,1.543
								c0.392,0.173,0.651-0.301,1.263-0.247c0.628,0.055,1.326,0.64,1.458,1.42c0.148,0.876-0.479,1.643-1.068,1.914
								c-0.564,0.259-0.814-0.065-1.667,0.195c-0.66,0.201-0.729,0.461-1.315,0.651c-0.393,0.127-0.993,0.214-1.843-0.033
								c-1.019-1.134-1.097-1.784-0.95-2.175c0.155-0.414,0.516-0.412,0.736-0.931c0.306-0.723-0.194-1.199,0.033-1.843
								C218.611,266.079,218.92,265.659,219.867,265.341z"/>
						</g>
					</g>
					<g>
						<g>
							
								<rect x="243.744" y="391.905" transform="matrix(0.9836 0.1804 -0.1804 0.9836 76.9872 -39.0207)" style="fill:#E5877A;" width="18.431" height="23.447"/>
							<g>
								<g>
									<path style="fill:#EE5253;" d="M284.747,425.79c-0.237,1.292-1.264,2.304-2.703,2.868l-8.46-1.552
										c-0.012-0.002-0.034-0.019-0.044-0.033l-33.099-6.072c-0.411-1.535-0.835-4.012-0.242-6.909
										c0.531-2.624,1.683-4.59,2.575-5.811c5.305,0.887,10.633,1.778,15.95,2.666c1.381-0.514,3.042-0.667,4.777-0.348
										c2.573,0.472,4.664,1.883,5.68,3.627c0.62-0.01,1.256,0.033,1.902,0.151c3.566,0.654,6.185,3.101,6.348,5.717
										c0.57-0.007,1.18,0.043,1.778,0.153C282.715,420.89,285.191,423.373,284.747,425.79z"/>
									<path style="fill:#FF9F43;" d="M286.895,428.579l-0.344,1.876c-0.148,0.804-1.101,1.302-2.131,1.113l-45.334-8.317
										c-1.03-0.189-1.745-0.993-1.597-1.797l0.344-1.876c0.148-0.804,1.101-1.302,2.131-1.113l45.334,8.317
										C286.328,426.971,287.042,427.775,286.895,428.579z"/>
									
										<rect x="261.705" y="400.076" transform="matrix(0.1804 -0.9836 0.9836 0.1804 -203.1557 606.2231)" style="fill:#E5F9F8;" width="0.973" height="49.882"/>
								</g>
								<path style="fill:none;stroke:#222F3E;stroke-width:0.5555;stroke-miterlimit:10;" d="M277.431,420.099
									c-1.555-0.458-3.185-0.109-4.241,0.944c-0.904,0.901-1.082,2.012-1.126,2.422"/>
								<path style="fill:none;stroke:#222F3E;stroke-width:0.5555;stroke-miterlimit:10;" d="M269.49,414.124
									c-1.555-0.458-3.185-0.109-4.242,0.943c-0.904,0.901-1.081,2.012-1.126,2.422"/>
								
									<rect x="242.528" y="402.269" transform="matrix(0.9836 0.1804 -0.1804 0.9836 77.8275 -38.8168)" style="fill:#EE5253;" width="19.466" height="12.166"/>
								<g>
									<path style="fill:none;stroke:#222F3E;stroke-width:0.5555;stroke-miterlimit:10;" d="M261.995,405.428
										c-1.819,1.761-2.661,3.842-1.88,4.648c0.781,0.806,2.888,0.033,4.707-1.728s2.661-3.842,1.88-4.648
										C265.922,402.893,263.814,403.667,261.995,405.428z"/>
									<path style="fill:none;stroke:#222F3E;stroke-width:0.5555;stroke-miterlimit:10;" d="M260.74,405.197
										c1.076,2.292,1.124,4.536,0.108,5.013c-1.016,0.477-2.711-0.995-3.787-3.287c-1.076-2.292-1.124-4.536-0.108-5.013
										C257.969,401.434,259.664,402.905,260.74,405.197z"/>
									<polyline style="fill:none;stroke:#222F3E;stroke-width:0.5555;stroke-miterlimit:10;" points="262.095,416.641 
										259.891,410.196 257.949,415.88 									"/>
								</g>
							</g>
							<polygon style="fill:#D3665E;" points="246.011,390.434 244.432,399.042 264.14,393.76 							"/>
						</g>
						
							<rect x="253.763" y="234.955" transform="matrix(0.9836 0.1804 -0.1804 0.9836 61.439 -43.6501)" style="fill:#FF9F43;" width="33.738" height="161.811"/>
						<path style="fill:#FF9F43;" d="M333.766,322.894L333.766,322.894c-8.161,4.157-18.146,0.911-22.303-7.25l-32.297-63.407
							l29.553-15.053l32.297,63.407C345.173,308.752,341.927,318.737,333.766,322.894z"/>
						<rect x="268.754" y="228.245" style="fill:#FF9F43;" width="45.015" height="36.499"/>
						<g>
							
								<rect x="319.125" y="395.063" transform="matrix(1 -0.0061 0.0061 1 -2.4702 2.0063)" style="fill:#E5877A;" width="18.431" height="23.447"/>
							<g>
								<g>
									<path style="fill:#EE5253;" d="M363.702,425.067c0.008,1.314-0.812,2.499-2.121,3.322l-8.601,0.052
										c-0.012,0-0.037-0.012-0.049-0.024l-33.651,0.205c-0.69-1.431-1.568-3.786-1.525-6.743
										c0.032-2.677,0.798-4.823,1.447-6.189c5.377-0.118,10.778-0.236,16.167-0.354c1.261-0.762,2.864-1.222,4.628-1.233
										c2.616-0.016,4.933,0.98,6.257,2.505c0.608-0.125,1.24-0.202,1.897-0.206c3.626-0.022,6.655,1.894,7.303,4.433
										c0.559-0.113,1.167-0.177,1.775-0.181C360.792,420.632,363.687,422.61,363.702,425.067z"/>
									<path style="fill:#FF9F43;" d="M366.332,427.407l0.012,1.908c0.005,0.818-0.839,1.485-1.886,1.491l-46.09,0.281
										c-1.048,0.006-1.9-0.65-1.905-1.468l-0.012-1.908c-0.005-0.818,0.839-1.485,1.887-1.491l46.09-0.281
										C365.475,425.933,366.327,426.589,366.332,427.407z"/>
									
										<rect x="316.457" y="428.026" transform="matrix(1 -0.0062 0.0062 1 -2.6351 2.1127)" style="fill:#E5F9F8;" width="49.882" height="0.973"/>
								</g>
								<path style="fill:none;stroke:#222F3E;stroke-width:0.5555;stroke-miterlimit:10;" d="M355.453,420.84
									c-1.613-0.16-3.15,0.487-3.991,1.718c-0.72,1.053-0.687,2.178-0.655,2.59"/>
								<path style="fill:none;stroke:#222F3E;stroke-width:0.5555;stroke-miterlimit:10;" d="M346.537,416.45
									c-1.613-0.16-3.15,0.487-3.991,1.718c-0.72,1.053-0.688,2.178-0.655,2.59"/>
								
									<rect x="318.802" y="407.908" transform="matrix(1 -0.0061 0.0061 1 -2.5141 2.0076)" style="fill:#EE5253;" width="19.466" height="12.166"/>
								<g>
									<path style="fill:none;stroke:#222F3E;stroke-width:0.5555;stroke-miterlimit:10;" d="M337.553,409.303
										c-1.459,2.069-1.898,4.271-0.981,4.917c0.917,0.647,2.843-0.506,4.302-2.576c1.459-2.069,1.898-4.271,0.981-4.917
										C340.938,406.081,339.012,407.234,337.553,409.303z"/>
									<path style="fill:none;stroke:#222F3E;stroke-width:0.5555;stroke-miterlimit:10;" d="M336.276,409.311
										c1.484,2.051,1.95,4.247,1.041,4.905c-0.909,0.658-2.849-0.472-4.333-2.523c-1.484-2.051-1.95-4.247-1.04-4.905
										S334.792,407.26,336.276,409.311z"/>
									<polyline style="fill:none;stroke:#222F3E;stroke-width:0.5555;stroke-miterlimit:10;" points="339.742,420.301 
										336.375,414.38 335.526,420.327 									"/>
								</g>
							</g>
							<polygon style="fill:#D3665E;" points="319.054,395.119 319.107,403.871 337.485,395.007 							"/>
						</g>
						<path style="fill:#FF9F43;" d="M327.761,295.159L327.761,295.159c9.071,0,16.424,7.353,16.424,16.424v86.989h-32.849v-86.989
							C311.336,302.513,318.69,295.159,327.761,295.159z"/>
						
							<line style="fill:none;stroke:#FFFFFF;stroke-width:1.2166;stroke-miterlimit:10;" x1="274.747" y1="259.517" x2="250.714" y2="390.434"/>
						
							<line style="fill:none;stroke:#FFFFFF;stroke-width:1.2166;stroke-miterlimit:10;" x1="280.83" y1="261.951" x2="256.797" y2="392.867"/>
						
							<rect x="250.366" y="311.624" transform="matrix(0.9836 0.1804 -0.1804 0.9836 64.2739 -41.9159)" style="fill:#FECA57;" width="24.302" height="41.365"/>
						
							<line style="fill:none;stroke:#FFFFFF;stroke-width:1.2166;stroke-miterlimit:10;" x1="259.384" y1="316.27" x2="274.229" y2="318.884"/>
						<polyline style="fill:none;stroke:#FFFFFF;stroke-width:1.2166;stroke-miterlimit:10;" points="306.299,264.744 
							328.269,314.597 328.269,398.572 						"/>
					</g>
					<g>
						<path style="fill:#222F3E;" d="M272.234,238.544l-2.803,0.556c-9.592,1.902-18.911-4.332-20.813-13.924l-6.045-30.483
							l20.172-4L272.234,238.544z"/>
						<path style="fill:#EE5253;" d="M305.881,250.144h-38.419c-5.775,0-10.456-4.681-10.456-10.456v-63.035
							c0-5.775,4.681-10.456,10.456-10.456h38.419c5.775,0,10.456,4.681,10.456,10.456v63.035
							C316.336,245.463,311.655,250.144,305.881,250.144z"/>
					</g>
					<g>
						<g>
							
								<ellipse transform="matrix(0.9626 -0.2709 0.2709 0.9626 -28.1071 84.4662)" style="fill:#341F97;" cx="291.931" cy="144.053" rx="15.403" ry="17.714"/>
							<path style="fill:#341F97;" d="M288.857,164.704c-2.645-0.548-4.342-3.149-3.791-5.812c0.551-2.662,3.142-4.376,5.787-3.829
								c2.645,0.548,4.342,3.149,3.791,5.812C294.092,163.537,291.502,165.251,288.857,164.704z"/>
							<path style="fill:#341F97;" d="M281.799,161.226c-1.895-0.392-3.111-2.256-2.716-4.164c0.395-1.907,2.251-3.136,4.146-2.743
								c1.895,0.392,3.111,2.256,2.716,4.164C285.55,160.39,283.694,161.619,281.799,161.226z"/>
							<path style="fill:#341F97;" d="M304.316,138.888c-1.895-0.392-3.111-2.257-2.716-4.164c0.395-1.907,2.251-3.135,4.146-2.743
								c1.895,0.392,3.111,2.257,2.716,4.164C308.067,138.053,306.211,139.281,304.316,138.888z"/>
							<path style="fill:#341F97;" d="M278.647,155.713c-1.895-0.392-3.111-2.257-2.716-4.164c0.395-1.907,2.251-3.135,4.146-2.743
								c1.895,0.392,3.111,2.257,2.716,4.164C282.398,154.877,280.542,156.105,278.647,155.713z"/>
							<path style="fill:#341F97;" d="M275.495,150.199c-1.895-0.392-3.111-2.256-2.716-4.164c0.395-1.907,2.251-3.135,4.146-2.743
								c1.895,0.392,3.111,2.257,2.716,4.164C279.247,149.363,277.39,150.591,275.495,150.199z"/>
							<path style="fill:#341F97;" d="M293.981,130.595c-1.895-0.392-3.111-2.256-2.716-4.164c0.395-1.907,2.251-3.135,4.146-2.743
								c1.895,0.392,3.111,2.256,2.716,4.164C297.732,129.76,295.876,130.988,293.981,130.595z"/>
							<path style="fill:#341F97;" d="M299.681,133.792c-1.895-0.392-3.111-2.257-2.716-4.164c0.395-1.907,2.251-3.135,4.146-2.743
								c1.895,0.392,3.111,2.256,2.716,4.164C303.432,132.956,301.576,134.184,299.681,133.792z"/>
							<path style="fill:#341F97;" d="M279.154,134.768c-1.895-0.392-3.111-2.257-2.716-4.164s2.251-3.135,4.146-2.743
								c1.895,0.392,3.111,2.257,2.716,4.164S281.049,135.16,279.154,134.768z"/>
							<path style="fill:#341F97;" d="M288.446,130.226c-1.525-0.316-2.504-1.816-2.186-3.351c0.318-1.535,1.812-2.524,3.337-2.208
								c1.525,0.316,2.504,1.816,2.186,3.351C291.466,129.553,289.971,130.542,288.446,130.226z"/>
							<path style="fill:#341F97;" d="M306.381,142.781c-1.525-0.316-2.504-1.816-2.186-3.351c0.318-1.535,1.812-2.524,3.337-2.208
								c1.525,0.316,2.504,1.816,2.186,3.351C309.4,142.108,307.906,143.096,306.381,142.781z"/>
							<path style="fill:#341F97;" d="M307.633,147.229c-1.525-0.316-2.504-1.816-2.186-3.351c0.318-1.535,1.812-2.524,3.337-2.208
								c1.525,0.316,2.504,1.816,2.186,3.351C310.652,146.556,309.158,147.545,307.633,147.229z"/>
							<path style="fill:#341F97;" d="M295.077,165.163c-1.525-0.316-2.504-1.816-2.186-3.351c0.318-1.535,1.812-2.524,3.337-2.208
								c1.525,0.316,2.504,1.816,2.186,3.351C298.097,164.491,296.603,165.479,295.077,165.163z"/>
							<path style="fill:#341F97;" d="M299.108,162.429c-1.525-0.316-2.504-1.816-2.186-3.351c0.318-1.535,1.812-2.524,3.337-2.208
								c1.525,0.316,2.504,1.816,2.186,3.351C302.128,161.756,300.634,162.745,299.108,162.429z"/>
							<path style="fill:#341F97;" d="M303.139,159.695c-1.525-0.316-2.504-1.816-2.186-3.351c0.318-1.535,1.812-2.524,3.337-2.208
								c1.525,0.316,2.504,1.816,2.186,3.351C306.159,159.022,304.665,160.01,303.139,159.695z"/>
							<path style="fill:#341F97;" d="M304.853,154.412c-1.525-0.316-2.504-1.816-2.186-3.351c0.318-1.535,1.812-2.524,3.337-2.208
								c1.525,0.316,2.504,1.816,2.186,3.351C307.872,153.739,306.379,154.727,304.853,154.412z"/>
							<path style="fill:#341F97;" d="M305.501,151.029c-1.525-0.316-2.504-1.816-2.186-3.351c0.318-1.535,1.812-2.524,3.337-2.208
								c1.525,0.316,2.504,1.816,2.186,3.351C308.521,150.356,307.027,151.345,305.501,151.029z"/>
							<path style="fill:#341F97;" d="M283.998,131.478c-1.525-0.316-2.504-1.816-2.186-3.351c0.318-1.535,1.812-2.524,3.337-2.208
								c1.525,0.316,2.504,1.816,2.186,3.351C287.017,130.805,285.523,131.793,283.998,131.478z"/>
							<path style="fill:#341F97;" d="M276.353,138.429c-1.525-0.316-2.504-1.816-2.186-3.351c0.318-1.535,1.812-2.524,3.337-2.208
								c1.525,0.316,2.504,1.816,2.186,3.351C279.373,137.757,277.879,138.745,276.353,138.429z"/>
							<path style="fill:#341F97;" d="M276.122,143.295c-1.525-0.316-2.504-1.816-2.186-3.351c0.318-1.535,1.812-2.524,3.337-2.208
								c1.525,0.316,2.504,1.816,2.186,3.351C279.142,142.622,277.648,143.611,276.122,143.295z"/>
							<path style="fill:none;stroke:#341F97;stroke-width:0.6083;stroke-miterlimit:10;" d="M296.098,128.698
								c3.793-2.239,4.465-3.307,4.289-3.866c-0.159-0.504-0.993-0.542-1.217-1.217c-0.262-0.788,0.536-1.76,1.217-2.433"/>
							<path style="fill:none;stroke:#341F97;stroke-width:0.6083;stroke-miterlimit:10;" d="M287.233,129.119
								c-1.081-1.741-1.094-2.903-0.837-3.679c0.35-1.057,1.331-1.788,1.12-2.088c-0.191-0.272-0.984,0.342-1.72,0.005
								c-0.746-0.342-1.216-1.559-0.868-2.578c0.342-1.002,1.322-1.369,1.468-1.422"/>
							<path style="fill:none;stroke:#341F97;stroke-width:0.6083;stroke-miterlimit:10;" d="M281.237,132.321
								c-3.171,0.911-4.545,0.484-5.183-0.189c-0.437-0.461-0.727-1.247-1.217-1.217c-0.599,0.037-0.803,1.252-1.217,1.217
								c-0.56-0.048-0.541-2.3-1.217-2.433c-0.314-0.062-0.719,0.344-1.217,1.217"/>
							<path style="fill:none;stroke:#341F97;stroke-width:0.6083;stroke-miterlimit:10;" d="M304.13,138.781
								c2.371-2.294,3.785-2.562,4.664-2.268c0.603,0.202,1.227,0.759,1.646,0.503c0.511-0.314,0.121-1.482,0.503-1.645
								c0.517-0.221,1.558,1.776,2.217,1.576c0.306-0.093,0.473-0.641,0.503-1.645"/>
							<path style="fill:none;stroke:#341F97;stroke-width:0.6083;stroke-miterlimit:10;" d="M280.046,136.425
								c-2.591,2.043-4.024,2.167-4.869,1.786c-0.579-0.262-1.145-0.879-1.586-0.666c-0.554,0.268-0.39,1.559-0.666,1.586
								c-0.311,0.032-0.484-1.428-1.128-1.524c-0.473-0.071-1.022,0.626-1.217,1.217c-0.062,0.189-0.187,0.666,0,1.217
								c0.025,0.074,0.324,0.919,1.217,1.217c0.557,0.186,1.039,0.057,1.217,0"/>
						</g>
						<g>
							<rect x="292.242" y="157.758" style="fill:#E5877A;" width="11.633" height="14.607"/>
							<path style="fill:#D3665E;" d="M303.875,157.758v3.696c-0.599,0.936-2.043,2.914-4.694,4.27
								c-3.003,1.536-5.792,1.374-6.885,1.252c-0.018-3.073-0.036-6.146-0.054-9.218H303.875z"/>
						</g>
						<g>
							<path style="fill:#E5877A;" d="M305.03,147.716c1.833,6.515-0.361,12.832-4.902,14.11s-9.708-2.968-11.541-9.483
								c-1.833-6.515,0.362-12.832,4.902-14.11C298.03,136.955,303.197,141.201,305.03,147.716z"/>
							<g>
								<path style="fill:none;stroke:#222F3E;stroke-width:0.2587;stroke-miterlimit:10;" d="M297.565,149.293l1.091,3.509
									L299,152.49c0.434-0.395,1.177-0.203,1.288,0.373c0.001,0.006,0.002,0.011,0.003,0.017c0.1,0.58-0.392,1.27-1.214,1.417"/>
								<path style="fill:none;stroke:#F98F80;stroke-width:0.2587;stroke-miterlimit:10;" d="M301.917,154.035
									c0.016,0.132,0.073,0.366,0.304,0.583c0.308,0.289,0.744,0.381,0.935,0.412"/>
								<path style="fill:none;stroke:#F98F80;stroke-width:0.2587;stroke-miterlimit:10;" d="M297.135,155.381
									c0.055,0.121,0.128,0.35,0.044,0.656c-0.112,0.407-0.436,0.713-0.583,0.839"/>
								<g>
									<path style="fill:none;stroke:#222F3E;stroke-width:0.2587;stroke-miterlimit:10;" d="M292.182,151.656
										c0.058-0.099,0.549-0.9,1.56-1.039c1.005-0.137,1.691,0.495,1.775,0.576"/>
									<g>
										<path style="fill:#222F3E;" d="M294.449,151.225c0.116,0.413-0.123,0.841-0.537,0.958
											c-0.413,0.116-0.841-0.124-0.957-0.537c-0.116-0.413,0.124-0.841,0.537-0.957
											C293.906,150.572,294.333,150.811,294.449,151.225z"/>
									</g>
								</g>
								<g>
									<path style="fill:none;stroke:#222F3E;stroke-width:0.2587;stroke-miterlimit:10;" d="M303.202,148.555
										c-0.102-0.054-0.938-0.482-1.872-0.073c-0.93,0.407-1.184,1.304-1.214,1.417"/>
									<g>
										<path style="fill:#222F3E;" d="M301.041,149.37c0.116,0.413,0.544,0.653,0.957,0.537c0.413-0.116,0.653-0.544,0.537-0.958
											c-0.116-0.413-0.544-0.653-0.957-0.537C301.165,148.529,300.925,148.956,301.041,149.37z"/>
									</g>
								</g>
								<path style="fill:#341F97;" d="M298.179,145.318c0.043,0.282,0.994,0.372,2.124,0.199c1.13-0.172,2.011-0.541,1.968-0.824
									c-0.043-0.283-0.994-0.372-2.124-0.2C299.017,144.667,298.136,145.036,298.179,145.318z"/>
								<path style="fill:#341F97;" d="M294.178,146.444c0.111,0.264-0.654,0.836-1.708,1.278c-1.054,0.442-1.998,0.587-2.109,0.324
									c-0.111-0.264,0.654-0.836,1.708-1.278S294.068,146.18,294.178,146.444z"/>
								<path style="fill:#ED4C67;" d="M291.36,155.528c0.329,1.169,1.544,1.85,2.713,1.521c1.169-0.329,1.85-1.544,1.521-2.713
									c-0.329-1.169-1.543-1.85-2.713-1.521C291.712,153.144,291.031,154.358,291.36,155.528z"/>
								<path style="fill:#ED4C67;" d="M301.82,152.584c0.329,1.169,1.544,1.85,2.713,1.521c1.169-0.329,1.85-1.544,1.521-2.713
									c-0.329-1.169-1.543-1.85-2.713-1.521C302.172,150.2,301.491,151.415,301.82,152.584z"/>
								<path style="fill:none;stroke:#222F3E;stroke-width:0.2587;stroke-miterlimit:10;" d="M301.943,154.932
									c-0.109,0.219-0.599,1.143-1.712,1.557c-1.403,0.522-2.621-0.203-2.771-0.295"/>
							</g>
							<g>
								<path style="fill:#E5877A;" d="M284.371,156.191c1.303,1.624,3.397,2.107,4.677,1.08c1.28-1.027,1.26-3.176-0.043-4.8
									c-1.303-1.624-3.397-2.107-4.677-1.081C283.048,152.418,283.067,154.567,284.371,156.191z"/>
								<path style="fill:none;stroke:#F98F80;stroke-width:0.2587;stroke-miterlimit:10;" d="M285.338,151.982
									c-0.121,0.147-0.946,1.185-0.662,2.43c0.295,1.294,1.671,2.288,3.314,2.208"/>
								
									<line style="fill:none;stroke:#F98F80;stroke-width:0.2587;stroke-miterlimit:10;" x1="286.318" y1="154.666" x2="288.353" y2="154.723"/>
							</g>
						</g>
					</g>
					<g>
						<path style="fill:#2E86DE;" d="M323.502,253.794c-7.239,1.436-16.303,2.591-26.766,2.433
							c-13.346-0.207-24.539-2.494-32.849-4.866c6.022-27.386,12.045-54.785,18.055-82.171c2.92,0.195,5.84,0.389,8.76,0.584
							c5.195,0.353,10.402,0.693,15.597,1.046c1.788,0.122,3.565,0.231,5.353,0.353C315.607,198.718,319.548,226.25,323.502,253.794
							z"/>
						<path style="fill:#E5877A;" d="M306.299,170.82c-1.764,2.506-4.745,4.076-8.03,3.881c-3.346-0.207-6.144-2.166-7.567-4.927
							C295.897,170.127,301.104,170.468,306.299,170.82z"/>
					</g>
					<g>
						<g>
							<path style="fill:#E5877A;" d="M250.117,221.071c-2.915,1.137-6.355,0.569-8.766-1.739c-1.39-1.333-2.22-3.04-2.472-4.809
								c-0.005-0.002-0.003-0.008-0.003-0.008c-0.16-1.142-0.084-2.311,0.229-3.428c0.316-1.11,0.865-2.17,1.658-3.098
								c0.106-0.137,0.223-0.26,0.343-0.385l3.257-3.399l26.378-27.516c3.173-3.303,8.421-3.417,11.731-0.247
								c0.445,0.424,0.831,0.89,1.158,1.381c2.12,3.169,1.834,7.494-0.913,10.356l-8.488,8.855l-5.699,5.945l-1.462,1.527
								l-7.939,8.284l-6.041,6.298c-0.4,0.417-0.832,0.781-1.287,1.097C251.268,220.55,250.702,220.846,250.117,221.071z"/>
							<path style="fill:#E5877A;" d="M208.966,250.774c8.689-11.948,17.378-23.897,26.066-35.849
								c1.042-1.434,2.087-2.872,3.13-4.306c0.289-0.399,0.577-0.79,0.866-1.189c1.829-2.244,4.591-3.284,7.273-3.005
								c0.003-0.005,0.008-0.002,0.008-0.002c1.559,0.156,3.088,0.756,4.392,1.818c1.282,1.047,2.17,2.388,2.644,3.854
								c0.391,1.202,0.505,2.49,0.327,3.747c-0.026,0.177-0.056,0.355-0.095,0.531c-0.265,1.264-0.822,2.48-1.693,3.548
								c-2.075,2.272-4.15,4.543-6.224,6.819c-2.204,2.414-4.408,4.828-6.612,7.242c-0.996,1.09-1.992,2.176-2.986,3.27
								c-1.451,1.591-2.899,3.174-4.35,4.765l-0.006,0.01c-4.76,5.215-9.521,10.427-14.283,15.639L208.966,250.774z"/>
						</g>
					</g>
					<path style="fill:#2E86DE;" d="M277.35,199.527c-6.055-4.536-12.105-9.066-18.152-13.607c0.975-1.324,1.994-2.668,3.062-4.037
						c0.554-0.712,1.125-1.426,1.709-2.149c0.082-0.104,0.17-0.212,0.252-0.315c1.849-2.293,3.693-4.439,5.504-6.467
						c3.193-4.04,8.695-5.441,13.296-3.451c4.905,2.126,7.666,7.623,6.389,12.988c-1.865,3.219-4.071,6.652-6.654,10.19
						c-0.121,0.159-0.237,0.324-0.357,0.482c-0.633,0.861-1.272,1.699-1.906,2.503C279.437,197.024,278.385,198.305,277.35,199.527z
						"/>
					<g>
						<g>
							<path style="fill:#E5877A;" d="M359.284,163.131c3.069,0.61,5.664,2.939,6.455,6.182c0.454,1.872,0.237,3.757-0.503,5.384
								c0.003,0.005-0.001,0.008-0.001,0.008c-0.479,1.049-1.172,1.993-2.037,2.767c-0.864,0.765-1.896,1.364-3.064,1.72
								c-0.163,0.058-0.328,0.099-0.496,0.14l-4.574,1.114l-37.038,9.007c-4.452,1.077-8.937-1.649-10.022-6.102
								c-0.147-0.597-0.222-1.198-0.234-1.787c-0.082-3.812,2.485-7.304,6.34-8.238l11.918-2.899l8.002-1.946l2.054-0.501
								l11.149-2.712l8.481-2.06c0.562-0.136,1.121-0.211,1.675-0.233C358.033,162.951,358.669,163.006,359.284,163.131z"/>
							<path style="fill:#E5877A;" d="M376.289,121.705c-2.57,14.548-5.139,29.097-7.706,43.648
								c-0.308,1.745-0.617,3.496-0.924,5.242c-0.085,0.486-0.172,0.962-0.257,1.448c-0.659,2.819-2.686,4.965-5.219,5.89
								c0,0.006-0.006,0.006-0.006,0.006c-1.47,0.544-3.107,0.674-4.744,0.292c-1.612-0.379-2.997-1.194-4.066-2.304
								c-0.878-0.909-1.546-2.016-1.937-3.224c-0.054-0.17-0.105-0.343-0.147-0.519c-0.317-1.252-0.349-2.59-0.034-3.931
								c0.869-2.952,1.737-5.903,2.604-8.858c0.922-3.136,1.845-6.272,2.767-9.408c0.417-1.416,0.836-2.829,1.25-4.249
								c0.606-2.066,1.214-4.124,1.82-6.19l0.001-0.012c1.991-6.775,3.985-13.546,5.979-20.318L376.289,121.705z"/>
						</g>
					</g>
					<path style="fill:#2E86DE;" d="M324.4,166.08c2.551,7.123,5.101,14.237,7.644,21.36c-1.543,0.567-3.134,1.127-4.78,1.68
						c-0.854,0.289-1.725,0.57-2.611,0.851c-0.125,0.041-0.259,0.083-0.384,0.124c-2.807,0.893-5.529,1.667-8.157,2.361
						c-4.892,1.611-10.253-0.254-12.996-4.451c-2.92-4.478-2.194-10.586,1.83-14.358c3.331-1.658,7.064-3.306,11.169-4.834
						c0.188-0.066,0.376-0.14,0.564-0.205c1.003-0.37,1.998-0.716,2.97-1.038C321.279,167.017,322.863,166.529,324.4,166.08z"/>
					<g>
						<path style="fill:#341F97;" d="M289.764,143.761c-1.18-0.347-1.854-1.591-1.505-2.779s1.589-1.87,2.769-1.523
							c1.18,0.347,1.854,1.591,1.505,2.779C292.184,143.425,290.944,144.107,289.764,143.761z"/>
						<path style="fill:#341F97;" d="M292.062,142.143c-1.259-0.37-1.979-1.698-1.606-2.965c0.372-1.268,1.695-1.995,2.955-1.626
							c1.259,0.37,1.979,1.698,1.606,2.965C294.645,141.785,293.322,142.513,292.062,142.143z"/>
						<path style="fill:#341F97;" d="M295.501,141.402c-1.18-0.347-1.854-1.591-1.505-2.779c0.349-1.188,1.589-1.87,2.769-1.523
							c1.18,0.347,1.854,1.591,1.505,2.779C297.921,141.066,296.682,141.748,295.501,141.402z"/>
						<path style="fill:#341F97;" d="M298.122,142.13c-1.18-0.347-1.854-1.591-1.505-2.779c0.349-1.188,1.589-1.87,2.769-1.523
							c1.18,0.347,1.854,1.591,1.505,2.779C300.543,141.794,299.303,142.477,298.122,142.13z"/>
					</g>
					<path style="fill:#222F3E;" d="M298.46,257.665c0.237,11.281,0.474,22.563,0.71,33.844c-1.622-3.244-3.244-6.489-4.867-9.733
						C295.689,273.739,297.074,265.702,298.46,257.665z"/>
					<g>
						<path style="fill:#FFFFFF;" d="M316.203,208.779c0,0.219,0,0.45-0.024,0.669c-0.085,2.056-0.608,4.003-1.46,5.742
							c-0.182,0.377-0.377,0.742-0.596,1.095c-0.207,0.353-0.426,0.681-0.657,1.01c-0.049,0.073-0.097,0.134-0.146,0.195
							c-1.74,2.336-4.161,4.137-6.983,5.098c-1.484,0.511-3.078,0.791-4.733,0.791h-0.146c-0.195,0-0.377-0.012-0.572-0.012
							c-2.032-0.097-3.954-0.62-5.682-1.472c-2.178-1.059-4.051-2.64-5.463-4.599c0-0.012-0.012-0.012-0.012-0.024
							c-0.109-0.146-0.207-0.292-0.316-0.438c-0.365-0.56-0.693-1.144-0.986-1.764c-0.487-1.022-0.864-2.117-1.107-3.26
							c-0.207-0.973-0.316-1.983-0.316-3.029c0-8.066,6.533-14.6,14.599-14.6c3.601,0,6.886,1.29,9.429,3.455
							C314.195,200.299,316.203,204.302,316.203,208.779z"/>
						<g>
							<path style="fill:#FF9F43;" d="M314.122,216.286c-0.207,0.353-0.426,0.681-0.657,1.01c-0.049,0.073-0.097,0.134-0.146,0.195
								c-1.74,2.336-4.161,4.137-6.983,5.098c-1.484,0.511-3.078,0.791-4.733,0.791h-0.146c-0.195,0-0.377-0.012-0.572-0.012
								c-2.032-0.097-3.954-0.62-5.682-1.472c-2.178-1.059-4.051-2.64-5.463-4.599h-0.024l0.012-0.024l2.786-4.842l1.034-1.788
								l0.961-1.667l0.839-1.46l2.044-3.528l0.012-0.012l4.806-8.322l5.475,9.477l0.803,1.387l0.803,1.399l2.604,4.514
								L314.122,216.286z"/>
							<polygon style="fill:#EE5253;" points="307.686,205.129 305.253,202.696 304.036,206.346 302.211,203.11 300.387,206.346 
								299.17,202.696 297.406,203.973 302.211,195.652 							"/>
							<path style="fill:#FF9F43;" d="M295.52,201.479c0,1.344-1.089,2.433-2.433,2.433c-1.344,0-2.433-1.089-2.433-2.433
								c0-1.344,1.089-2.433,2.433-2.433C294.431,199.046,295.52,200.135,295.52,201.479z"/>
							<g>
								<polygon style="fill:#01A3A4;" points="293.62,205.293 288.07,212.429 299.17,212.429 								"/>
								<path style="fill:#01A3A4;" d="M289.717,217.296h0.024h6.132h1.521h0.462h2.531l-1.399-1.971l-0.316-0.462l-0.535-0.754
									l-1.034-1.46l-0.158-0.219l-2.433-3.455l-0.888-1.253l-3.321,4.708l-1.874,2.64c0.292,0.62,0.621,1.204,0.985,1.764
									L289.717,217.296z"/>
								<path style="fill:#01A3A4;" d="M289.717,217.296h0.024c1.411,1.959,3.285,3.54,5.463,4.599
									c1.728,0.852,3.65,1.375,5.682,1.472l-2.093-3.638l-1.168-2.032l-0.231-0.401l-0.681-1.18l-0.73-1.253l-0.255-0.45
									l-1.144-1.983l-1.034-1.788l-0.28-0.487l-1.314,2.275l-2.543,4.404L289.717,217.296z"/>
							</g>
							<g>
								<polygon style="fill:#01A3A4;" points="309.436,205.293 303.886,212.429 314.986,212.429 								"/>
								<path style="fill:#01A3A4;" d="M314.718,215.191c-0.182,0.377-0.377,0.742-0.596,1.095c-0.207,0.353-0.426,0.681-0.657,1.01
									h-10.792l0.341-0.475l1.302-1.861l0.073-0.097l0.998-1.399l0.73-1.034l3.175-4.514l0.146-0.195l3.321,4.708L314.718,215.191
									z"/>
								<path style="fill:#01A3A4;" d="M313.319,217.49c-1.74,2.336-4.161,4.137-6.983,5.098c-1.484,0.511-3.078,0.791-4.733,0.791
									h-0.146l2.105-3.65l0.56-0.973l0.84-1.46l0.45-0.779l0.961-1.655l0.036-0.073l1.363-2.36l1.314-2.275l1.314,2.275
									l2.81,4.867L313.319,217.49z"/>
							</g>
							<g>
								<polygon style="fill:#00D2D3;" points="300.92,207.726 295.37,214.862 306.47,214.862 								"/>
								<polygon style="fill:#00D2D3;" points="300.92,210.159 294.153,219.729 307.686,219.729 								"/>
								<path style="fill:#00D2D3;" d="M306.336,222.588c-1.484,0.511-3.078,0.791-4.733,0.791h-0.146
									c-0.195,0-0.377-0.012-0.572-0.012c-2.032-0.097-3.954-0.62-5.682-1.472l1.241-2.166l1.18-2.032l0.231-0.401l1.131-1.971
									l0.268-0.462l1.314-2.275l1.314,2.275l1.131,1.959l0.268,0.475l0.839,1.46l0.572,0.973L306.336,222.588z"/>
							</g>
						</g>
					</g>
					<polygon style="fill:#222F3E;" points="275.641,197.888 283.38,186.39 272.381,212.717 					"/>
					<path style="fill:#EE5253;" d="M282.137,168.63c0.891,1.484,10.096,17.404,2.433,34.066
						c-4.943,10.749-14.053,15.601-17.033,17.033c4.145-5.472,10.473-15.37,13.383-29.199
						C282.76,181.79,282.666,174.178,282.137,168.63z"/>
					<g>
						<g>
							<g>
								<path style="fill:#E5877A;" d="M220.391,246.083L220.391,246.083c-2.525-2.282-6.423-2.085-8.705,0.441l-4.821,5.335
									l9.145,8.264l4.821-5.335C223.114,252.263,222.917,248.365,220.391,246.083z"/>
								<path style="fill:#E5877A;" d="M210.303,250.246L210.303,250.246c-0.636-0.583-1.624-0.54-2.208,0.096l-7.661,8.358
									c-0.583,0.636-0.54,1.625,0.096,2.208h0c0.636,0.583,1.624,0.54,2.208-0.096l7.661-8.359
									C210.982,251.817,210.939,250.829,210.303,250.246z"/>
								<path style="fill:#E5877A;" d="M212.784,252.52L212.784,252.52c-0.636-0.583-1.625-0.54-2.208,0.096l-9.057,9.882
									c-0.583,0.636-0.54,1.624,0.096,2.207l0,0c0.636,0.583,1.624,0.54,2.207-0.096l9.057-9.882
									C213.463,254.091,213.42,253.103,212.784,252.52z"/>
								<path style="fill:#E5877A;" d="M215.265,254.793L215.265,254.793c-0.636-0.583-1.624-0.54-2.207,0.096l-7.661,8.358
									c-0.583,0.636-0.54,1.625,0.096,2.208l0,0c0.636,0.583,1.624,0.54,2.207-0.096l7.661-8.359
									C215.944,256.365,215.901,255.376,215.265,254.793z"/>
								<path style="fill:#E5877A;" d="M217.48,256.824L217.48,256.824c-0.49-0.448-1.25-0.415-1.698,0.074l-5.496,5.996
									c-0.449,0.49-0.415,1.25,0.074,1.698l0,0c0.489,0.448,1.249,0.415,1.698-0.074l5.496-5.996
									C218.002,258.033,217.969,257.272,217.48,256.824z"/>
							</g>
							<path style="fill:#E5877A;" d="M211.348,249.948c0.412,0.317,2.029,1.484,4.302,1.311c1.598-0.121,2.722-0.844,3.204-1.198"
								/>
							<line style="fill:#E5877A;" x1="218.391" y1="255.73" x2="211.938" y2="252.434"/>
						</g>
					</g>
					<g>
						<path style="fill:#ED4C67;" d="M373.088,132.678h-18.671c1.482-9.78,2.964-19.56,4.445-29.339c6.223,0,12.447,0,18.671,0
							C376.051,113.118,374.57,122.898,373.088,132.678z"/>
						<path style="fill:#222F3E;" d="M371.357,130.245h-15.723c1.248-8.236,2.496-16.471,3.743-24.707c5.241,0,10.482,0,15.723,0
							C373.852,113.773,372.604,122.009,371.357,130.245z"/>
					</g>
					<path style="fill:#E5877A;" d="M374.623,123.822h-8.064c-1.113,0-2.016-0.903-2.016-2.016l0,0c0-1.113,0.903-2.016,2.016-2.016
						h8.064c1.113,0,2.016,0.903,2.016,2.016l0,0C376.639,122.919,375.736,123.822,374.623,123.822z"/>
				</g>
				<g>
					<g>
						<g>
							<g>
								<path style="fill:#FECA57;" d="M506.529,178.287c-18.851-3.979-37.702-7.958-56.553-11.936
									c0.157-39.36,0.314-78.719,0.471-118.079c18.881-3.503,37.762-7.006,56.643-10.508L506.529,178.287z"/>
								<path style="fill:#FECA57;" d="M393.329,177.835c18.882-3.828,37.764-7.656,56.647-11.484
									c0.157-39.36,0.314-78.719,0.471-118.079c-18.852-3.653-37.705-7.307-56.557-10.96L393.329,177.835z"/>
								<path style="fill:#FECA57;" d="M506.529,178.287c18.882-3.828,37.764-7.656,56.646-11.484
									c0.157-39.36,0.314-78.719,0.471-118.079c-18.852-3.653-37.705-7.307-56.557-10.96L506.529,178.287z"/>
							</g>
							<g>
								<path style="fill:#2E86DE;" d="M504.876,102.426c-3.462,3.658-5.667,8.384-8.309,12.714
									c-2.947,4.806-6.982,9.521-12.501,10.669c-3.204,0.668-6.905,0.163-9.38,2.302c-1.261,1.093-1.953,2.685-2.498,4.263
									c-1.833,5.295-2.507,10.97-1.982,16.546c0.346,3.603,1.194,7.203,0.91,10.821c-0.176,2.187-0.748,4.269-1.617,6.255
									c-5.852-1.243-11.707-2.476-17.552-3.707l0.338-84.289c2.675,0.444,5.596,0.086,8.353,0.34
									c3.411,0.32,6.903,1.609,10.157,0.496c4.572-1.552,6.422-7.026,10.201-10.041c2.679-2.136,6.19-2.931,9.017-4.856
									c2.453-1.686,4.265-4.119,5.962-6.548c3.24-4.6,6.293-9.352,9.141-14.2L504.876,102.426z"/>
								<path style="fill:#54A0FF;" d="M452.383,52.349l-0.439,109.94c-0.059,0.009-0.127,0.029-0.185,0.038
									c-17.521,3.55-35.033,7.101-52.554,10.652l0.522-130.833c7.811,1.515,15.631,3.029,23.442,4.544
									C432.91,48.573,442.641,50.466,452.383,52.349z"/>
								<path style="fill:#54A0FF;" d="M557.46,131.653c-1.721-1.123-3.247-2.44-4.368-4.19c-1.257-1.968-1.842-4.306-3.151-6.24
									c-3.798-5.658-11.81-5.91-18.251-8.129c-5.524-1.917-10.387-5.681-13.604-10.559c-0.761-1.145-1.469-2.395-2.584-3.201
									c-2.813-2.035-6.841-0.421-9.416,1.902c-0.418,0.379-0.823,0.782-1.201,1.194l-0.009-0.003l0.24-59.234l0.004-0.623
									c17.549,3.398,35.107,6.799,52.652,10.206C557.668,79.068,557.564,105.361,557.46,131.653z"/>
								<g>
									<path style="fill:#FF9FF3;" d="M451.758,162.328c-17.521,3.55-35.033,7.101-52.554,10.652l0.188-46.968
										c3.64,0.102,7.244,1.62,9.751,4.264c2.809,2.949,4.382,7.18,7.956,9.137c5.044,2.753,12.141-0.147,16.615,3.453
										c2.286,1.834,3.211,4.912,5.291,6.969c2.226,2.205,5.482,2.979,8.022,4.785
										C449.547,156.415,451.273,159.271,451.758,162.328z"/>
								</g>
								<g>
									<path style="fill:#F368E0;" d="M505.119,42.567l-0.003,0.625c-2.849,4.848-5.903,9.599-9.142,14.201
										c-1.698,2.433-3.513,4.865-5.96,6.544c-2.828,1.931-6.344,2.727-9.017,4.863c-3.779,3.01-5.635,8.487-10.209,10.04
										c-3.244,1.109-6.743-0.183-10.157-0.499c-2.751-0.255-5.67,0.104-8.352-0.336l0.103-25.655
										C469.962,49.092,487.54,45.824,505.119,42.567z"/>
								</g>
								<g>
									<path style="fill:#FF9FF3;" d="M452.383,52.349l-0.103,25.655c-1.151-0.19-2.252-0.526-3.284-1.116
										c-3.417-1.965-4.893-6.226-8.085-8.542c-4.165-3.022-10.618-2.306-13.881-6.282c-2.253-2.741-2.081-6.644-2.555-10.159
										c-0.237-1.777-0.679-3.535-1.306-5.216C432.91,48.573,442.641,50.466,452.383,52.349z"/>
								</g>
								<g>
									<path style="fill:#F368E0;" d="M469.5,165.996c0.87-1.986,1.441-4.068,1.617-6.255c0.284-3.618-0.565-7.217-0.91-10.821
										c-0.525-5.576,0.149-11.251,1.982-16.546c0.544-1.578,1.237-3.17,2.498-4.263c2.475-2.14,6.176-1.635,9.38-2.302
										c5.519-1.148,9.554-5.863,12.501-10.669c2.642-4.33,4.846-9.055,8.309-12.714l0.009,0.003l-0.287,70.968
										C492.898,170.933,481.2,168.46,469.5,165.996z"/>
								</g>
								<g>
									<path style="fill:#FF9FF3;" d="M557.334,162.702c-17.58,3.568-35.159,7.136-52.736,10.695l0.287-70.968
										c0.377-0.412,0.783-0.815,1.201-1.194c2.575-2.323,6.603-3.936,9.416-1.902c1.115,0.807,1.823,2.057,2.584,3.201
										c3.217,4.878,8.08,8.643,13.604,10.559c6.442,2.22,14.454,2.472,18.251,8.129c1.309,1.934,1.894,4.272,3.151,6.24
										c1.121,1.751,2.647,3.068,4.368,4.19C557.414,142.005,557.377,152.36,557.334,162.702z"/>
								</g>
								<g>
									<path style="fill:#341F97;" d="M418.042,128.565l-0.922-0.294c-5.269-1.681-10.459,2.803-9.554,8.267l2.536,15.316
										l10.939-11.016C424.944,136.909,423.316,130.248,418.042,128.565z M414.258,138.954c-1.979-0.632-3.073-2.751-2.441-4.73
										c0.633-1.983,2.753-3.077,4.732-2.446c1.983,0.633,3.073,2.752,2.44,4.735
										C418.357,138.491,416.241,139.587,414.258,138.954z"/>
								</g>
								<g>
									<path style="fill:#341F97;" d="M548.453,117.941l-0.922-0.294c-5.269-1.681-10.459,2.803-9.554,8.267l2.536,15.316
										l10.939-11.016C555.354,126.285,553.726,119.624,548.453,117.941z M544.669,128.33c-1.979-0.631-3.073-2.751-2.441-4.73
										c0.633-1.983,2.753-3.077,4.732-2.446c1.983,0.633,3.073,2.751,2.44,4.735C548.767,127.867,546.652,128.963,544.669,128.33
										z"/>
								</g>
								<g>
									<path style="fill:#341F97;" d="M476.634,133.584l-0.895,0.369c-5.113,2.109-6.193,8.882-1.98,12.477l11.807,10.08
										l1.269-15.472C487.288,135.518,481.752,131.473,476.634,133.584z M480.434,143.967c-1.92,0.792-4.123-0.124-4.915-2.045
										c-0.794-1.925,0.123-4.127,2.043-4.919c1.924-0.794,4.123,0.124,4.917,2.049
										C483.27,140.973,482.358,143.173,480.434,143.967z"/>
								</g>
								<g>
									<path style="fill:#341F97;" d="M438.221,51.67l-0.47-0.052c-2.687-0.298-4.742,2.352-3.782,4.883l2.692,7.096l4.181-6.334
										C442.333,55.004,440.91,51.968,438.221,51.67z M437.409,57.014c-1.009-0.112-1.738-1.022-1.626-2.032
										c0.112-1.012,1.023-1.74,2.032-1.629c1.011,0.112,1.738,1.022,1.626,2.034C439.329,56.397,438.42,57.126,437.409,57.014z"
										/>
								</g>
								<path style="fill:#FF9FF3;" d="M520.562,66.017c0.989-0.48,2.579-1.059,4.312-0.673c2.68,0.597,3.592,3.032,5.281,2.71
									c1.426-0.272,1.235-2.095,3.046-3.125c1.859-1.058,4.934-0.772,6.804,1.147c2.104,2.158,1.834,5.507,0.712,7.398
									c-1.073,1.809-2.395,1.389-4.272,3.758c-1.453,1.834-1.143,2.692-2.413,4.352c-0.85,1.111-2.356,2.511-5.202,3.462
									c-5.028-1.199-6.499-2.862-6.844-4.233c-0.366-1.455,0.646-2.143,0.257-4.015c-0.541-2.605-2.854-2.97-3.462-5.202
									C518.483,70.499,518.535,68.731,520.562,66.017z"/>
								<path style="fill:none;stroke:#222F3E;stroke-width:1.0432;stroke-miterlimit:10;stroke-dasharray:5.2162;" d="
									M410.85,149.174c8.681-28.595,17.361-57.191,26.042-85.786c30.699,3.309,61.398,6.619,92.097,9.928
									c-14.353,27.857-28.707,55.715-43.06,83.572c18.547-5.69,37.094-11.381,55.641-17.071"/>
								<g>
									<path style="fill:#341F97;" d="M530.317,61.598l-0.47-0.052c-2.688-0.298-4.742,2.352-3.782,4.883l2.692,7.096l4.181-6.334
										C534.43,64.932,533.007,61.897,530.317,61.598z M529.505,66.942c-1.009-0.112-1.738-1.022-1.626-2.032
										c0.112-1.011,1.023-1.74,2.032-1.628c1.012,0.112,1.738,1.022,1.626,2.034C531.425,66.326,530.517,67.055,529.505,66.942z"
										/>
								</g>
							</g>
						</g>
						<g>
							<g>
								<g>
									<path style="fill:#EE5253;" d="M291.668,64.525l9.15,25.449c0.595,1.655-0.267,3.48-1.919,4.074l-42.841,15.404
										c-1.656,0.595-3.479-0.264-4.075-1.919l-9.15-25.449c-0.595-1.655,0.264-3.479,1.919-4.074l42.841-15.404
										c0.296-0.106,0.593-0.165,0.893-0.184C289.862,62.346,291.18,63.166,291.668,64.525z"/>
								</g>
								<path style="fill:#FECA57;" d="M299.355,85.903l1.464,4.071c0.595,1.655-0.267,3.48-1.919,4.074l-42.841,15.404
									c-1.656,0.595-3.479-0.264-4.075-1.919l-1.464-4.071L299.355,85.903z"/>
								
									<rect x="244.204" y="74.051" transform="matrix(0.941 -0.3384 0.3384 0.941 -10.8815 88.3738)" style="fill:#FECA57;" width="7.666" height="2.693"/>
								<g>
									
										<rect x="243.886" y="74.107" transform="matrix(0.941 -0.3384 0.3384 0.941 -10.6005 88.2221)" style="fill:#EE5253;" width="7.666" height="0.813"/>
								</g>
								
									<rect x="253.804" y="71.041" transform="matrix(0.941 -0.3384 0.3384 0.941 -9.3695 91.0268)" style="fill:#FECA57;" width="5.207" height="2.693"/>
								<g>
									<g>
										
											<rect x="272.307" y="59.876" transform="matrix(0.941 -0.3383 0.3383 0.941 -4.7815 98.1079)" style="fill:#EE5253;" width="13.423" height="5.786"/>
									</g>
									
										<rect x="272.796" y="62.684" transform="matrix(0.941 -0.3383 0.3383 0.941 -5.2133 98.3524)" style="fill:#FECA57;" width="13.423" height="2.893"/>
									
										<rect x="273.79" y="60.663" transform="matrix(0.941 -0.3384 0.3384 0.941 -4.8134 98.1267)" style="fill:#222F3E;" width="10.53" height="4.414"/>
								</g>
								<path style="fill:#FECA57;" d="M296.061,91.995l-5.747,2.066c-0.292,0.105-0.615-0.047-0.72-0.339l-0.123-0.342
									c-0.105-0.292,0.047-0.615,0.339-0.72l5.747-2.066c0.292-0.105,0.615,0.047,0.72,0.339l0.123,0.342
									C296.505,91.567,296.353,91.89,296.061,91.995z"/>
								<g>
									
										<ellipse transform="matrix(0.0577 -0.9983 0.9983 0.0577 168.5592 353.0028)" style="fill:#222F3E;" cx="271.273" cy="87.212" rx="11.927" ry="11.927"/>
									<path style="fill:none;stroke:#FFFFFF;stroke-width:0.1566;stroke-miterlimit:10;" d="M278.878,84.535
										c1.516,4.218-0.673,8.866-4.891,10.383s-8.866-0.673-10.383-4.891c-1.517-4.218,0.673-8.866,4.891-10.383
										C272.713,78.127,277.361,80.317,278.878,84.535z"/>
									<path style="fill:none;stroke:#FFFFFF;stroke-width:0.1007;stroke-miterlimit:10;" d="M276.105,85.615
										c0.975,2.713-0.433,5.702-3.146,6.677c-2.712,0.975-5.702-0.433-6.677-3.146c-0.975-2.712,0.433-5.702,3.146-6.677
										C272.14,81.494,275.13,82.902,276.105,85.615z"/>
									
										<ellipse transform="matrix(0.9998 -0.0189 0.0189 0.9998 -1.5969 5.1343)" style="fill:none;stroke:#222F3E;stroke-width:0.3131;stroke-miterlimit:10;" cx="271.185" cy="87.162" rx="14.236" ry="14.236"/>
									<path style="fill:#FFFFFF;" d="M275.202,77.089c0.293,0.814-0.13,1.711-0.944,2.003c-0.814,0.293-1.71-0.13-2.003-0.944
										c-0.293-0.814,0.13-1.71,0.944-2.003C274.013,75.852,274.91,76.275,275.202,77.089z"/>
									<path style="fill:#FFFFFF;" d="M270.61,96.708c0.234,0.651-0.104,1.368-0.755,1.602c-0.651,0.234-1.368-0.104-1.602-0.755
										c-0.234-0.651,0.104-1.368,0.755-1.603C269.659,95.719,270.376,96.057,270.61,96.708z"/>
									<path style="fill:#FFFFFF;" d="M266.922,95.705c0.175,0.488-0.078,1.026-0.566,1.202c-0.488,0.176-1.026-0.078-1.202-0.566
										c-0.176-0.488,0.078-1.026,0.566-1.202C266.208,94.963,266.746,95.217,266.922,95.705z"/>
								</g>
								<path style="fill:#FECA57;" d="M288.486,62.424l0.934,2.597c0.244,0.678-0.108,1.425-0.786,1.669l-14.423,5.186
									c-0.678,0.244-1.425-0.108-1.669-0.786l-0.978-2.72l16.029-5.763C287.889,62.5,288.188,62.442,288.486,62.424z"/>
								<path style="fill:#FF6B6B;" d="M258.867,96.334l3.855,10.721l-6.664,2.396c-1.656,0.595-3.479-0.264-4.075-1.919
									l-3.327-9.255l8.134-2.925C257.636,95.049,258.563,95.489,258.867,96.334z"/>
								<path style="fill:#FFFFFF;" d="M249.743,87.129l-0.588,0.211c-0.439,0.158-0.923-0.07-1.081-0.509l-2.071-5.76
									c-0.158-0.439,0.07-0.923,0.509-1.081l0.588-0.211c0.439-0.158,0.923,0.07,1.081,0.509l2.071,5.76
									C250.41,86.487,250.182,86.971,249.743,87.129z"/>
							</g>
							<g>
								<path style="fill:#FFFFFF;" d="M272.908,61.382c-0.314,0.097-2.236,0.729-3.133,2.723c-0.626,1.389-0.406,2.667-0.305,3.122
									c-0.163-0.441-0.709-1.743-2.121-2.653c-1.637-1.055-3.304-0.85-3.725-0.786c0.446-0.194,2.073-0.965,2.946-2.833
									c0.599-1.284,0.551-2.463,0.493-3.012c0.211,0.518,0.692,1.485,1.706,2.283C270.486,61.576,272.443,61.429,272.908,61.382z"
									/>
								<path style="fill:#FFFFFF;" d="M275.422,55.794c-0.192,0.06-1.369,0.447-1.919,1.668c-0.383,0.851-0.249,1.633-0.187,1.912
									c-0.1-0.27-0.434-1.068-1.299-1.625c-1.003-0.646-2.024-0.521-2.281-0.481c0.273-0.119,1.27-0.591,1.804-1.736
									c0.367-0.786,0.338-1.509,0.302-1.845c0.129,0.317,0.424,0.909,1.045,1.398C273.939,55.913,275.137,55.823,275.422,55.794z"
									/>
								<path style="fill:#FFFFFF;" d="M266.204,58.502c-0.145,0.045-1.035,0.338-1.451,1.261c-0.29,0.643-0.188,1.235-0.141,1.446
									c-0.075-0.204-0.328-0.807-0.982-1.228c-0.758-0.488-1.53-0.394-1.724-0.364c0.206-0.09,0.96-0.447,1.364-1.312
									c0.277-0.594,0.255-1.14,0.228-1.394c0.098,0.24,0.321,0.687,0.79,1.057C265.083,58.592,265.989,58.524,266.204,58.502z"/>
							</g>
						</g>
					</g>
				</g>
			</g>
			<path style="fill:#FECA57;" d="M1495.527,310.788c-13.449,35.565-42.845,80.077-115.536,96.065
				c-69.549,15.296-127.695-6.744-217.74-4.27c-72.736,1.999-173.222,20.185-289.301,93.93c207.526,0,415.052,0,622.578,0V310.788z"
				/>
			<g>
				<g>
					<path style="fill:#F368E0;" d="M1425.285,536.846c0.512,3.573,0.339,6.776-0.573,9.509c-0.504,1.482-1.217,2.821-2.162,4.004
						c-1.66,2.068-3.914,3.576-6.708,4.504c-0.264,0.093-0.533,0.169-0.821,0.25c-16.929,4.993-51.509-8.933-84.752-35.405
						c-1.925-1.533-3.797-3.085-5.628-4.631c-20.48-17.307-35.751-35.921-43.055-51.282c-5.528-11.563-6.515-21.292-1.788-27.21
						c7.066-8.859,25.252-7.163,47.343,2.678c14.025,6.249,29.628,15.794,44.943,27.989c2.881,2.282,5.657,4.601,8.345,6.952
						C1406.001,496.471,1422.878,520.524,1425.285,536.846z"/>
					<path style="fill:#F368E0;" d="M1442.031,381.719c3.367,17.919,5.139,39.602,4.712,62.892
						c-0.828,45.702-9.835,84.808-22.02,101.72c0.006,0.018,0.006,0.018-0.011,0.024c-1.087,1.51-2.194,2.85-3.335,3.984
						l-0.011,0.024c-3.236,3.258-6.658,4.981-10.16,4.914c-15.297-0.287-27.588-34.516-30.776-81.072
						c-0.67-9.782-0.943-20.119-0.745-30.8c0.238-13.422,1.193-26.268,2.719-38.169l-0.006-0.017
						c4.182-32.461,12.675-57.752,22.885-67.781c3.168-3.115,6.521-4.754,9.94-4.697
						C1426.717,332.947,1436.509,352.33,1442.031,381.719z"/>
					<path style="fill:#F368E0;" d="M1425.278,536.828l0.006,0.018c-0.505,5.731-1.807,10.321-3.919,13.517
						c-1.251,1.885-2.794,3.279-4.629,4.125c-0.286,0.141-0.596,0.27-0.895,0.375c-0.264,0.093-0.533,0.169-0.821,0.25
						c-17.361,4.553-51.235-34.837-77.082-90.321c-4.026-8.655-7.644-17.218-10.798-25.529c-2.201-5.783-4.182-11.446-5.948-16.948
						c-9.53-29.771-12.51-54.762-7.834-67.48c1.456-3.933,3.646-6.683,6.597-8.061c13.523-6.299,39.052,18.531,62.441,58.443
						c5.646,9.604,11.172,20.101,16.357,31.252C1417.579,476.889,1427.159,515.08,1425.278,536.828z"/>
					<path style="opacity:0.2;fill:#FF9FF3;" d="M1348.791,378.499c6.343,17.954-1.096,36.944-16.626,42.431
						c-3.601,1.272-7.3,1.71-10.971,1.386c-9.53-29.771-12.51-54.762-7.834-67.48
						C1327.775,352.292,1343.006,362.126,1348.791,378.499z"/>
					<path style="opacity:0.2;fill:#FF9FF3;" d="M1442.031,381.719c-14.359,2.425-29.508-7.399-35.267-23.702
						c-2.47-6.992-2.845-14.151-1.481-20.581c3.168-3.115,6.521-4.754,9.94-4.697
						C1426.717,332.947,1436.509,352.33,1442.031,381.719z"/>
					<path style="opacity:0.2;fill:#FF9FF3;" d="M1334.043,476.583c5.257,14.88,1.045,30.477-9.401,38.495
						c-20.48-17.307-35.751-35.921-43.055-51.282c3.191-4.447,7.561-7.908,12.866-9.782
						C1309.982,448.527,1327.7,458.629,1334.043,476.583z"/>
				</g>
				<g>
					<path style="fill:#1DD1A1;" d="M1476.961,366.008l-24.748,189.76l-0.04-0.052c-0.014-0.019-0.029-0.037-0.04-0.056
						c-5.328-7.058-38.888-53.397-25.063-113.098c0.34-1.467,0.7-2.911,1.085-4.336l6.841,6.064l-5.438-10.922
						c5.412-17.439,13.822-31.505,22.224-42.299l7.84,8.337l-4.738-12.181c0.859-1.028,1.714-2.02,2.561-2.979l3.647,3.88
						l-2.155-5.541c7.479-8.192,14.225-13.662,17.918-16.497c0.019-0.014,0.037-0.029,0.052-0.04
						C1476.928,366.034,1476.943,366.022,1476.961,366.008z"/>
					<path style="fill:#1DD1A1;" d="M1504.535,464.618c-0.217,1.743-0.468,3.458-0.75,5.152
						c-8.467,50.949-45.276,80.978-51.559,85.905c-0.018,0.011-0.037,0.026-0.052,0.04c-0.019,0.014-0.037,0.026-0.052,0.04
						l24.748-189.76c0.014,0.019,0.026,0.034,0.04,0.052c0.015,0.015,0.026,0.034,0.04,0.052c1.123,1.456,2.599,3.43,4.289,5.89
						l-1.396,1.751l1.872-1.055c1.565,2.309,3.297,5.015,5.088,8.096l-3.368,4.224l4.374-2.47c0.792,1.406,1.595,2.88,2.395,4.425
						l-6.784,8.502l8.602-4.853c1.937,4.011,3.831,8.422,5.559,13.202c0.199,0.546,0.393,1.097,0.584,1.652
						c0.115,0.332,0.231,0.664,0.342,0.999c0.154,0.449,0.304,0.9,0.451,1.355c0.109,0.331,0.217,0.666,0.322,1
						c0.124,0.394,0.252,0.789,0.372,1.185c0.124,0.397,0.247,0.798,0.363,1.198c0.123,0.404,0.239,0.807,0.355,1.21
						c0.119,0.407,0.231,0.816,0.346,1.226c0.104,0.368,0.204,0.738,0.304,1.109c0.012,0.035,0.021,0.07,0.03,0.109l-5.574,5.333
						l6.296-2.512c0.333,1.353,0.644,2.722,0.938,4.117c0.089,0.427,0.179,0.853,0.265,1.283c0.089,0.433,0.173,0.87,0.254,1.309
						c0.081,0.415,0.158,0.83,0.232,1.248c0.042,0.221,0.08,0.446,0.118,0.67c0.066,0.373,0.126,0.742,0.189,1.114
						c0.014,0.073,0.028,0.145,0.035,0.22c0.074,0.442,0.145,0.883,0.212,1.327l-4.125,3.946l4.442-1.772
						c0.06,0.446,0.12,0.893,0.176,1.342c0.058,0.46,0.116,0.923,0.167,1.388c0.048,0.408,0.092,0.818,0.136,1.232
						c0.044,0.414,0.088,0.828,0.124,1.248c0.055,0.584,0.107,1.168,0.156,1.755c0.05,0.573,0.093,1.152,0.129,1.731
						c0.046,0.633,0.084,1.269,0.116,1.908c0.042,0.741,0.076,1.488,0.103,2.24c0.017,0.465,0.03,0.932,0.043,1.399
						c0.062,2.424,0.057,4.893-0.024,7.403c-0.015,0.48-0.034,0.961-0.056,1.437c-0.004,0.131-0.01,0.258-0.017,0.389
						c-0.016,0.356-0.032,0.708-0.054,1.059c-0.018,0.342-0.039,0.683-0.059,1.025c-0.021,0.345-0.043,0.689-0.067,1.034
						c-0.021,0.345-0.049,0.685-0.077,1.026c-0.016,0.224-0.035,0.451-0.054,0.671c-0.03,0.387-0.064,0.774-0.1,1.158
						s-0.073,0.767-0.113,1.149c-0.004,0.03-0.004,0.057-0.008,0.083l-6.555,3.383L1504.535,464.618z"/>
					<path style="fill:#10AC84;" d="M1505.481,445.382l-42.786,30.019l-0.063,0.046l-0.041,0.028l6.076-46.588l0.076-0.064
						l0.031-0.026l28.809-24.982c0.199,0.546,0.393,1.097,0.584,1.652c0.115,0.332,0.231,0.664,0.342,0.999
						c0.154,0.449,0.304,0.9,0.451,1.355c0.109,0.331,0.217,0.666,0.322,1c0.124,0.394,0.252,0.789,0.372,1.185
						c0.124,0.397,0.247,0.798,0.363,1.198c0.123,0.404,0.239,0.807,0.355,1.21c0.119,0.407,0.231,0.816,0.346,1.226
						c0.104,0.368,0.204,0.738,0.304,1.109c0.012,0.035,0.021,0.07,0.03,0.109l-5.574,5.333l6.296-2.512
						c0.333,1.353,0.644,2.722,0.938,4.117c0.089,0.427,0.179,0.853,0.265,1.283c0.089,0.433,0.173,0.87,0.254,1.309
						c0.081,0.415,0.158,0.83,0.232,1.248c0.042,0.221,0.08,0.446,0.118,0.67c0.066,0.373,0.126,0.742,0.189,1.114
						c0.014,0.073,0.028,0.145,0.035,0.22c0.074,0.442,0.145,0.883,0.212,1.327l-4.125,3.946l4.442-1.772
						c0.06,0.446,0.12,0.893,0.176,1.342c0.058,0.46,0.116,0.923,0.167,1.388c0.048,0.408,0.092,0.818,0.136,1.232
						c0.044,0.414,0.088,0.828,0.124,1.248c0.055,0.584,0.107,1.168,0.156,1.755c0.05,0.573,0.093,1.152,0.129,1.731
						c0.046,0.633,0.084,1.269,0.116,1.908c0.042,0.741,0.076,1.488,0.103,2.24C1505.455,444.447,1505.468,444.914,1505.481,445.382
						z"/>
					<path style="fill:#4EF9C4;" d="M1504.535,464.618c-0.217,1.743-0.468,3.458-0.75,5.152
						c-14.547,9.014-29.093,18.025-43.64,27.039c0.587-5.119,1.174-10.242,1.76-15.362l0.427-3.74
						c0.087-0.744,0.17-1.489,0.257-2.234l0.041-0.028l0.063-0.046l42.786-30.019c0.062,2.424,0.057,4.893-0.024,7.403
						c-0.015,0.48-0.034,0.961-0.056,1.437c-0.004,0.131-0.01,0.258-0.017,0.389c-0.016,0.356-0.032,0.708-0.054,1.059
						c-0.018,0.342-0.039,0.683-0.059,1.025c-0.021,0.345-0.043,0.689-0.067,1.034c-0.021,0.345-0.049,0.685-0.077,1.026
						c-0.016,0.224-0.031,0.448-0.054,0.671c-0.03,0.387-0.064,0.774-0.1,1.158s-0.073,0.767-0.113,1.149
						c-0.004,0.03-0.004,0.057-0.008,0.083l-6.555,3.383L1504.535,464.618z"/>
					
						<line style="fill:none;stroke:#222F3E;stroke-width:0.3346;stroke-miterlimit:10;" x1="1474.289" y1="386.487" x2="1455.187" y2="532.243"/>
				</g>
				<g>
					<path style="fill:#1DD1A1;" d="M1445.025,567.699l-0.056-0.018c-0.019-0.018-0.038-0.018-0.057-0.036
						c-8.372-3.195-62.026-24.946-82.188-83.579c-0.493-1.444-0.968-2.87-1.386-4.297l9.123,1.522l-10.54-6.452
						c-1.506-5.711-2.563-11.3-3.244-16.71c-1.047-8.012-1.285-15.629-0.991-22.679c0.109-3.058,0.333-6.007,0.615-8.826l11.2,2.955
						l-10.605-7.923c0.198-1.345,0.397-2.654,0.615-3.925l5.207,1.373l-4.821-3.598c2.026-11.033,4.868-19.361,6.517-23.772
						c0.018-0.019,0.018-0.038,0.017-0.056c0.018-0.019,0.018-0.038,0.036-0.057l23.877,52.19l12.561,27.453L1445.025,567.699z"/>
					<path style="fill:#4EF9C4;" d="M1400.907,471.264l-44.229-13.134c-1.047-8.012-1.285-15.629-0.991-22.679l32.659,8.361
						L1400.907,471.264z"/>
					<path style="fill:#1DD1A1;" d="M1441.023,461.428c0.749,1.612,1.454,3.218,2.121,4.823
						c20.069,48.256,4.598,93.767,1.849,101.365c-0.01,0.019-0.018,0.042-0.023,0.063c-0.008,0.022-0.018,0.042-0.023,0.063
						l-80.569-176.087c0.022,0.008,0.04,0.015,0.063,0.023c0.021,0.005,0.04,0.015,0.063,0.023c1.744,0.647,4.07,1.548,6.84,2.753
						l-0.258,2.251l1.04-1.909c2.581,1.142,5.519,2.534,8.709,4.217l-0.624,5.431l2.428-4.465c1.433,0.781,2.914,1.616,4.429,2.512
						l-1.259,10.934l4.777-8.779c3.813,2.403,7.805,5.17,11.852,8.345c0.463,0.361,0.926,0.73,1.387,1.104
						c0.277,0.223,0.554,0.446,0.83,0.674c0.373,0.302,0.744,0.609,1.114,0.92c0.271,0.226,0.543,0.455,0.813,0.686
						c0.318,0.272,0.639,0.542,0.955,0.818c0.319,0.275,0.64,0.552,0.954,0.833c0.322,0.281,0.638,0.564,0.954,0.848
						c0.32,0.285,0.636,0.576,0.955,0.866c0.286,0.26,0.571,0.524,0.856,0.789c0.03,0.024,0.056,0.049,0.084,0.077l-1.922,7.566
						l4.054-5.533c1.011,0.982,2.013,1.99,3.013,3.029c0.306,0.318,0.611,0.636,0.915,0.959c0.308,0.324,0.615,0.653,0.92,0.986
						c0.292,0.313,0.581,0.628,0.869,0.947c0.155,0.167,0.308,0.339,0.461,0.511c0.257,0.284,0.506,0.569,0.76,0.855
						c0.051,0.055,0.102,0.11,0.149,0.17c0.3,0.339,0.598,0.68,0.893,1.025l-1.422,5.598l2.86-3.904
						c0.291,0.351,0.582,0.702,0.871,1.057c0.297,0.363,0.594,0.73,0.888,1.102c0.26,0.324,0.518,0.653,0.778,0.984
						c0.26,0.332,0.519,0.663,0.776,1.004c0.361,0.471,0.719,0.944,1.075,1.422c0.351,0.465,0.698,0.939,1.039,1.416
						c0.379,0.519,0.753,1.044,1.123,1.575c0.433,0.613,0.863,1.236,1.29,1.867c0.264,0.389,0.526,0.783,0.788,1.177
						c1.353,2.047,2.674,4.168,3.951,6.364c0.245,0.421,0.486,0.842,0.723,1.263c0.067,0.115,0.13,0.227,0.194,0.343
						c0.177,0.314,0.353,0.624,0.522,0.938c0.168,0.303,0.333,0.607,0.499,0.911c0.167,0.307,0.333,0.614,0.497,0.923
						c0.167,0.307,0.326,0.614,0.485,0.921c0.107,0.201,0.212,0.406,0.314,0.605c0.182,0.349,0.361,0.699,0.535,1.047
						c0.174,0.348,0.349,0.697,0.52,1.047c0.013,0.028,0.027,0.051,0.038,0.076l-3.809,6.419L1441.023,461.428z"/>
					<path style="fill:#10AC84;" d="M1431.515,444.416l-20.606,48.71l-0.03,0.073l-0.02,0.046l-19.781-43.231l0.031-0.096
						l0.012-0.039l11.315-36.89c0.463,0.361,0.926,0.73,1.387,1.104c0.277,0.223,0.554,0.446,0.83,0.674
						c0.373,0.302,0.744,0.609,1.114,0.92c0.271,0.226,0.543,0.455,0.813,0.686c0.318,0.272,0.639,0.542,0.955,0.818
						c0.319,0.275,0.64,0.552,0.954,0.833c0.322,0.281,0.638,0.564,0.954,0.848c0.32,0.285,0.636,0.576,0.955,0.866
						c0.286,0.26,0.571,0.524,0.856,0.789c0.03,0.024,0.056,0.049,0.084,0.077l-1.922,7.566l4.054-5.533
						c1.011,0.982,2.013,1.99,3.013,3.029c0.306,0.318,0.611,0.636,0.915,0.959c0.308,0.324,0.615,0.653,0.92,0.986
						c0.292,0.313,0.581,0.628,0.869,0.947c0.155,0.167,0.308,0.339,0.461,0.511c0.257,0.284,0.506,0.569,0.76,0.855
						c0.051,0.055,0.102,0.11,0.149,0.17c0.3,0.339,0.598,0.68,0.893,1.025l-1.422,5.598l2.86-3.904
						c0.291,0.351,0.582,0.702,0.871,1.057c0.297,0.363,0.594,0.73,0.888,1.102c0.26,0.324,0.518,0.653,0.778,0.984
						c0.26,0.332,0.519,0.663,0.776,1.004c0.361,0.471,0.719,0.944,1.075,1.422c0.351,0.465,0.698,0.939,1.039,1.416
						c0.379,0.519,0.753,1.044,1.123,1.575c0.433,0.613,0.863,1.236,1.29,1.867C1430.991,443.628,1431.253,444.022,1431.515,444.416
						z"/>
					<path style="fill:#4EF9C4;" d="M1441.023,461.428c0.749,1.612,1.454,3.218,2.121,4.823
						c-7.645,15.538-15.291,31.073-22.936,46.611c-2.243-4.707-4.488-9.417-6.731-14.124l-1.64-3.438
						c-0.325-0.685-0.653-1.369-0.977-2.055l0.02-0.046l0.03-0.073l20.606-48.71c1.353,2.047,2.674,4.168,3.951,6.364
						c0.245,0.421,0.486,0.842,0.723,1.263c0.067,0.115,0.13,0.227,0.194,0.343c0.177,0.314,0.353,0.624,0.522,0.938
						c0.168,0.303,0.333,0.607,0.499,0.911c0.167,0.307,0.333,0.614,0.497,0.923c0.167,0.307,0.326,0.614,0.485,0.921
						c0.107,0.201,0.213,0.401,0.314,0.605c0.182,0.349,0.361,0.699,0.535,1.047c0.174,0.348,0.349,0.697,0.52,1.047
						c0.013,0.028,0.027,0.051,0.038,0.076l-3.809,6.419L1441.023,461.428z"/>
					
						<line style="fill:none;stroke:#222F3E;stroke-width:0.3385;stroke-miterlimit:10;" x1="1373.157" y1="410.62" x2="1434.963" y2="545.924"/>
				</g>
				<g>
					<g>
						<path style="fill:none;stroke:#341F97;stroke-width:0.9514;stroke-miterlimit:10;" d="M1492.078,597.25
							c-26.356-22.222-33.378-42.045-35.168-55.562c-2.905-21.938,7.099-33.862,7.959-62.041
							c0.769-25.194-6.312-45.672-11.871-58.282"/>
						<path style="fill:#341F97;" d="M1448.077,382.454c-5.724-3.578-11.76-1.516-14.097,4.817
							c-0.648,1.755-0.807,3.208-0.861,3.869c-0.825,10.102,7.462,24.931,21.218,32.671c6.143-14.54,3.623-31.339-3.211-38.824
							C1450.678,384.498,1449.663,383.446,1448.077,382.454z"/>
						<path style="fill:#341F97;" d="M1463.213,456.628c-6.708,0.693-13.352-0.262-19.157-2.246
							c-7.779-2.649-14.062-7.195-17.032-12.191c-0.326-0.574-1.033-1.854-1.524-3.651c-1.73-6.467,1.926-11.588,8.546-12.055
							c0.066-0.014,0.132-0.002,0.197-0.017c1.869-0.111,3.297,0.155,3.945,0.316
							C1448.094,428.949,1459.844,441.216,1463.213,456.628z"/>
						<path style="fill:#341F97;" d="M1428.122,493.909c-6.74,0.38-10.479,5.547-8.735,12.068c0.484,1.807,1.192,3.086,1.529,3.657
							c5.155,8.727,20.479,16.057,36.181,14.442c-3.372-15.42-15.123-27.687-25.024-29.857
							C1431.425,494.076,1429.989,493.803,1428.122,493.909z"/>
						<path style="fill:#341F97;" d="M1427.801,537.751c-6.508,1.795-9.071,7.635-5.989,13.641c0.854,1.664,1.816,2.764,2.267,3.251
							c6.882,7.441,23.408,11.37,38.415,6.475c-6.553-14.36-20.629-23.868-30.765-23.898
							C1431.065,537.218,1429.604,537.254,1427.801,537.751z"/>
						<path style="fill:#341F97;" d="M1440.442,467.644c-5.503,0.31-8.556,4.529-7.131,9.853c0.395,1.475,0.973,2.519,1.248,2.986
							c4.209,7.125,16.72,13.109,29.539,11.791c-2.753-12.589-12.347-22.604-20.43-24.376
							C1443.139,467.781,1441.967,467.558,1440.442,467.644z"/>
						<path style="fill:#341F97;" d="M1443.836,579.208c-4.117,3.664-3.885,8.866,0.541,12.151c1.226,0.91,2.328,1.368,2.834,1.562
							c7.726,2.964,21.246-0.128,30.466-9.131c-9.984-8.149-23.724-10.027-31.157-6.389
							C1446.033,577.638,1444.976,578.192,1443.836,579.208z"/>
						<path style="fill:#341F97;" d="M1469.864,417.353c4.22-1.357,7.731,0.927,8.2,5.335c0.13,1.222-0.002,2.172-0.074,2.602
							c-1.1,6.565-8.762,14.672-18.765,17.388c-1.572-10.246,2.735-20.536,8.291-24.202
							C1467.879,418.236,1468.694,417.729,1469.864,417.353z"/>
						<path style="fill:#341F97;" d="M1488.524,487.181c5.336,1.38,7.506,6.113,5.069,11.056c-0.675,1.37-1.446,2.281-1.808,2.684
							c-5.52,6.165-18.959,9.59-31.273,5.792c5.16-11.809,16.526-19.756,24.799-19.914
							C1485.852,486.788,1487.045,486.798,1488.524,487.181z"/>
						<path style="fill:#341F97;" d="M1479.326,517.819c5.511-0.039,8.825,3.978,7.741,9.381c-0.3,1.497-0.811,2.576-1.057,3.059
							c-3.749,7.377-15.856,14.142-28.733,13.638c1.95-12.739,10.891-23.341,18.845-25.621
							C1476.643,518.127,1477.799,517.83,1479.326,517.819z"/>
						<path style="fill:#341F97;" d="M1486.378,443.655c6.643-1.202,11.484,2.95,11.308,9.698c-0.049,1.87-0.439,3.278-0.634,3.913
							c-2.977,9.689-16.169,20.391-31.814,22.482c-0.318-15.782,8.248-30.45,17.37-34.87
							C1483.205,444.589,1484.538,443.989,1486.378,443.655z"/>
						<path style="fill:#341F97;" d="M1493.426,540.787c6.643-1.202,11.484,2.95,11.308,9.698c-0.049,1.87-0.439,3.279-0.634,3.913
							c-2.977,9.689-16.169,20.391-31.814,22.483c-0.318-15.782,8.248-30.451,17.37-34.87
							C1490.252,541.721,1491.585,541.12,1493.426,540.787z"/>
					</g>
					<path style="fill:#F368E0;" d="M1424.198,397.267c1.11,1.073,1.14,2.842,0.067,3.952c-1.073,1.11-2.842,1.139-3.952,0.067
						c-1.11-1.073-1.14-2.842-0.067-3.952C1421.319,396.224,1423.089,396.194,1424.198,397.267z"/>
					<path style="fill:#FF9FF3;" d="M1484.97,406.784c1.11,1.073,1.139,2.842,0.067,3.952c-1.073,1.11-2.842,1.139-3.952,0.067
						c-1.11-1.073-1.139-2.842-0.067-3.952C1482.092,405.741,1483.861,405.711,1484.97,406.784z"/>
					<path style="fill:#FF9FF3;" d="M1435.758,457.684c1.11,1.073,1.14,2.842,0.067,3.952c-1.073,1.11-2.842,1.139-3.952,0.067
						c-1.11-1.073-1.139-2.842-0.067-3.952C1432.879,456.641,1434.648,456.611,1435.758,457.684z"/>
					<path style="fill:#F368E0;" d="M1427.273,462.438c0.74,0.715,0.76,1.895,0.044,2.635c-0.715,0.74-1.895,0.76-2.635,0.044
						s-0.76-1.895-0.044-2.634C1425.354,461.743,1426.533,461.723,1427.273,462.438z"/>
					<path style="fill:#F368E0;" d="M1504.704,444.004c0.74,0.715,0.76,1.895,0.044,2.634c-0.715,0.74-1.895,0.76-2.634,0.044
						c-0.74-0.715-0.76-1.895-0.044-2.634C1502.784,443.309,1503.964,443.289,1504.704,444.004z"/>
					<path style="fill:#F368E0;" d="M1493.492,482.405c0.74,0.715,0.76,1.895,0.045,2.635c-0.715,0.74-1.895,0.76-2.635,0.044
						c-0.74-0.715-0.76-1.895-0.044-2.635C1491.573,481.709,1492.752,481.689,1493.492,482.405z"/>
					<path style="fill:#FF9FF3;" d="M1444.28,533.305c0.74,0.715,0.76,1.895,0.044,2.635c-0.715,0.74-1.895,0.76-2.634,0.044
						c-0.74-0.715-0.76-1.895-0.044-2.635C1442.36,532.609,1443.54,532.589,1444.28,533.305z"/>
					<path style="fill:#FF9FF3;" d="M1427.369,389.966c0.74,0.715,0.76,1.895,0.045,2.634c-0.715,0.74-1.895,0.76-2.635,0.044
						c-0.74-0.715-0.76-1.895-0.044-2.634C1425.45,389.271,1426.63,389.251,1427.369,389.966z"/>
					<path style="fill:#FF9FF3;" d="M1443.709,421.314c0.74,0.715,0.76,1.895,0.044,2.635c-0.715,0.74-1.895,0.76-2.635,0.044
						c-0.74-0.715-0.76-1.895-0.044-2.634C1441.79,420.619,1442.97,420.599,1443.709,421.314z"/>
					<path style="fill:#F368E0;" d="M1452.109,372.42c0.74,0.715,0.76,1.895,0.044,2.635c-0.715,0.74-1.895,0.76-2.635,0.044
						c-0.74-0.715-0.76-1.895-0.044-2.634C1450.19,371.724,1451.369,371.705,1452.109,372.42z"/>
					<path style="fill:#F368E0;" d="M1421.597,516.558c0.74,0.715,0.76,1.895,0.044,2.635c-0.715,0.74-1.895,0.76-2.635,0.044
						c-0.74-0.715-0.76-1.895-0.044-2.635C1419.678,515.862,1420.858,515.842,1421.597,516.558z"/>
					<path style="fill:#FF9FF3;" d="M1491.568,524.602c0.74,0.715,0.76,1.895,0.044,2.635c-0.715,0.74-1.895,0.76-2.635,0.044
						c-0.74-0.715-0.76-1.895-0.044-2.635C1489.649,523.906,1490.828,523.886,1491.568,524.602z"/>
					<path style="fill:#FF9FF3;" d="M1467.68,514.463c0.74,0.715,0.76,1.895,0.044,2.635c-0.715,0.74-1.895,0.76-2.635,0.044
						c-0.74-0.715-0.76-1.895-0.044-2.635S1466.94,513.748,1467.68,514.463z"/>
				</g>
				<g>
					
						<line style="fill:none;stroke:#222F3E;stroke-width:0.9509;stroke-miterlimit:10;" x1="1397.443" y1="553.337" x2="1357.15" y2="441.808"/>
					<path style="fill:none;stroke:#222F3E;stroke-width:0.9509;stroke-miterlimit:10;" d="M1379.235,502.938
						c-0.239-5.099,0.109-13.463,4.144-22.506c8.525-19.107,26.729-26.051,30.694-27.459"/>
					<path style="fill:none;stroke:#222F3E;stroke-width:0.8853;stroke-miterlimit:10;" d="M1394.097,544.076
						c-0.457-2.937-1.587-12.625,4.144-22.506c4.429-7.638,10.68-11.463,13.513-12.97"/>
					<path style="fill:none;stroke:#222F3E;stroke-width:0.9509;stroke-miterlimit:10;" d="M1368.399,472.964
						c-0.437-2.336-1.151-7.888,1.26-14.269c2.455-6.499,6.778-10.224,8.659-11.67"/>
					<path style="fill:none;stroke:#222F3E;stroke-width:0.9509;stroke-miterlimit:10;" d="M1383.903,479.637
						c-0.438-2.336-1.156-7.888,1.251-14.27c2.451-6.5,6.771-10.228,8.652-11.676"/>
					<path style="fill:none;stroke:#222F3E;stroke-width:0.9509;stroke-miterlimit:10;" d="M1384.924,518.293
						c-0.041-2.376,0.181-7.97,3.622-13.859c3.504-5.998,8.388-8.95,10.484-10.063"/>
					<path style="fill:none;stroke:#222F3E;stroke-width:0.9509;stroke-miterlimit:10;" d="M1329.266,476.253
						c1.942-1.366,10.477-7.045,22.287-5.554c11.439,1.444,18.19,8.635,19.818,10.473"/>
					<path style="fill:none;stroke:#222F3E;stroke-width:0.9509;stroke-miterlimit:10;" d="M1336.935,454.109
						c2.505,0.216,5.718,0.827,9.118,2.418c9.921,4.643,13.82,14.073,14.837,16.802"/>
					<path style="fill:none;stroke:#222F3E;stroke-width:0.9509;stroke-miterlimit:10;" d="M1358.97,518.164
						c2.42-0.683,5.641-1.248,9.384-0.961c10.922,0.836,17.902,8.28,19.818,10.473"/>
					<path style="fill:none;stroke:#222F3E;stroke-width:0.9509;stroke-miterlimit:10;" d="M1345.19,497.894
						c3.027-0.855,7.055-1.561,11.735-1.202c13.659,1.046,22.388,10.354,24.785,13.097"/>
				</g>
				<g>
					<path style="fill:#F368E0;" d="M1347.934,430.964c0.096-1.24-0.831-2.323-2.071-2.419c-1.24-0.096-2.323,0.831-2.419,2.071
						c-0.096,1.24,0.831,2.323,2.071,2.419S1347.838,432.204,1347.934,430.964z"/>
					<path style="fill:#F368E0;" d="M1353.686,425.057c0.148-1.908-1.279-3.575-3.187-3.723c-1.908-0.148-3.575,1.279-3.723,3.187
						c-0.148,1.908,1.279,3.575,3.187,3.723C1351.871,428.392,1353.538,426.965,1353.686,425.057z"/>
					<path style="fill:#F368E0;" d="M1381.794,432.609c0.513,1.419-0.222,2.985-1.641,3.497c-1.419,0.513-2.985-0.222-3.497-1.641
						c-0.513-1.419,0.222-2.985,1.641-3.497C1379.716,430.456,1381.281,431.19,1381.794,432.609z"/>
					<path style="fill:#F368E0;" d="M1381.634,468.129c0.347,0.962-0.151,2.023-1.112,2.371c-0.962,0.347-2.023-0.151-2.371-1.112
						c-0.348-0.962,0.151-2.023,1.112-2.371C1380.225,466.669,1381.286,467.167,1381.634,468.129z"/>
					<path style="fill:#F368E0;" d="M1388.615,470.662c0.348,0.962-0.151,2.023-1.112,2.371c-0.962,0.348-2.023-0.151-2.371-1.112
						c-0.348-0.962,0.151-2.023,1.112-2.371C1387.206,469.202,1388.268,469.7,1388.615,470.662z"/>
					<path style="fill:#F368E0;" d="M1342.14,512.728c0.347,0.962-0.151,2.023-1.112,2.371c-0.962,0.347-2.023-0.151-2.371-1.112
						c-0.348-0.962,0.151-2.023,1.112-2.371S1341.792,511.766,1342.14,512.728z"/>
					<path style="fill:#F368E0;" d="M1339.298,445.253c0.201,0.555-0.087,1.168-0.642,1.368c-0.555,0.201-1.168-0.087-1.368-0.642
						c-0.2-0.555,0.087-1.168,0.642-1.368C1338.485,444.41,1339.098,444.697,1339.298,445.253z"/>
					<path style="fill:#F368E0;" d="M1330.732,461.563c0.283,0.783-0.122,1.646-0.905,1.929c-0.783,0.283-1.646-0.122-1.929-0.905
						s0.122-1.646,0.905-1.929C1329.586,460.375,1330.449,460.78,1330.732,461.563z"/>
					<path style="fill:#F368E0;" d="M1412.151,482.86c0.513,1.419-0.222,2.985-1.641,3.497c-1.419,0.513-2.985-0.222-3.497-1.641
						c-0.513-1.419,0.222-2.985,1.641-3.497C1410.072,480.707,1411.638,481.441,1412.151,482.86z"/>
					<path style="fill:#F368E0;" d="M1328.59,485.576c0.513,1.419-0.222,2.985-1.641,3.497c-1.419,0.513-2.985-0.222-3.497-1.641
						c-0.513-1.419,0.222-2.985,1.641-3.497C1326.512,483.422,1328.078,484.157,1328.59,485.576z"/>
				</g>
				<path style="fill:#EE5253;" d="M1382.246,443.448c0.72,1.502,0.546,3.354-0.598,4.725c-1.565,1.876-4.351,2.128-6.227,0.562
					c-1.711-1.42-2.064-3.864-0.929-5.707c0.113-0.174,0.237-0.345,0.371-0.513c1.565-1.876,4.351-2.128,6.223-0.569
					C1381.59,442.368,1381.981,442.882,1382.246,443.448z"/>
				<path style="fill:#EE5253;" d="M1399.632,450.067c0.858,1.787,0.652,3.99-0.708,5.623c-1.861,2.233-5.176,2.535-7.409,0.674
					c-2.037-1.688-2.458-4.596-1.11-6.79c0.134-0.207,0.281-0.41,0.441-0.61c1.861-2.233,5.176-2.535,7.404-0.682
					C1398.851,448.783,1399.316,449.394,1399.632,450.067z"/>
				<path style="fill:#EE5253;" d="M1405.575,492.927c0.081,1.568-0.535,3.165-1.833,4.272c-2.209,1.89-5.527,1.633-7.417-0.576
					c-1.887-2.2-1.63-5.518,0.579-7.408c0.133-0.109,0.265-0.217,0.401-0.317c2.197-1.532,5.234-1.183,7.012,0.884
					C1405.105,490.701,1405.514,491.807,1405.575,492.927z"/>
				<path style="fill:#EE5253;" d="M1347.96,491.621c1.771,4.901-0.766,10.306-5.666,12.077c-4.892,1.767-10.297-0.769-12.068-5.67
					c-0.078-0.215-0.143-0.424-0.199-0.636c-1.348-4.71,1.183-9.739,5.86-11.429c2.128-0.769,4.358-0.725,6.34-0.026
					C1344.8,486.848,1346.962,488.857,1347.96,491.621z"/>
				<path style="fill:#EE5253;" d="M1425.776,449.971c0,0,0,0-0.009,0.003c-0.346,2.511-1.571,4.915-3.656,6.7
					c-4.518,3.866-11.328,3.345-15.198-1.182c-3.87-4.527-3.345-11.328,1.182-15.198c0.904-0.772,1.891-1.371,2.939-1.8
					c4.178-1.701,9.161-0.641,12.256,2.973C1425.375,443.909,1426.186,447.023,1425.776,449.971z"/>
				<path style="fill:#EE5253;" d="M1422.596,514.602c-4.518,3.867-11.328,3.345-15.198-1.182c-3.2-3.737-3.396-9.035-0.81-12.932
					c0.539-0.832,1.202-1.597,1.992-2.267c4.514-3.875,11.328-3.345,15.195,1.173c0.554,0.639,1.008,1.334,1.378,2.05
					C1427.412,505.795,1426.477,511.268,1422.596,514.602z"/>
				<path style="fill:#EE5253;" d="M1366.637,437.142c2.023,5.598-0.87,11.78-6.478,13.805c-3.953,1.428-8.195,0.403-11.054-2.305
					c-1.192-1.116-2.148-2.53-2.742-4.176c-2.022-5.598,0.87-11.78,6.469-13.802c0.429-0.155,0.868-0.283,1.308-0.382
					C1359.365,429.103,1364.769,431.973,1366.637,437.142z"/>
				<path style="fill:#EE5253;" d="M1335.515,470.668c1.415,3.917-0.613,8.239-4.53,9.654c-3.854,1.392-8.105-0.55-9.589-4.351
					l-0.065-0.179c-1.415-3.917,0.613-8.239,4.53-9.654c0.948-0.343,1.928-0.484,2.883-0.445
					C1331.709,465.815,1334.442,467.699,1335.515,470.668z"/>
				<path style="fill:#EE5253;" d="M1338.084,452c1.083,2.996-0.469,6.302-3.465,7.384c-2.948,1.065-6.2-0.421-7.335-3.328
					l-0.049-0.137c-1.083-2.996,0.469-6.302,3.465-7.384c0.725-0.262,1.475-0.37,2.205-0.34
					C1335.173,448.288,1337.264,449.729,1338.084,452z"/>
				<path style="fill:#EE5253;" d="M1361.187,513.149c1.415,3.917-0.613,8.239-4.53,9.654c-2.701,0.976-5.587,0.32-7.586-1.465
					c-0.898-0.808-1.628-1.848-2.068-3.065c-1.412-3.908,0.601-8.215,4.503-9.644l0.027-0.01
					C1355.45,507.204,1359.772,509.232,1361.187,513.149z"/>
			</g>
		</g>
	</g>
</g>
<g id="TEXTS">
	<text transform="matrix(1 0 0 1 759.0396 217.7245)"><tspan x="0" y="0" style="fill:#222F3E; font-family:'Roboto-Light'; font-size:65.0887px;">TIME TO </tspan><tspan x="264.105" y="0" style="fill:#222F3E; font-family:'Roboto-Black'; font-size:65.0887px;">DISCOVER</tspan></text>
	<text transform="matrix(1 0 0 1 813.313 275.8885)"><tspan x="0" y="0" style="fill:#222F3E; font-family:'Roboto-Light'; font-size:16.2722px;">Lorem ipsum dolor sit amet, consectetur adipiscing elit, sed do</tspan><tspan x="-1.843" y="19.526" style="fill:#222F3E; font-family:'Roboto-Light'; font-size:16.2722px;">eiusmod tempor incididunt ut labore et dolore magna aliqua. Ut</tspan><tspan x="-6.742" y="39.054" style="fill:#222F3E; font-family:'Roboto-Light'; font-size:16.2722px;">enim ad minim veniam, quis nostrud exercitation ullamco laboris</tspan><tspan x="72.594" y="58.58" style="fill:#222F3E; font-family:'Roboto-Light'; font-size:16.2722px;">nisi ut aliquip ex ea commodo consequat. </tspan></text>
</g>
</svg>
