<?xml version="1.0" encoding="utf-8"?>
<!-- Generator: Adobe Illustrator 27.5.0, SVG Export Plug-In . SVG Version: 6.00 Build 0)  -->
<svg version="1.1" xmlns="http://www.w3.org/2000/svg" xmlns:xlink="http://www.w3.org/1999/xlink" x="0px" y="0px"
	 viewBox="0 0 750 500" style="enable-background:new 0 0 750 500;" xml:space="preserve">
<g id="BACKGROUND_2">
</g>
<g id="OBJECTS">
	<g>
		<path style="fill:#D6E7FE;" d="M435.873,331.99c-8.07,10.38-23.07,11.18-35.9,14.09c-12.84,2.92-27.25,13.21-23.88,25.93
			c1.04,3.92,3.7,7.28,4.69,11.22c2.6,10.41-7.23,19.88-17.14,23.95c-9.92,4.06-21.29,5.66-29.23,12.86
			c-19.16,17.37-5.76,53.9-24.61,71.63c-3.16,2.97-8.64,6.06-14.92,8.83h-104.74c-19.66-3.9-38.9-10.58-58.92-11
			c-19.67-0.41-38.7,5.25-57.65,11H0.003V0h181.33c25.7,22.78,43.1,54.28,52.24,87.47c5.54,20.15,8.92,42.34,23.56,57.25
			c13.04,13.26,32.22,17.83,49.86,23.72c17.65,5.91,36.31,15.37,42.75,32.82c5.14,13.95,1.22,30.13,7.01,43.82
			c5.73,13.53,19.6,21.61,33.15,27.27c13.55,5.66,28.12,10.16,38.87,20.17C439.523,302.52,444.883,320.39,435.873,331.99z"/>
	</g>
	<g>
		<path style="fill:#D6E7FE;" d="M750.553,407.97v92.53h-157.69c10.27-19.71,30-34.73,52.19-37.43c15.5-1.89,32.75,1.21,45.56-7.73
			c13.37-9.32,16.66-28.49,29.54-38.49C728.643,410.25,739.623,408.83,750.553,407.97z"/>
	</g>
	<g>
		<path style="fill:#D6E7FE;" d="M750.553,0v64.92c-26.4-1.54-53.75-2.46-77.03-14.85c-16.34-8.7-29.64-22.6-46.55-30.13
			c-22.86-10.19-49.05-7.52-74.03-8.99c-19.05-1.12-37.93-4.86-56.01-10.95H750.553z"/>
	</g>
	<g>
		<g>
			
				<text transform="matrix(1 0 0 1 450.75 37.2598)" style="font-family:'Montserrat-Regular'; font-size:6.013px; letter-spacing:1;">HOME</text>
		</g>
		<g>
			
				<text transform="matrix(1 0 0 1 518.1602 37.2598)" style="font-family:'Montserrat-Regular'; font-size:6.013px; letter-spacing:1;">ABOUT US</text>
		</g>
		<g>
			
				<text transform="matrix(1 0 0 1 600.7051 37.2598)" style="font-family:'Montserrat-Regular'; font-size:6.013px; letter-spacing:1;">CONTACT</text>
		</g>
		<g>
			<g>
				<g>
					<g>
						
							<text transform="matrix(1 0 0 1 678.6963 37.2598)" style="font-family:'Montserrat-Regular'; font-size:6.013px; letter-spacing:1;">LOGIN</text>
					</g>
				</g>
			</g>
		</g>
	</g>
	<text transform="matrix(1 0 0 1 33.8404 43.5063)"><tspan x="0" y="0" style="font-family:'Montserrat-Bold'; font-size:13.2036px; letter-spacing:1;">COMPANY</tspan><tspan x="82.046" y="0" style="font-family:'Montserrat-Light'; font-size:13.2036px; letter-spacing:1;">NAME</tspan></text>
	<g>
		<path style="fill:#D6E7FE;" d="M246.447,78.035c6.469,6.003,11.082,13.977,13.063,22.576c1.735,7.533,1.547,15.646,5.046,22.539
			c5.039,9.926,16.271,14.763,26.632,18.834c4.43,1.741,8.935,3.5,13.676,3.92c4.741,0.42,9.836-0.679,13.253-3.992
			c6.582-6.383,3.724-18.525-3.798-23.769c-6.378-4.446-15.405-5.522-19.634-12.046c-3.567-5.504-2.263-12.812-4.316-19.041
			c-3.159-9.585-13.328-14.688-22.55-18.787c-4.672-2.077-9.826-4.196-14.749-2.815c-4.923,1.381-8.355,8.147-4.767,11.789"/>
	</g>
	<g>
		<path style="fill:#D6E7FE;" d="M395.717,376.818c-4.737-5.66-0.561-15.025,6.118-18.167c6.679-3.142,14.493-1.961,21.769-0.714
			c2.76,0.473,5.595,0.973,7.985,2.432c2.39,1.459,4.264,4.121,3.95,6.903c-9.509-0.801-20.566-1.011-26.804,6.211
			c-1.461,1.692-2.547,3.703-4.165,5.246c-1.617,1.543-4.049,2.564-6.099,1.673c-2.05-0.892-2.703-4.289-0.723-5.329"/>
	</g>
	<g>
		<g>
			<path style="fill:#3A5DEC;" d="M691.876,299h-60.123c-3.935,0-7.124-3.19-7.124-7.124v-3.496c0-3.935,3.19-7.124,7.124-7.124
				h60.123c3.935,0,7.124,3.19,7.124,7.124v3.496C699,295.81,695.81,299,691.876,299z"/>
			
				<text transform="matrix(1 0 0 1 638.5244 292.0518)" style="fill:#FFFFFF; font-family:'Montserrat-Regular'; font-size:5.361px; letter-spacing:1;">GET STARTED</text>
		</g>
		<text transform="matrix(1 0 0 1 581.8643 223.7388)"><tspan x="0" y="0" style="fill:#020202; font-family:'Montserrat-Bold'; font-size:51.2667px;">APP</tspan><tspan x="-65.426" y="31.774" style="fill:#020202; font-family:'Montserrat-Light'; font-size:23.8304px; letter-spacing:1;">Development</tspan></text>
		<rect x="551" y="324" style="fill:none;" width="148" height="42"/>
		<text transform="matrix(1 0 0 1 581.2578 328.0811)"><tspan x="0" y="0" style="fill:#A6A6A6; font-family:'Montserrat-Regular'; font-size:5.5px;">Lorem ipsum dolor sit amet, consectetuer </tspan><tspan x="-21.62" y="9" style="fill:#A6A6A6; font-family:'Montserrat-Regular'; font-size:5.5px;">adipiscing elit, sed diam nonummy nibh euismod </tspan><tspan x="-15.142" y="18" style="fill:#A6A6A6; font-family:'Montserrat-Regular'; font-size:5.5px;">tincidunt ut laoreet dolore magna aliquam erat </tspan><tspan x="-9.234" y="27" style="fill:#A6A6A6; font-family:'Montserrat-Regular'; font-size:5.5px;">volutpat. Ut wisi enim ad umsan et iusto odio </tspan><tspan x="96.314" y="36" style="fill:#A6A6A6; font-family:'Montserrat-Regular'; font-size:5.5px;">dignissi </tspan></text>
	</g>
	<g>
		<g>
			<defs>
				<path id="SVGID_1_" d="M280.965,318.811c4.925-14.685,18.162-24.935,31.63-32.584c13.469-7.649,28.095-13.8,39.361-24.429
					c9.198-8.678,15.737-20.138,18.527-32.472c2.386-10.548,1.151-23.437-7.828-29.463c-5.477-3.676-12.76-3.867-19.026-1.807
					c-6.267,2.059-11.676,6.12-16.601,10.508c-29.55,26.332-44.485,64.917-58.397,101.971c-1.115,2.969-2.249,6.087-1.847,9.233
					c0.402,3.146,2.891,6.271,6.062,6.225c3.172-0.046,5.5-4.63,3.066-6.665"/>
			</defs>
			<clipPath id="SVGID_00000082367915334179517490000012064239245760777919_">
				<use xlink:href="#SVGID_1_"  style="overflow:visible;"/>
			</clipPath>
			<g style="clip-path:url(#SVGID_00000082367915334179517490000012064239245760777919_);">
				<path style="fill:#788FEC;" d="M280.965,318.811c4.925-14.685,18.162-24.935,31.63-32.584
					c13.469-7.649,28.095-13.8,39.361-24.429c9.198-8.678,15.737-20.138,18.527-32.472c2.386-10.548,1.151-23.437-7.828-29.463
					c-5.477-3.676-12.76-3.867-19.026-1.807c-6.267,2.059-11.676,6.12-16.601,10.508c-29.55,26.332-44.485,64.917-58.397,101.971
					c-1.115,2.969-2.249,6.087-1.847,9.233c0.402,3.146,2.891,6.271,6.062,6.225c3.172-0.046,5.5-4.63,3.066-6.665"/>
			</g>
			
				<path style="clip-path:url(#SVGID_00000082367915334179517490000012064239245760777919_);fill:none;stroke:#FFFFFF;stroke-width:0.5;stroke-miterlimit:10;" d="
				M374.628,194.127c0,0-56.138,35.512-109.554,143.215"/>
			
				<path style="clip-path:url(#SVGID_00000082367915334179517490000012064239245760777919_);fill:none;stroke:#FFFFFF;stroke-width:0.5;stroke-miterlimit:10;" d="
				M343.564,221.15c0,0-1.675-24.648,1.908-36.896"/>
			
				<path style="clip-path:url(#SVGID_00000082367915334179517490000012064239245760777919_);fill:none;stroke:#FFFFFF;stroke-width:0.5;stroke-miterlimit:10;" d="
				M336.6,229.566c0,0,33.138,10.524,50.497,3.162"/>
			
				<path style="clip-path:url(#SVGID_00000082367915334179517490000012064239245760777919_);fill:none;stroke:#FFFFFF;stroke-width:0.5;stroke-miterlimit:10;" d="
				M349.526,215.891c0,0,33.164,3.686,43.785-5.305"/>
			
				<path style="clip-path:url(#SVGID_00000082367915334179517490000012064239245760777919_);fill:none;stroke:#FFFFFF;stroke-width:0.5;stroke-miterlimit:10;" d="
				M329.761,235.978c0,0-10.718-21.593-10.992-36.497"/>
			
				<path style="clip-path:url(#SVGID_00000082367915334179517490000012064239245760777919_);fill:none;stroke:#FFFFFF;stroke-width:0.5;stroke-miterlimit:10;" d="
				M321.443,246.722c0,0,44.008,16.838,59.415,2.111"/>
			
				<path style="clip-path:url(#SVGID_00000082367915334179517490000012064239245760777919_);fill:none;stroke:#FFFFFF;stroke-width:0.5;stroke-miterlimit:10;" d="
				M315.306,254.787c0,0-19.259-26.554-17.855-42.559"/>
			
				<path style="clip-path:url(#SVGID_00000082367915334179517490000012064239245760777919_);fill:none;stroke:#FFFFFF;stroke-width:0.5;stroke-miterlimit:10;" d="
				M310.846,261.75c0,0,30.006,15.559,40.201,13.38"/>
			
				<path style="clip-path:url(#SVGID_00000082367915334179517490000012064239245760777919_);fill:none;stroke:#FFFFFF;stroke-width:0.5;stroke-miterlimit:10;" d="
				M304.784,268.613c0,0-23.469-17.161-26.723-29.435"/>
			
				<path style="clip-path:url(#SVGID_00000082367915334179517490000012064239245760777919_);fill:none;stroke:#FFFFFF;stroke-width:0.5;stroke-miterlimit:10;" d="
				M299.347,278.331c0,0,27.526,16.61,48.217,13.882"/>
			
				<path style="clip-path:url(#SVGID_00000082367915334179517490000012064239245760777919_);fill:none;stroke:#FFFFFF;stroke-width:0.5;stroke-miterlimit:10;" d="
				M292.332,287.548c0,0-27.777-19.04-31.107-30.112"/>
		</g>
		<g>
			<path style="fill:#7557E4;" d="M304.815,316.355c2.526-9.738,11.021-16.965,20.263-20.942s19.36-5.3,29.214-7.332
				c9.853-2.033,19.894-4.986,27.537-11.529c3.343-2.862,6.232-6.552,6.99-10.887c0.758-4.335-1.126-9.319-5.134-11.137
				c-6.343-2.877-12.976,2.952-17.787,7.987c-11.776,12.323-25.301,22.97-40.044,31.524"/>
		</g>
		<g>
			<defs>
				<path id="SVGID_00000106867947732079017280000001484157000354881937_" d="M169.704,386.712
					c-9.62-18.396-29.304-29.166-48.746-36.446c-19.442-7.28-40.1-12.331-57.256-24.02c-14.007-9.543-25.081-23.33-31.38-39.065
					c-5.386-13.457-6.474-30.776,4.138-40.649c6.473-6.022,16.071-7.813,24.8-6.41c8.729,1.402,16.746,5.634,24.191,10.402
					c44.672,28.61,72.589,76.524,98.827,122.629c2.103,3.695,4.262,7.581,4.395,11.83c0.133,4.249-2.501,8.911-6.708,9.519
					c-4.207,0.609-8.257-4.967-5.466-8.174"/>
			</defs>
			<clipPath id="SVGID_00000011027682771195739000000012564770381165451138_">
				<use xlink:href="#SVGID_00000106867947732079017280000001484157000354881937_"  style="overflow:visible;"/>
			</clipPath>
			<g style="clip-path:url(#SVGID_00000011027682771195739000000012564770381165451138_);">
				<path style="fill:#788FEC;" d="M169.704,386.712c-9.62-18.396-29.304-29.166-48.746-36.446
					c-19.442-7.28-40.1-12.331-57.256-24.02c-14.007-9.543-25.081-23.33-31.38-39.065c-5.386-13.457-6.474-30.776,4.138-40.649
					c6.473-6.022,16.071-7.813,24.8-6.41c8.729,1.402,16.746,5.634,24.191,10.402c44.672,28.61,72.589,76.524,98.827,122.629
					c2.103,3.695,4.262,7.581,4.395,11.83c0.133,4.249-2.501,8.911-6.708,9.519c-4.207,0.609-8.257-4.967-5.466-8.174"/>
			</g>
			
				<path style="clip-path:url(#SVGID_00000011027682771195739000000012564770381165451138_);fill:none;stroke:#FFFFFF;stroke-width:0.5;stroke-miterlimit:10;" d="
				M19.406,241.471c0,0,81.8,35.145,175.245,166.411"/>
			
				<path style="clip-path:url(#SVGID_00000011027682771195739000000012564770381165451138_);fill:none;stroke:#FFFFFF;stroke-width:0.5;stroke-miterlimit:10;" d="
				M66.227,270.677c0,0-2.988-32.976-10.318-48.43"/>
			
				<path style="clip-path:url(#SVGID_00000011027682771195739000000012564770381165451138_);fill:none;stroke:#FFFFFF;stroke-width:0.5;stroke-miterlimit:10;" d="
				M77.221,280.344c0,0-41.636,20.928-66.167,14.85"/>
			
				<path style="clip-path:url(#SVGID_00000011027682771195739000000012564770381165451138_);fill:none;stroke:#FFFFFF;stroke-width:0.5;stroke-miterlimit:10;" d="
				M57.224,264.975c0,0-43.115,11.883-59.072,2.226"/>
			
				<path style="clip-path:url(#SVGID_00000011027682771195739000000012564770381165451138_);fill:none;stroke:#FFFFFF;stroke-width:0.5;stroke-miterlimit:10;" d="
				M87.627,287.386c0,0,9.625-30.843,6.84-50.626"/>
			
				<path style="clip-path:url(#SVGID_00000011027682771195739000000012564770381165451138_);fill:none;stroke:#FFFFFF;stroke-width:0.5;stroke-miterlimit:10;" d="
				M100.905,299.85c0,0-54.69,31.58-78.192,15.343"/>
			
				<path style="clip-path:url(#SVGID_00000011027682771195739000000012564770381165451138_);fill:none;stroke:#FFFFFF;stroke-width:0.5;stroke-miterlimit:10;" d="
				M110.732,309.228c0,0,19.882-39.212,14.642-60.1"/>
			
				<path style="clip-path:url(#SVGID_00000011027682771195739000000012564770381165451138_);fill:none;stroke:#FFFFFF;stroke-width:0.5;stroke-miterlimit:10;" d="
				M118.105,317.502c0,0-36.428,26.93-50.382,26.2"/>
			
				<path style="clip-path:url(#SVGID_00000011027682771195739000000012564770381165451138_);fill:none;stroke:#FFFFFF;stroke-width:0.5;stroke-miterlimit:10;" d="
				M127.578,325.304c0,0,27.437-27.67,29.152-44.602"/>
			
				<path style="clip-path:url(#SVGID_00000011027682771195739000000012564770381165451138_);fill:none;stroke:#FFFFFF;stroke-width:0.5;stroke-miterlimit:10;" d="
				M136.826,337.018c0,0-32.924,27.798-60.884,28.557"/>
			
				<path style="clip-path:url(#SVGID_00000011027682771195739000000012564770381165451138_);fill:none;stroke:#FFFFFF;stroke-width:0.5;stroke-miterlimit:10;" d="
				M148.057,347.736c0,0,32.742-31.067,34.811-46.424"/>
		</g>
		<g>
			<path style="fill:#3A5DEC;" d="M251.831,329.09c5.511-6.574,15.571-6.137,24.09-5.131c-3.249,0.217-6.13-3.061-5.855-6.305
				c0.275-3.244,3.286-5.902,6.531-6.172c3.245-0.27,6.463,1.602,8.218,4.345c-2.911-3.591-5.907-7.351-6.956-11.853
				c-1.05-4.502,0.478-9.965,4.653-11.949c3.464-1.645,7.743-0.432,10.721,1.984c2.978,2.417,4.932,5.839,6.818,9.178
				c-0.016-5.788-3.072-11.074-6.032-16.048c-2.96-4.974-6.008-10.268-6.003-16.056c0.005-5.788,4.372-11.99,10.155-11.759
				c5.746,0.229,9.416,6.15,11.423,11.538c3.775,10.134,5.451,21.045,4.892,31.844c1.392-11.378,5.11-22.466,10.86-32.383
				c0.696-1.201,1.476-2.438,2.695-3.102c2.076-1.13,4.813-0.142,6.323,1.676c1.51,1.818,2.045,4.245,2.336,6.591
				c1.163,9.373-0.9,19.115-5.76,27.213c3.389-2.51,4.968-6.733,6.253-10.749c1.285-4.016,2.568-8.269,5.632-11.166
				c3.064-2.897,8.569-3.686,11.275-0.451c1.859,2.223,1.788,5.469,1.213,8.309c-1.339,6.618-4.935,12.758-10.052,17.162
				c4.635-5.105,10.309-9.263,16.574-12.145c2.39-1.099,5.16-2.018,7.595-1.023c4.608,1.882,4.227,8.863,1.256,12.856
				c-2.971,3.993-7.57,6.703-9.912,11.094c5.943-6.407,16.143-8.402,24.062-4.705c7.919,3.697,12.939,12.798,11.842,21.468
				c-35.023,0.378-70.045,0.756-105.068,1.135c-14.112,0.152-28.237,0.305-42.326-0.5"/>
		</g>
		<g>
			<path style="fill:#FF597D;" d="M121.757,384.221c-3.116-12.013-13.595-20.927-24.995-25.833
				c-11.399-4.906-23.882-6.538-36.036-9.045c-12.154-2.507-24.54-6.15-33.967-14.221c-4.124-3.53-7.687-8.083-8.623-13.43
				s1.389-11.496,6.333-13.738c7.824-3.549,16.006,3.641,21.941,9.852c14.526,15.2,31.21,28.335,49.396,38.886"/>
		</g>
		<g>
			<path style="fill:#3A5DEC;" d="M30.032,390.762c6.365-7.592,17.983-7.088,27.823-5.926c-3.752,0.25-7.08-3.535-6.763-7.282
				c0.318-3.747,3.795-6.816,7.543-7.128c3.748-0.312,7.464,1.851,9.491,5.018c-3.362-4.148-6.822-8.489-8.034-13.689
				c-1.212-5.2,0.552-11.509,5.374-13.8c4.001-1.9,8.943-0.499,12.382,2.291c3.439,2.791,5.696,6.743,7.874,10.6
				c-0.018-6.685-3.548-12.79-6.967-18.535c-3.419-5.744-6.938-11.859-6.932-18.544c0.006-6.685,5.049-13.848,11.728-13.581
				c6.636,0.264,10.875,7.103,13.193,13.326c4.359,11.704,6.295,24.305,5.65,36.778c1.607-13.141,5.902-25.947,12.542-37.4
				c0.804-1.387,1.705-2.816,3.113-3.582c2.398-1.305,5.559-0.164,7.303,1.936c1.744,2.1,2.362,4.903,2.698,7.612
				c1.343,10.825-1.039,22.077-6.653,31.429c3.913-2.898,5.738-7.776,7.221-12.414c1.484-4.638,2.965-9.55,6.504-12.896
				c3.539-3.346,9.897-4.257,13.022-0.521c2.147,2.567,2.065,6.316,1.401,9.597c-1.546,7.643-5.699,14.734-11.61,19.821
				c5.353-5.896,11.907-10.699,19.142-14.027c2.76-1.27,5.959-2.33,8.771-1.181c5.322,2.174,4.882,10.236,1.451,14.848
				c-3.431,4.612-8.743,7.741-11.448,12.813c6.864-7.4,18.645-9.704,27.79-5.434c9.145,4.27,14.944,14.781,13.677,24.794
				c-40.449,0.437-80.898,0.873-121.347,1.31c-16.298,0.176-32.612,0.352-48.884-0.577"/>
		</g>
		
			<ellipse transform="matrix(0.9876 -0.1571 0.1571 0.9876 -59.8289 42.2931)" style="fill:#DAE9F5;" cx="237.672" cy="399.682" rx="93.92" ry="14.605"/>
		<g>
			<g>
				<path style="fill:#020202;" d="M261.627,109.187l44.32,259.443c0.254,1.487,0.352,2.972,0.307,4.423
					c-0.022,0.725-0.086,1.438-0.179,2.147c-0.055,0.36-0.111,0.721-0.168,1.072c-0.382,2.103-1.081,4.114-2.039,5.984
					c-0.483,0.941-1.031,1.843-1.636,2.698c-0.605,0.854-1.276,1.661-1.994,2.427c-0.48,0.501-0.991,0.988-1.516,1.458l-0.009,0.002
					c-0.526,0.46-1.076,0.896-1.649,1.306l-0.009,0.002c-0.86,0.615-1.779,1.172-2.73,1.656l-0.009,0.002
					c-0.637,0.323-1.288,0.62-1.965,0.882c-1.363,0.525-2.796,0.926-4.283,1.18l-106.421,18.18c-1.573,0.269-3.137,0.36-4.67,0.291
					c-0.256-0.015-0.501-0.022-0.759-0.046c-0.277-0.021-0.564-0.05-0.843-0.08c-1.174-0.141-2.316-0.375-3.433-0.691
					c-0.565-0.167-1.112-0.346-1.644-0.548c-0.25-0.094-0.5-0.188-0.742-0.293c-0.524-0.213-1.034-0.457-1.535-0.713
					c-1.56-0.796-3.016-1.786-4.341-2.924c-0.527-0.456-1.037-0.934-1.524-1.446c-0.725-0.763-1.4-1.574-2.017-2.444
					c-0.831-1.155-1.539-2.389-2.124-3.703l-0.002-0.009c-0.74-1.648-1.284-3.408-1.601-5.265l-44.32-259.443
					c-2.031-11.89,5.972-23.202,17.881-25.237l106.42-18.18C248.3,89.281,259.596,97.297,261.627,109.187z"/>
				<path style="fill:#F2F7FF;" d="M256.89,109.996l44.32,259.443c0.196,1.146,0.278,2.312,0.242,3.469
					c-0.009,0.518-0.056,1.043-0.132,1.622l-0.156,0.972c-0.269,1.508-0.801,3.072-1.569,4.568
					c-0.373,0.727-0.806,1.444-1.287,2.111c-0.438,0.631-0.971,1.278-1.574,1.917c-0.282,0.292-0.625,0.624-1.022,0.984l-0.16,0.145
					c-0.331,0.29-0.673,0.573-1.036,0.84l-0.254,0.17c-0.599,0.434-1.234,0.825-1.896,1.172l-0.224,0.116
					c-0.53,0.266-1.028,0.488-1.52,0.689c-1.09,0.41-2.217,0.72-3.363,0.916l-106.421,18.18c-1.203,0.206-2.428,0.288-3.637,0.231
					c-0.412-0.017-0.826-0.044-1.225-0.093c-0.915-0.107-1.825-0.293-2.726-0.548c-0.432-0.131-0.865-0.272-1.242-0.422
					c-0.218-0.08-0.385-0.139-0.532-0.202l-0.116-0.049c-0.324-0.13-0.695-0.301-1.154-0.534c-1.188-0.616-2.333-1.386-3.396-2.296
					c-0.434-0.374-0.818-0.738-1.174-1.106c-0.582-0.612-1.113-1.263-1.575-1.915c-0.602-0.843-1.123-1.719-1.554-2.65l-0.11-0.244
					c-0.585-1.314-1.006-2.695-1.249-4.116l-44.32-259.443c-1.583-9.265,4.678-18.106,13.953-19.69l106.421-18.18
					c7.077-1.209,13.902,2.159,17.435,7.942C255.73,105.777,256.516,107.808,256.89,109.996z"/>
				<path style="opacity:0.2;fill:#020202;" d="M293.199,296.788c-0.051-0.986-0.096-2.158-0.118-3.49l3.494,20.454
					c-1.651-3.043-2.806-5.293-3.087-6.142C292.792,305.535,292.912,300.873,293.199,296.788z"/>
				<path style="fill:#020202;" d="M272.852,174.884L272.852,174.884l-5.233-30.632l0,0c2.388-0.408,4.654,1.197,5.062,3.585
					l3.756,21.985C276.845,172.21,275.24,174.476,272.852,174.884z"/>
				<path style="fill:#020202;" d="M120.863,185.085l1.999-0.341l-2.617-15.316l-1.999,0.341c-1.284,0.219-2.147,1.438-1.928,2.722
					l1.822,10.666C118.36,184.441,119.578,185.305,120.863,185.085z"/>
				<path style="fill:#020202;" d="M124.018,203.559l1.999-0.341l-2.617-15.316l-1.999,0.341c-1.284,0.219-2.147,1.438-1.928,2.722
					l1.822,10.666C121.515,202.915,122.734,203.779,124.018,203.559z"/>
				<path style="fill:#020202;" d="M200.942,108.921l-31.644,5.406c-5.324,0.909-10.376-2.669-11.286-7.993l0,0l50.922-8.699l0,0
					C209.844,102.959,206.266,108.012,200.942,108.921z"/>
			</g>
			<g>
				<g>
					<path style="fill:#D6E7FE;" d="M167.373,180.583l-26.079,4.055c-1.262,0.196-2.444-0.668-2.64-1.93l-4.055-26.079
						c-0.196-1.262,0.668-2.444,1.93-2.64l26.079-4.055c1.262-0.196,2.444,0.668,2.64,1.93l4.055,26.079
						C169.499,179.205,168.635,180.387,167.373,180.583z"/>
					<path style="fill:#FF597D;" d="M250.76,144.054l-76.893,11.956c-0.571,0.089-1.105-0.302-1.194-0.872l-0.019-0.122
						c-0.089-0.571,0.302-1.105,0.873-1.194l76.893-11.956c0.571-0.089,1.105,0.302,1.194,0.872l0.019,0.122
						C251.721,143.431,251.331,143.966,250.76,144.054z"/>
					<path style="fill:#FF597D;" d="M244.848,150.516l-70.14,10.906c-0.571,0.089-1.105-0.302-1.194-0.873l-0.019-0.122
						c-0.089-0.571,0.302-1.105,0.873-1.194l70.14-10.906c0.571-0.089,1.105,0.302,1.194,0.872l0.019,0.122
						C245.81,149.893,245.419,150.427,244.848,150.516z"/>
					<path style="fill:#FF597D;" d="M224.382,159.18l-48.842,7.595c-0.571,0.089-1.105-0.302-1.194-0.873l-0.019-0.122
						c-0.089-0.571,0.302-1.105,0.873-1.194l48.842-7.595c0.571-0.089,1.105,0.302,1.194,0.872l0.019,0.122
						C225.344,158.557,224.953,159.091,224.382,159.18z"/>
					<path style="fill:#FF597D;" d="M208.873,167.214l-32.478,5.05c-0.571,0.089-1.105-0.302-1.194-0.872l-0.019-0.122
						c-0.089-0.571,0.302-1.105,0.872-1.194l32.478-5.05c0.571-0.089,1.105,0.302,1.194,0.872l0.019,0.122
						C209.834,166.591,209.443,167.125,208.873,167.214z"/>
				</g>
				<g>
					<path style="fill:#D6E7FE;" d="M174.079,222.23l-26.079,4.055c-1.262,0.196-2.444-0.668-2.64-1.93l-4.055-26.079
						c-0.196-1.262,0.668-2.444,1.93-2.64l26.079-4.055c1.262-0.196,2.444,0.668,2.64,1.93l4.055,26.079
						C176.205,220.852,175.341,222.034,174.079,222.23z"/>
					<path style="fill:#7557E4;" d="M257.466,185.702l-76.893,11.956c-0.571,0.089-1.105-0.302-1.194-0.872l-0.019-0.122
						c-0.089-0.571,0.302-1.105,0.873-1.194l76.893-11.956c0.571-0.089,1.105,0.302,1.194,0.873l0.019,0.122
						C258.427,185.078,258.037,185.613,257.466,185.702z"/>
					<path style="fill:#7557E4;" d="M251.554,192.163l-70.14,10.906c-0.571,0.089-1.105-0.302-1.194-0.873l-0.019-0.122
						c-0.089-0.571,0.302-1.105,0.873-1.194l70.14-10.906c0.571-0.089,1.105,0.302,1.194,0.872l0.019,0.121
						C252.516,191.54,252.125,192.074,251.554,192.163z"/>
					<path style="fill:#7557E4;" d="M231.088,200.827l-48.842,7.595c-0.571,0.089-1.105-0.302-1.194-0.873l-0.019-0.122
						c-0.089-0.571,0.302-1.105,0.873-1.194l48.842-7.595c0.571-0.089,1.105,0.302,1.194,0.872l0.019,0.122
						C232.05,200.204,231.659,200.739,231.088,200.827z"/>
					<path style="fill:#7557E4;" d="M215.579,208.861l-32.478,5.05c-0.571,0.089-1.105-0.302-1.194-0.872l-0.019-0.122
						c-0.089-0.571,0.302-1.105,0.873-1.194l32.478-5.05c0.571-0.089,1.105,0.302,1.194,0.873l0.019,0.122
						C216.54,208.238,216.149,208.772,215.579,208.861z"/>
				</g>
				<g>
					<path style="fill:none;stroke:#D6E7FE;stroke-miterlimit:10;" d="M180.962,264.054l-26.079,4.055
						c-1.262,0.196-2.444-0.668-2.64-1.93l-4.055-26.079c-0.196-1.262,0.668-2.444,1.93-2.64l26.079-4.055
						c1.262-0.196,2.444,0.668,2.64,1.93l4.055,26.079C183.087,262.676,182.223,263.858,180.962,264.054z"/>
					<path style="fill:#3A5DEC;" d="M264.348,227.525l-76.893,11.956c-0.571,0.089-1.105-0.302-1.194-0.872l-0.019-0.122
						c-0.089-0.571,0.302-1.105,0.872-1.194l76.893-11.956c0.571-0.089,1.105,0.302,1.194,0.872l0.019,0.122
						C265.31,226.902,264.919,227.436,264.348,227.525z"/>
					<path style="fill:#3A5DEC;" d="M258.437,233.986l-70.14,10.906c-0.571,0.089-1.105-0.302-1.194-0.872l-0.019-0.122
						c-0.089-0.571,0.302-1.105,0.872-1.194l70.14-10.906c0.571-0.089,1.105,0.302,1.194,0.872l0.019,0.122
						C259.398,233.363,259.007,233.898,258.437,233.986z"/>
					<path style="fill:#3A5DEC;" d="M237.971,242.651l-48.842,7.595c-0.571,0.089-1.105-0.302-1.194-0.873l-0.019-0.122
						c-0.089-0.571,0.302-1.105,0.872-1.194l48.842-7.595c0.571-0.089,1.105,0.302,1.194,0.872l0.019,0.122
						C238.932,242.028,238.541,242.562,237.971,242.651z"/>
					<path style="fill:#3A5DEC;" d="M222.461,250.685l-32.478,5.05c-0.571,0.089-1.105-0.302-1.194-0.872l-0.019-0.122
						c-0.089-0.571,0.302-1.105,0.873-1.194l32.478-5.05c0.571-0.089,1.105,0.302,1.194,0.872l0.019,0.122
						C223.422,250.061,223.032,250.596,222.461,250.685z"/>
				</g>
				<g>
					<path style="fill:#3A5DEC;" d="M258.878,371.721l-50.013,8.929c-4.017,0.717-7.855-1.958-8.573-5.976l-0.153-0.856
						c-0.717-4.017,1.958-7.856,5.976-8.573l50.013-8.929c4.017-0.717,7.856,1.958,8.573,5.975l0.153,0.856
						C265.571,367.166,262.895,371.004,258.878,371.721z"/>
					
						<text transform="matrix(0.9844 -0.1757 0.1757 0.9844 212.628 373.799)" style="fill:#FFFFFF; font-family:'Montserrat-Regular'; font-size:4.7274px;">GET STARTED</text>
				</g>
				<path style="fill:#D6E7FE;" d="M268.919,300.899l-100.227,16.129c-3.681,0.592-7.146-1.912-7.738-5.593l-1.808-11.235
					c-0.592-3.681,1.912-7.146,5.593-7.739l100.227-16.129c3.682-0.592,7.146,1.912,7.739,5.593l1.808,11.235
					C275.104,296.842,272.6,300.306,268.919,300.899z"/>
				<path style="fill:none;stroke:#D6E7FE;stroke-miterlimit:10;" d="M274.742,334.781L174.515,350.91
					c-3.682,0.592-7.146-1.912-7.739-5.593l-1.808-11.235c-0.592-3.681,1.912-7.146,5.593-7.739l100.227-16.129
					c3.681-0.592,7.146,1.912,7.739,5.593l1.808,11.235C280.928,330.724,278.424,334.189,274.742,334.781z"/>
			</g>
		</g>
	</g>
</g>
</svg>
